<svg xmlns="http://www.w3.org/2000/svg" xmlns:xlink="http://www.w3.org/1999/xlink" width="349.224" height="177.178" viewBox="0 0 349.224 177.178">
  <defs>
    <clipPath id="clip-path">
      <path id="Path_107" data-name="Path 107" d="M490.859,420.933l-.481,3.209-3.651,24.241-.167,1.08a2.586,2.586,0,0,1-2.551,2.2H467.648a2.59,2.59,0,0,1-2.542-2.169l-.186-1.11-4-24.241-.521-3.17a2.585,2.585,0,0,1,2.552-3.013H488.3A2.594,2.594,0,0,1,490.859,420.933Z" transform="translate(-460.359 -417.959)" fill="#aeb2bc"/>
    </clipPath>
    <radialGradient id="radial-gradient" cx="0.15" cy="0.185" r="1.217" gradientTransform="translate(0.227) scale(0.547 1)" gradientUnits="objectBoundingBox">
      <stop offset="0" stop-color="#f7c759"/>
      <stop offset="1" stop-color="#f79239"/>
    </radialGradient>
  </defs>
  <g id="Group_48192" data-name="Group 48192" transform="translate(-1419.499 -7865.125)">
    <path id="Path_84" data-name="Path 84" d="M591.061,316.51s1.726,2.222-6.827,1.478-10.782.1-13.386,4.232-23.574,8.985-26.025,6.1-.48.056-.48.056l3.41,19.909s41.036,5.678,41.966-2.874,3.068-10.777,5.67-12.45a9.419,9.419,0,0,0,3.533-4.1S598.632,320.424,591.061,316.51Z" transform="translate(1057.703 7578.425)" fill="#92c7fc" opacity="0.237"/>
    <path id="Path_85" data-name="Path 85" d="M597.25,315.475l1.389-.68a2.537,2.537,0,0,1,3.266.9h0a2.225,2.225,0,0,1-.772,3.059l-.991.621Z" transform="translate(1063 7578.196)" fill="#aeb2bc"/>
    <path id="Path_86" data-name="Path 86" d="M586.953,316.818l4.5-2.243a6.933,6.933,0,0,1,8.942,2.484h0a6.932,6.932,0,0,1-1.745,9.308l-4.344,3.191Z" transform="translate(1061.811 7578.117)" fill="#fff" stroke="#aeb2bc" stroke-width="1"/>
    <path id="Path_87" data-name="Path 87" d="M594.35,329.257c-.937.535-3.335-1.874-5.377-5.388s-2.911-6.816-1.986-7.351c.837-.48,2.856,1.406,4.741,4.35.212.335.424.68.636,1.049.29.5.558.993.8,1.484C594.607,326.312,595.142,328.8,594.35,329.257Z" transform="translate(1061.772 7578.417)" fill="#fff" stroke="#aeb2bc" stroke-width="1"/>
    <path id="Path_88" data-name="Path 88" d="M592.778,322.942a1.518,1.518,0,0,1-1.2.58,1.564,1.564,0,0,1-.234-3.112c.212.335.424.68.636,1.049C592.265,321.96,592.532,322.451,592.778,322.942Z" transform="translate(1062.163 7578.875)" fill="#aeb2bc"/>
    <path id="Path_89" data-name="Path 89" d="M606.543,360.452l-1.56-.052c0-.021.067-2.112,0-5.325l-.007-.3c-.081-3.489-.273-11.663,7.336-15.538,2.827-1.441,4.781-4.939,5.226-9.36.524-5.212-1.1-10.283-4.034-12.62-5.643-4.487-11.82-.8-11.881-.765l-.814-1.334c.071-.041,7.183-4.282,13.667.878,3.338,2.654,5.193,8.279,4.616,14-.506,5.024-2.719,8.886-6.072,10.595-6.732,3.429-6.564,10.642-6.483,14.11l.008.306C606.613,358.3,606.544,360.43,606.543,360.452Z" transform="translate(1063.411 7578.074)" fill="#aeb2bc"/>
    <path id="Path_90" data-name="Path 90" d="M615.8,362.141l-8.511-6.258a2.037,2.037,0,0,0-2.377-.025L596,362.127Z" transform="translate(1062.856 7582.926)" fill="#aeb2bc"/>
    <path id="Path_91" data-name="Path 91" d="M507.511,331.6l-7.581,29.331a3.144,3.144,0,0,0,2.983,3.968h20.673Z" transform="translate(994.256 7580.168)" fill="#e6e6e6" stroke="#aeb2bc" stroke-width="1"/>
    <path id="Path_93" data-name="Path 93" d="M518.751,363.1l-9.881-33.6a3.575,3.575,0,0,1,3.43-4.584h51.775a3.574,3.574,0,0,1,3.441,2.607l9.455,33.6a3.574,3.574,0,0,1-3.441,4.543H522.182A3.575,3.575,0,0,1,518.751,363.1Z" transform="translate(991.284 7579.396)" fill="#fff" stroke="#aeb2bc" stroke-width="1"/>
    <g id="Group_37" data-name="Group 37" transform="translate(1509.093 7908.78)">
      <path id="Path_94" data-name="Path 94" d="M567.137,360.747H526.423a2.342,2.342,0,0,1-2.214-1.807l-5.5-20.347-1.742-6.448a2.482,2.482,0,0,1,2.214-3.224h41.031a2.344,2.344,0,0,1,2.224,1.829l6.929,26.805A2.473,2.473,0,0,1,567.137,360.747Z" transform="translate(-516.869 -328.922)" fill="#fff" stroke="#aeb2bc" stroke-width="1"/>
    </g>
    <g id="Group_40" data-name="Group 40" transform="translate(1464.782 7955.971)">
      <path id="Path_100" data-name="Path 100" d="M489.615,458.068a1.115,1.115,0,0,1,0-2.231,4.457,4.457,0,0,0,4.437-4.153l5.233-78.52a1.116,1.116,0,1,1,2.227.148l-5.232,78.52A6.7,6.7,0,0,1,489.615,458.068Z" transform="translate(-488.5 -372.123)" fill="#aeb2bc"/>
      <path id="Path_101" data-name="Path 101" d="M516.541,458.068a1.115,1.115,0,1,0,0-2.231,4.459,4.459,0,0,1-4.439-4.153l-5.232-78.52a1.116,1.116,0,1,0-2.227.148l5.232,78.52A6.7,6.7,0,0,0,516.541,458.068Z" transform="translate(-486.636 -372.123)" fill="#aeb2bc"/>
    </g>
    <g id="Group_41" data-name="Group 41" transform="translate(1676.193 7955.971)">
      <path id="Path_102" data-name="Path 102" d="M597.115,458.068a1.115,1.115,0,0,1,0-2.231,4.457,4.457,0,0,0,4.437-4.153l5.233-78.52a1.116,1.116,0,1,1,2.227.148l-5.232,78.52A6.7,6.7,0,0,1,597.115,458.068Z" transform="translate(-596 -372.123)" fill="#aeb2bc"/>
      <path id="Path_103" data-name="Path 103" d="M624.041,458.068a1.115,1.115,0,1,0,0-2.231,4.459,4.459,0,0,1-4.438-4.153l-5.232-78.52a1.116,1.116,0,1,0-2.227.148l5.232,78.52A6.7,6.7,0,0,0,624.041,458.068Z" transform="translate(-594.136 -372.123)" fill="#aeb2bc"/>
    </g>
    <path id="Path_104" data-name="Path 104" d="M728.659,364.5v4.116c0,5.2-6.829,9.415-15.248,9.415H504.748c-8.419,0-15.248-4.217-15.248-9.415V364.5Z" transform="translate(976.398 7582.968)" fill="#aeb2bc"/>
    <rect id="Rectangle_8" data-name="Rectangle 8" width="246.13" height="3.402" transform="translate(1461.993 7945.067)" fill="#273139"/>
    <rect id="Rectangle_9" data-name="Rectangle 9" width="120.693" height="3.402" transform="translate(1587.43 7945.067)" fill="#3a435d"/>
    <path id="Path_106" data-name="Path 106" d="M460.394,420.967l4.708,28.527a2.585,2.585,0,0,0,2.55,2.164h16.357a2.585,2.585,0,0,0,2.556-2.2l4.292-28.527a2.585,2.585,0,0,0-2.556-2.969H462.944A2.584,2.584,0,0,0,460.394,420.967Z" transform="translate(959.646 7590.107)" fill="none" stroke="#aeb2bc" stroke-miterlimit="10" stroke-width="1"/>
    <g id="Group_48" data-name="Group 48" transform="translate(1420.004 8008.066)">
      <g id="Group_47" data-name="Group 47" clip-path="url(#clip-path)">
        <g id="Group_46" data-name="Group 46" transform="translate(-13.998 -14.824)">
          <g id="Group_44" data-name="Group 44" transform="translate(0 0)">
            <rect id="Rectangle_10" data-name="Rectangle 10" width="41.377" height="1.148" transform="translate(0 29.258) rotate(-45)" fill="#aeb2bc"/>
            <rect id="Rectangle_11" data-name="Rectangle 11" width="41.377" height="1.138" transform="translate(3.165 32.423) rotate(-45)" fill="#aeb2bc"/>
            <rect id="Rectangle_12" data-name="Rectangle 12" width="41.377" height="1.148" transform="translate(6.322 35.58) rotate(-45)" fill="#aeb2bc"/>
            <rect id="Rectangle_13" data-name="Rectangle 13" width="41.377" height="1.138" transform="matrix(0.707, -0.707, 0.707, 0.707, 9.487, 38.745)" fill="#aeb2bc"/>
            <rect id="Rectangle_14" data-name="Rectangle 14" width="41.377" height="1.148" transform="translate(12.644 41.902) rotate(-45)" fill="#aeb2bc"/>
            <rect id="Rectangle_15" data-name="Rectangle 15" width="41.377" height="1.138" transform="translate(15.809 45.067) rotate(-45)" fill="#aeb2bc"/>
            <rect id="Rectangle_16" data-name="Rectangle 16" width="41.377" height="1.148" transform="translate(18.966 48.225) rotate(-45)" fill="#aeb2bc"/>
            <rect id="Rectangle_17" data-name="Rectangle 17" width="41.377" height="1.148" transform="translate(22.131 51.389) rotate(-45)" fill="#aeb2bc"/>
            <rect id="Rectangle_18" data-name="Rectangle 18" width="41.377" height="1.148" transform="translate(25.289 54.547) rotate(-45)" fill="#aeb2bc"/>
            <rect id="Rectangle_19" data-name="Rectangle 19" width="41.377" height="1.148" transform="translate(28.453 57.711) rotate(-45)" fill="#aeb2bc"/>
          </g>
          <g id="Group_45" data-name="Group 45" transform="translate(0 0.001)">
            <rect id="Rectangle_20" data-name="Rectangle 20" width="1.138" height="41.387" transform="translate(28.452 0.805) rotate(-45.004)" fill="#aeb2bc"/>
            <rect id="Rectangle_21" data-name="Rectangle 21" width="1.148" height="41.387" transform="translate(25.289 3.969) rotate(-45)" fill="#aeb2bc"/>
            <rect id="Rectangle_22" data-name="Rectangle 22" width="1.139" height="41.387" transform="translate(22.131 7.126) rotate(-45)" fill="#aeb2bc"/>
            <rect id="Rectangle_23" data-name="Rectangle 23" width="1.148" height="41.387" transform="translate(18.966 10.291) rotate(-45)" fill="#aeb2bc"/>
            <rect id="Rectangle_24" data-name="Rectangle 24" width="1.148" height="41.387" transform="matrix(0.707, -0.707, 0.707, 0.707, 15.803, 13.454)" fill="#aeb2bc"/>
            <rect id="Rectangle_25" data-name="Rectangle 25" width="1.148" height="41.387" transform="translate(12.644 16.613) rotate(-45)" fill="#aeb2bc"/>
            <rect id="Rectangle_26" data-name="Rectangle 26" width="1.148" height="41.387" transform="translate(9.48 19.777) rotate(-45)" fill="#aeb2bc"/>
            <rect id="Rectangle_27" data-name="Rectangle 27" width="1.138" height="41.387" transform="translate(6.322 22.935) rotate(-45)" fill="#aeb2bc"/>
            <rect id="Rectangle_28" data-name="Rectangle 28" width="1.148" height="41.387" transform="matrix(0.707, -0.707, 0.707, 0.707, 3.159, 26.099)" fill="#aeb2bc"/>
            <rect id="Rectangle_29" data-name="Rectangle 29" width="1.139" height="41.387" transform="translate(0 29.257) rotate(-45)" fill="#aeb2bc"/>
          </g>
        </g>
      </g>
    </g>
    <path id="Path_108" data-name="Path 108" d="M490.057,420.77l-.468,3.033H460.9l-.507-3a2.467,2.467,0,0,1,2.485-2.848h24.684A2.477,2.477,0,0,1,490.057,420.77Z" transform="translate(960.018 7590.446)" fill="#d5d8de"/>
    <g id="Group_51" data-name="Group 51" transform="translate(1597.742 7979.257)">
      <path id="Path_118" data-name="Path 118" d="M580.153,449.6s-2.894-10.5-.577-13.433l12.289-.418s1.766,3.16,1.859,13.851Z" transform="translate(-566.965 -388.06)" fill="#23406d"/>
      <path id="Path_119" data-name="Path 119" d="M568.178,396.684l9.423,44.424h18.266L589.174,393Z" transform="translate(-568.178 -392.998)" fill="#1b3151"/>
    </g>
    <g id="Group_53" data-name="Group 53" transform="translate(1554.227 7957.085)">
      <path id="Path_120" data-name="Path 120" d="M554,437.5a25.362,25.362,0,0,1,.726,11.9H529.817c-1.329,0-.541-2.5,1.673-4.369,3.21-2.706,8.7-5.329,9.058-7.53Z" transform="translate(-529.168 -365.686)" fill="#23406d"/>
      <g id="Group_52" data-name="Group 52" transform="translate(4.272)">
        <path id="Path_121" data-name="Path 121" d="M554.195,397.563l.982,47.375H538.154s-6.135-42.947-5.02-53.678,17.022-18.138,17.022-18.138l15.885,14.925-11.846,9.482Z" transform="translate(-532.998 -373.122)" fill="#23406d"/>
        <path id="Path_122" data-name="Path 122" d="M554.668,442.642H539.6c-.859-6.883-3.4-28.925-1.528-38.618C540.3,392.445,552.036,393,552.036,393l1.651,2.264Z" transform="translate(-532.49 -370.826)" fill="#1b3151"/>
      </g>
    </g>
    <path id="Path_123" data-name="Path 123" d="M569.285,317.926a3.087,3.087,0,0,0,.791-4.038s2.457-6.672,1.141-11.852-4.478-4.213-4.478-4.213.615-3.688-3.775-6.145-12.642.175-16.153,2.194-4.565-2.019-5.794-1.316-1.229,4.828,2.546,6.76c0,0-3.775-2.459-4.125-.615s.614,7.375,7.462,10.1l7.023,14.31,11.764-1.316S570.427,322.49,569.285,317.926Z" transform="translate(1026.238 7574.442)" fill="#1b3151"/>
    <path id="Path_124" data-name="Path 124" d="M545.176,303.458s.175,23.274,8.428,19.362l1.668,2.673,14.134-2.5-.791-6.542s-2.092,2.556-8.428,2.459c-5.7-.088-5.592-5.123-5.592-5.123s3.418-.791,1.75-4.741-5.092-2.282-3.775,3.072c0,0-3.62-1.372-2.742-6.816C549.829,305.3,546.668,305.126,545.176,303.458Z" transform="translate(1026.908 7575.917)" fill="#fff" stroke="#1b3151" stroke-width="1"/>
    <path id="Path_125" data-name="Path 125" d="M572.774,321.827s6.759-.917,12.894,7.078,17.29,29.84,1.86,29.467S572.774,321.827,572.774,321.827Z" transform="translate(1030.095 7578.036)" fill="#7cb7fa" stroke="#273139" stroke-width="1"/>
    <path id="Path_126" data-name="Path 126" d="M554,325.659l.165-2.27a4.022,4.022,0,0,1,3.121-3.625,49,49,0,0,1,10.394-1.249,4.039,4.039,0,0,1,3.817,2.6l.908,2.407Z" transform="translate(1027.927 7577.657)" fill="#7cb7fa" stroke="#1b3151" stroke-width="1"/>
    <path id="Path_127" data-name="Path 127" d="M598.776,368.338s-8.366,18.149-23.57,23.593-23.135-12.862-23.135-12.862l5.031-3.96-1.149-7.719-.937-6.325-.457-3.123-.1.167a44.261,44.261,0,0,1-6.08,7.942c-3.09,3.112-6.972,5.667-10.809,4.518-3.536-1.06-7.083-4.785-9.984-8.723a79.631,79.631,0,0,1-6.749-11.144c-2.443-1.194-4.886-6.693-4.328-9.906s4.116-4.183,4.116-4.183l3.9,2.722s2.231-1.807,3.413.424.558,7.017.558,7.017l4.35,2.409,5.221,2.889s2.465-12.46,8.132-20.547,12.9-8.366,19.2-9.114c19.019-2.253,20.525-.134,26.381,12.795.045.112.1.234.156.357C597.94,348.817,598.776,368.338,598.776,368.338Z" transform="translate(1023.587 7578.017)" fill="#92c7fc" stroke="#273139" stroke-width="1"/>
    <path id="Path_128" data-name="Path 128" d="M595.086,366.932s-8.366,18.149-23.57,23.593-23.135-12.862-23.135-12.862l5.031-3.96-1.149-7.719c3.213-3.458,9.326-8.422,20.793-13.721,11.311-5.243,14.524-12.65,15.037-18.461.045.112.1.234.156.357C594.249,347.411,595.086,366.932,595.086,366.932Z" transform="translate(1027.278 7579.422)" fill="#7ebdfa" opacity="0.3" style="mix-blend-mode: multiply;isolation: isolate"/>
    <path id="Path_129" data-name="Path 129" d="M551.273,356.32a44.261,44.261,0,0,1-6.08,7.942c-3.737-11.043,2.476-27.14,2.476-27.14Z" transform="translate(1026.772 7579.806)" fill="#1b3151" stroke="#1b3151" stroke-width="1" opacity="0.225" style="mix-blend-mode: multiply;isolation: isolate"/>
    <g id="Group_55" data-name="Group 55" transform="translate(1540.358 7913.053)">
      <path id="Path_130" data-name="Path 130" d="M527.119,359.24a76.3,76.3,0,0,1-6.467-10.678c-2.341-1.144-4.682-6.413-4.147-9.492s3.944-4.008,3.944-4.008l3.741,2.608s2.138-1.732,3.271.406S528,344.8,528,344.8l4.169,2.309C529.9,349.6,526.456,354.291,527.119,359.24Z" transform="translate(-516.428 -333.003)" fill="#fff"/>
      <path id="Path_131" data-name="Path 131" d="M529.087,336.288l-10.721-9.049a2.065,2.065,0,0,0-1.868-.257h0c-.661.224-.861.712-.443,1.077l11.248,9.187S528.989,336.975,529.087,336.288Z" transform="translate(-519.954 -332.054)" fill="#273139"/>
    </g>
    <path id="Path_132" data-name="Path 132" d="M531.734,346.3s-5.068,3.031-5.765,12.082c0,0,2.417,3.407,3.462,3.781s2.932-9.956,6.783-12.841Z" transform="translate(1024.708 7580.87)" fill="#23406d"/>
    <g id="Group_58" data-name="Group 58" transform="translate(1560.546 7936.055)">
      <path id="Path_133" data-name="Path 133" d="M544.083,396.531l-9.249,57.6h4.625l10.993-57.519Z" transform="translate(-534.833 -349.388)" fill="#fff" stroke="#1b3151" stroke-width="1"/>
      <path id="Path_134" data-name="Path 134" d="M550.52,396.531l6.671,57.6h4.276l-5.473-57.6Z" transform="translate(-533.021 -349.388)" fill="#fff" stroke="#1b3151" stroke-width="1"/>
      <path id="Path_135" data-name="Path 135" d="M585.368,396.531l9.249,57.6h-4.625L579,396.614Z" transform="translate(-529.732 -349.388)" fill="#fff" stroke="#1b3151" stroke-width="1"/>
      <path id="Path_136" data-name="Path 136" d="M578.447,396.531l-6.671,57.6H567.5l5.473-57.6Z" transform="translate(-531.06 -349.388)" fill="#fff" stroke="#1b3151" stroke-width="1"/>
      <path id="Path_137" data-name="Path 137" d="M542.5,403.552s1.127-5.522,3.663-6.288,9.735-.56,11.554-3.22S569.412,359.9,574.2,356.435,609.43,354.7,609.43,354.7l-11.618,41.7a10.425,10.425,0,0,1-10.1,7.759Z" transform="translate(-533.948 -354.269)" fill="#ffc381" stroke="#1b3151" stroke-width="1"/>
    </g>
    <path id="Path_114" data-name="Path 114" d="M665.306,402s0,3.715-.324,9.638c-.558,10.073-2.064,26.515-6.124,41.865h-20.1c-4.06-15.349-5.566-31.792-6.124-41.865-.323-5.923-.323-9.638-.323-9.638Z" transform="translate(1102.917 7588.299)" fill="none" stroke="#aeb2bc" stroke-width="1"/>
    <path id="Path_115" data-name="Path 115" d="M664.326,402s0,3.525-.314,9.146H632.624c-.314-5.621-.314-9.146-.314-9.146Z" transform="translate(1103.393 7588.791)" fill="#aeb2bc" opacity="0.437"/>
    <g id="Group_436" data-name="Group 436" transform="translate(1740.189 7950.287)">
      <g id="Group_420" data-name="Group 420" transform="translate(0 0)">
        <g id="Group_419" data-name="Group 419">
          <g id="Group_418" data-name="Group 418">
            <path id="Path_114-2" data-name="Path 114" d="M524.658,222.114c-.289.43-.573.83-.841,1.194-.857,1.162-1.541,1.937-1.594,2H509.614c-.054-.063-.737-.838-1.594-2-.268-.364-.553-.764-.841-1.194-1.546-2.306-3.178-5.419-2.731-7.789a3.6,3.6,0,0,1,.618-1.574,1.632,1.632,0,0,1,.447-.4c1.36-.794,3.446,1.061,4.1,1,.889-.08-.558-4.522-2.622-7.674-1.93-2.947-3.187-6.886-.823-8.305.086-.051.173-.1.267-.142a2.726,2.726,0,0,1,.271-.113c3.068-1.131,4.118,2.989,5.411,2.423,1.271-.558-2.622-13.713,3.5-13.74.094,0,.2,0,.3.007s.2-.009.3-.007c6.12.027,2.227,13.182,3.5,13.74,1.293.566,2.344-3.554,5.411-2.423a2.68,2.68,0,0,1,.271.113c.094.044.182.091.267.142,2.363,1.42,1.106,5.358-.822,8.305-2.065,3.152-3.512,7.594-2.624,7.674.661.06,2.745-1.8,4.1-1a1.632,1.632,0,0,1,.447.4,3.605,3.605,0,0,1,.618,1.574C527.836,216.7,526.2,219.809,524.658,222.114Z" transform="translate(-504.373 -185.803)" fill="#7fd98e"/>
          </g>
        </g>
      </g>
      <g id="Group_423" data-name="Group 423" transform="translate(11.248)">
        <g id="Group_422" data-name="Group 422">
          <g id="Group_421" data-name="Group 421">
            <path id="Path_115-2" data-name="Path 115" d="M522.345,185.8v39.506h-.6V185.8c.1,0,.2,0,.3.008S522.248,185.8,522.345,185.8Z" transform="translate(-521.75 -185.803)" fill="#3c7341"/>
          </g>
        </g>
      </g>
      <g id="Group_426" data-name="Group 426" transform="translate(1.549 11.432)">
        <g id="Group_425" data-name="Group 425">
          <g id="Group_424" data-name="Group 424">
            <path id="Path_116" data-name="Path 116" d="M516.988,214.667l-.224.194-.226.195-.072-.084-9.7-11.2.25-.17c.086-.049.173-.1.268-.14l9.182,10.6.3.343Z" transform="translate(-506.766 -203.463)" fill="#3c7341"/>
          </g>
        </g>
      </g>
      <g id="Group_429" data-name="Group 429" transform="translate(0.693 26.551)">
        <g id="Group_428" data-name="Group 428">
          <g id="Group_427" data-name="Group 427">
            <path id="Path_117" data-name="Path 117" d="M516.521,239.1l-.225.195-.226.194L516,239.4l-10.555-12.186a1.583,1.583,0,0,1,.447-.4L516,238.493l.3.343Z" transform="translate(-505.444 -226.82)" fill="#3c7341"/>
          </g>
        </g>
      </g>
      <g id="Group_432" data-name="Group 432" transform="translate(11.32 11.432)">
        <g id="Group_431" data-name="Group 431">
          <g id="Group_430" data-name="Group 430">
            <path id="Path_118-2" data-name="Path 118" d="M532.082,203.773l-9.7,11.2-.073.085-.225-.195-.226-.194.226-.26.3-.345,9.18-10.6c.1.043.182.091.268.14Z" transform="translate(-521.861 -203.463)" fill="#3c7341"/>
          </g>
        </g>
      </g>
      <g id="Group_435" data-name="Group 435" transform="translate(11.32 26.551)">
        <g id="Group_434" data-name="Group 434">
          <g id="Group_433" data-name="Group 433">
            <path id="Path_119-2" data-name="Path 119" d="M532.939,227.217,522.385,239.4l-.073.085-.225-.194-.226-.195.226-.26.3-.345,10.107-11.671A1.6,1.6,0,0,1,532.939,227.217Z" transform="translate(-521.861 -226.82)" fill="#3c7341"/>
          </g>
        </g>
      </g>
    </g>
    <path id="Path_53915" data-name="Path 53915" d="M.5,0V-4.669h3.2v.721H1.316v1.21H3.647v.721H1.316v1.3H3.695V0ZM4.071,0,5.312-1.736,4.143-3.38h.824l.807,1.148.8-1.148H7.4L6.228-1.736,7.475,0H6.648L5.773-1.248,4.891,0Zm3.91,1.289V-3.38h.735v.461a1.354,1.354,0,0,1,.477-.4,1.326,1.326,0,0,1,.61-.145,1.368,1.368,0,0,1,1.083.475A1.906,1.906,0,0,1,11.3-1.7a1.919,1.919,0,0,1-.415,1.3A1.365,1.365,0,0,1,9.8.085a1.314,1.314,0,0,1-.6-.142,1.4,1.4,0,0,1-.485-.412V1.289Zm.735-2.311A.991.991,0,0,0,9.087-.7a1.041,1.041,0,0,0,.5.133.855.855,0,0,0,.692-.314,1.23,1.23,0,0,0,.261-.813,1.213,1.213,0,0,0-.261-.8.857.857,0,0,0-.692-.313,1.048,1.048,0,0,0-.5.132.967.967,0,0,0-.369.323Zm3.1-.673a1.855,1.855,0,0,1,.217-.89,1.639,1.639,0,0,1,.614-.643,1.689,1.689,0,0,1,.885-.238,1.532,1.532,0,0,1,1.208.518A1.929,1.929,0,0,1,15.2-1.624v.174H12.585a1.033,1.033,0,0,0,.33.665,1.054,1.054,0,0,0,.747.265,1.5,1.5,0,0,0,.521-.1,1.192,1.192,0,0,0,.439-.272l.335.482a1.669,1.669,0,0,1-.6.366,2.268,2.268,0,0,1-.766.126,1.733,1.733,0,0,1-1.27-.494A1.728,1.728,0,0,1,11.816-1.7Zm.762-.27h1.9a1.011,1.011,0,0,0-.063-.309,1.041,1.041,0,0,0-.166-.289.764.764,0,0,0-.3-.219,1.046,1.046,0,0,0-.426-.082,1,1,0,0,0-.408.08.777.777,0,0,0-.294.215,1.139,1.139,0,0,0-.174.287A1.045,1.045,0,0,0,12.578-1.965ZM15.921,0V-3.38h.735v.461a1.616,1.616,0,0,1,.506-.386,1.481,1.481,0,0,1,.684-.161,1.1,1.1,0,0,1,.817.28,1.1,1.1,0,0,1,.277.807V0H18.2V-2.112a.7.7,0,0,0-.176-.538.717.717,0,0,0-.5-.162,1,1,0,0,0-.5.132,1.126,1.126,0,0,0-.369.323V0ZM19.6-.441l.338-.533a1.639,1.639,0,0,0,.511.337,1.553,1.553,0,0,0,.634.142.826.826,0,0,0,.494-.126.392.392,0,0,0,.173-.332.272.272,0,0,0-.113-.222.821.821,0,0,0-.292-.138q-.179-.05-.4-.094a4.408,4.408,0,0,1-.437-.113,2.006,2.006,0,0,1-.4-.171.8.8,0,0,1-.292-.292.87.87,0,0,1-.113-.453.919.919,0,0,1,.355-.731,1.472,1.472,0,0,1,.974-.3,1.914,1.914,0,0,1,1.316.479l-.308.516a1.132,1.132,0,0,0-.426-.294,1.471,1.471,0,0,0-.576-.113.8.8,0,0,0-.458.116.348.348,0,0,0-.171.3.231.231,0,0,0,.087.181.6.6,0,0,0,.231.116q.144.041.328.087t.376.085a1.83,1.83,0,0,1,.376.121,1.685,1.685,0,0,1,.328.19.765.765,0,0,1,.231.292.982.982,0,0,1,.087.424.925.925,0,0,1-.373.757,1.626,1.626,0,0,1-1.036.3,2.367,2.367,0,0,1-.812-.137A1.756,1.756,0,0,1,19.6-.441ZM22.982-1.7a1.855,1.855,0,0,1,.217-.89,1.639,1.639,0,0,1,.614-.643,1.689,1.689,0,0,1,.885-.238,1.532,1.532,0,0,1,1.208.518,1.929,1.929,0,0,1,.456,1.324v.174H23.751a1.033,1.033,0,0,0,.33.665,1.054,1.054,0,0,0,.747.265,1.5,1.5,0,0,0,.521-.1,1.192,1.192,0,0,0,.439-.272l.335.482a1.669,1.669,0,0,1-.6.366,2.268,2.268,0,0,1-.766.126,1.733,1.733,0,0,1-1.27-.494A1.728,1.728,0,0,1,22.982-1.7Zm.762-.27h1.9a1.011,1.011,0,0,0-.063-.309,1.041,1.041,0,0,0-.166-.289.764.764,0,0,0-.3-.219,1.046,1.046,0,0,0-.426-.082,1,1,0,0,0-.408.08A.777.777,0,0,0,24-2.569a1.139,1.139,0,0,0-.174.287A1.045,1.045,0,0,0,23.745-1.965ZM26.793-.441l.338-.533a1.639,1.639,0,0,0,.511.337,1.553,1.553,0,0,0,.634.142.826.826,0,0,0,.494-.126.392.392,0,0,0,.173-.332.272.272,0,0,0-.113-.222.821.821,0,0,0-.292-.138q-.179-.05-.4-.094a4.408,4.408,0,0,1-.437-.113,2.006,2.006,0,0,1-.4-.171.8.8,0,0,1-.292-.292.87.87,0,0,1-.113-.453.919.919,0,0,1,.355-.731,1.472,1.472,0,0,1,.974-.3,1.914,1.914,0,0,1,1.316.479l-.308.516a1.132,1.132,0,0,0-.426-.294,1.471,1.471,0,0,0-.576-.113.8.8,0,0,0-.458.116.348.348,0,0,0-.171.3.231.231,0,0,0,.087.181.6.6,0,0,0,.231.116q.144.041.328.087t.376.085A1.83,1.83,0,0,1,29-1.873a1.685,1.685,0,0,1,.328.19.765.765,0,0,1,.231.292.982.982,0,0,1,.087.424.925.925,0,0,1-.373.757,1.626,1.626,0,0,1-1.036.3,2.367,2.367,0,0,1-.812-.137A1.756,1.756,0,0,1,26.793-.441ZM.5,8V3.331H2.546a1.525,1.525,0,0,1,1.107.407,1.4,1.4,0,0,1,.42,1.056,1.576,1.576,0,0,1-.092.55,1.184,1.184,0,0,1-.251.415,1.388,1.388,0,0,1-.352.268,1.3,1.3,0,0,1-.412.137L4.108,8H3.165L2.129,6.257H1.316V8Zm.82-2.464H2.437a.815.815,0,0,0,.573-.205.694.694,0,0,0,.224-.537.694.694,0,0,0-.224-.537.815.815,0,0,0-.573-.205H1.316ZM4.454,6.3a1.855,1.855,0,0,1,.217-.89,1.639,1.639,0,0,1,.614-.643,1.689,1.689,0,0,1,.885-.238,1.532,1.532,0,0,1,1.208.518,1.929,1.929,0,0,1,.456,1.324v.174H5.223a1.033,1.033,0,0,0,.33.665A1.054,1.054,0,0,0,6.3,7.48a1.5,1.5,0,0,0,.521-.1,1.192,1.192,0,0,0,.439-.272l.335.482a1.669,1.669,0,0,1-.6.366,2.268,2.268,0,0,1-.766.126A1.7,1.7,0,0,1,4.454,6.3Zm.762-.27h1.9a1.011,1.011,0,0,0-.063-.309,1.041,1.041,0,0,0-.166-.289.764.764,0,0,0-.3-.219,1.046,1.046,0,0,0-.426-.082,1,1,0,0,0-.408.08.777.777,0,0,0-.294.215,1.139,1.139,0,0,0-.174.287A1.045,1.045,0,0,0,5.216,6.035ZM8.559,9.289V4.62h.735v.461a1.354,1.354,0,0,1,.477-.4,1.326,1.326,0,0,1,.61-.145,1.368,1.368,0,0,1,1.083.475,1.906,1.906,0,0,1,.414,1.3,1.919,1.919,0,0,1-.415,1.3,1.365,1.365,0,0,1-1.082.479,1.314,1.314,0,0,1-.6-.142,1.4,1.4,0,0,1-.485-.412V9.289Zm.735-2.311a.991.991,0,0,0,.371.321,1.041,1.041,0,0,0,.5.133.855.855,0,0,0,.692-.314,1.23,1.23,0,0,0,.261-.813,1.213,1.213,0,0,0-.261-.8.857.857,0,0,0-.692-.313,1.048,1.048,0,0,0-.5.132.967.967,0,0,0-.369.323Zm3.1-.673a1.909,1.909,0,0,1,.123-.685,1.748,1.748,0,0,1,.344-.564,1.564,1.564,0,0,1,.549-.381,1.817,1.817,0,0,1,.721-.14,1.759,1.759,0,0,1,.928.243,1.6,1.6,0,0,1,.608.641,1.9,1.9,0,0,1,.207.887,1.923,1.923,0,0,1-.207.894,1.6,1.6,0,0,1-.608.644,1.759,1.759,0,0,1-.928.243,1.8,1.8,0,0,1-.721-.142,1.583,1.583,0,0,1-.549-.383A1.743,1.743,0,0,1,12.517,7,1.932,1.932,0,0,1,12.394,6.3Zm.762,0a1.238,1.238,0,0,0,.263.8.941.941,0,0,0,1.427,0,1.241,1.241,0,0,0,.261-.8,1.224,1.224,0,0,0-.261-.793.946.946,0,0,0-1.427,0A1.219,1.219,0,0,0,13.156,6.3ZM16.611,8V4.62h.735v.5a1.633,1.633,0,0,1,.492-.414,1.24,1.24,0,0,1,.608-.161v.728a1.063,1.063,0,0,0-.728.115.908.908,0,0,0-.373.313V8Zm2.013-2.738V4.62h.561V3.693h.735V4.62h.687v.643H19.92V7.033a.461.461,0,0,0,.085.289.285.285,0,0,0,.239.111.524.524,0,0,0,.191-.036.365.365,0,0,0,.137-.084l.174.554a.971.971,0,0,1-.694.219.781.781,0,0,1-.868-.868V5.262Z" transform="translate(1514.929 7917.328) rotate(-2)" fill="#404347"/>
    <g id="Group_48179" data-name="Group 48179" transform="translate(1517.961 7928.398) rotate(-2)">
      <g id="meal_1_" data-name="meal (1)" transform="translate(14.5 2.653)">
        <g id="Group_47708" data-name="Group 47708" transform="translate(0 0)">
          <g id="Group_47704" data-name="Group 47704" transform="translate(0 2.817)">
            <path id="Path_53604" data-name="Path 53604" d="M4.836.973H.466A.467.467,0,0,1,0,.507V.466A.467.467,0,0,1,.466,0h4.37A.467.467,0,0,1,5.3.466V.507A.467.467,0,0,1,4.836.973ZM.466.311A.156.156,0,0,0,.311.466V.507A.156.156,0,0,0,.466.663h4.37A.156.156,0,0,0,4.991.507V.466A.156.156,0,0,0,4.836.311Z"/>
          </g>
          <g id="Group_47705" data-name="Group 47705" transform="translate(1.833 0)">
            <path id="Path_53605" data-name="Path 53605" d="M1.481.311H.155A.155.155,0,0,1,.155,0H1.481a.155.155,0,1,1,0,.311Z"/>
          </g>
          <g id="Group_47706" data-name="Group 47706" transform="translate(2.164 0)">
            <path id="Path_53606" data-name="Path 53606" d="M.818.973H.155A.155.155,0,0,1,0,.818V.155A.155.155,0,0,1,.155,0H.818A.155.155,0,0,1,.973.155V.818A.155.155,0,0,1,.818.973ZM.311.663H.663V.311H.311Z"/>
          </g>
          <g id="Group_47707" data-name="Group 47707" transform="translate(0.342 0.663)">
            <path id="Path_53607" data-name="Path 53607" d="M4.463,2.464H.155A.155.155,0,0,1,0,2.309,2.309,2.309,0,0,1,3.942.676a2.294,2.294,0,0,1,.676,1.633A.155.155,0,0,1,4.463,2.464ZM.317,2.154H4.3a2,2,0,0,0-3.985,0Z" transform="translate(0 0)"/>
          </g>
        </g>
      </g>
      <g id="hotel_6_" data-name="hotel (6)" transform="translate(7.231 0)">
        <g id="Group_47732" data-name="Group 47732" transform="translate(0 0)">
          <g id="Group_47731" data-name="Group 47731" transform="translate(0)">
            <path id="Path_53633" data-name="Path 53633" d="M4.738,6.029V1H3.7V0H3.358V.355H3.046V0H2.709V1H1.666V6.029H.882V5.578a.694.694,0,1,0-.375,0v.451H0V6.4H5.646V6.029H4.738ZM.375,4.909a.319.319,0,1,1,.319.319A.319.319,0,0,1,.375,4.909ZM3.046.632h.312V1H3.046Zm.517,5.4H2.841v-.9h.721Zm.8,0H3.938V4.749H2.466v1.28H2.041V1.376H4.363Z"/>
          </g>
        </g>
        <g id="Group_47734" data-name="Group 47734" transform="translate(2.481 1.914)">
          <g id="Group_47733" data-name="Group 47733">
            <rect id="Rectangle_3603" data-name="Rectangle 3603" width="0.375" height="0.534"/>
          </g>
        </g>
        <g id="Group_47736" data-name="Group 47736" transform="translate(3.548 1.914)">
          <g id="Group_47735" data-name="Group 47735">
            <rect id="Rectangle_3604" data-name="Rectangle 3604" width="0.375" height="0.534"/>
          </g>
        </g>
        <g id="Group_47738" data-name="Group 47738" transform="translate(2.481 2.848)">
          <g id="Group_47737" data-name="Group 47737">
            <rect id="Rectangle_3605" data-name="Rectangle 3605" width="0.375" height="0.534"/>
          </g>
        </g>
        <g id="Group_47740" data-name="Group 47740" transform="translate(3.548 2.848)">
          <g id="Group_47739" data-name="Group 47739">
            <rect id="Rectangle_3606" data-name="Rectangle 3606" width="0.375" height="0.534"/>
          </g>
        </g>
        <g id="Group_47742" data-name="Group 47742" transform="translate(2.481 3.781)">
          <g id="Group_47741" data-name="Group 47741">
            <rect id="Rectangle_3607" data-name="Rectangle 3607" width="0.375" height="0.534"/>
          </g>
        </g>
        <g id="Group_47744" data-name="Group 47744" transform="translate(3.548 3.781)">
          <g id="Group_47743" data-name="Group 47743">
            <rect id="Rectangle_3608" data-name="Rectangle 3608" width="0.375" height="0.534"/>
          </g>
        </g>
      </g>
      <g id="airplane_8_" data-name="airplane (8)" transform="translate(0 2.274)">
        <path id="Path_53636" data-name="Path 53636" d="M6.411.924a.535.535,0,0,0-.278-.3A1.936,1.936,0,0,0,4.643.555L4.132.741,2.674.02A.189.189,0,0,0,2.525.011L1.654.328a.189.189,0,0,0-.046.331l.924.664-1.284.467L.772,1.4a.189.189,0,0,0-.183-.031l-.464.169a.189.189,0,0,0-.113.242l.3.813a1.054,1.054,0,0,0,1.351.63l1.131-.412-.244.958A.189.189,0,0,0,2.793,4l.871-.317a.189.189,0,0,0,.108-.1l.585-1.334L6.09,1.614a.539.539,0,0,0,.322-.69ZM2.119.561,2.578.394,3.642.92l-.679.247Zm3.841.7-1.809.658a.189.189,0,0,0-.108.1L3.458,3.353,3,3.52l.244-.958A.189.189,0,0,0,3,2.338l-1.467.534a.676.676,0,0,1-.867-.4L.431,1.833l.187-.068.477.386a.189.189,0,0,0,.183.031L4.772.91a1.561,1.561,0,0,1,1.2.052.161.161,0,0,1-.013.3Z"/>
      </g>
    </g>
    <path id="Path_53913" data-name="Path 53913" d="M167.129,388.494s-4.488-6.107-11.708-3.895-13.985,2.862-17.953-3.9-.13-9.757,3.382-9.3,6.634,6.765,11.774,6.83S166.023,382.241,167.129,388.494Z" transform="translate(1304.002 7539.642)" opacity="0.649" fill="url(#radial-gradient)"/>
    <path id="Path_53914" data-name="Path 53914" d="M150.4,379.342a5.145,5.145,0,0,0-5.458-1.816c-3.366,1.031-6.52,1.334-8.37-1.82s-.061-4.549,1.577-4.336,3.093,3.154,5.489,3.184S149.881,376.427,150.4,379.342Z" transform="translate(1490.705 7494.487)" opacity="0.728" fill="url(#radial-gradient)"/>
  </g>
</svg>
