<svg xmlns="http://www.w3.org/2000/svg" width="162.827" height="31.29" viewBox="0 0 162.827 31.29">
  <g id="Group_46606" data-name="Group 46606" transform="translate(-31.12 -22.5)">
    <path id="Path_53426" data-name="Path 53426" d="M13.2,2.322V-12.045H10.78v7.912c0,2.088-.907,4.78-3.956,4.78-1.566,0-2.775-.8-2.775-3.159v-9.532H1.632V-1.716c0,3.434,2.555,4.45,4.67,4.45A4.737,4.737,0,0,0,10.862.179l.055.055V2.322ZM23.471-10.04v-2.005H21.164v-4.011H18.746v4.011H16.8v2.005h1.95V-.563c0,1.731.522,3.077,2.912,3.077.247,0,.934-.11,1.813-.192V.426h-.852c-.494,0-1.456,0-1.456-1.126v-9.34Z" transform="translate(170.476 45.924)" fill="#ff9f23"/>
    <path id="Subtraction_157" data-name="Subtraction 157" d="M9.836,29.079a14.118,14.118,0,0,1-5.59-1.142,14.283,14.283,0,0,1-3.305-1.98,15.447,15.447,0,0,0,2.383-3.394c-.1-.086-.208-.177-.31-.269a10.161,10.161,0,0,0,14.072-.411,10.477,10.477,0,0,0,0-14.685A10.162,10.162,0,0,0,2.663,7.119,15.422,15.422,0,0,0,0,3.946a14.288,14.288,0,0,1,4.246-2.8,14.247,14.247,0,0,1,11.18,0,14.307,14.307,0,0,1,4.565,3.116,14.668,14.668,0,0,1,0,20.561,14.307,14.307,0,0,1-4.565,3.116A14.118,14.118,0,0,1,9.836,29.079Z" transform="translate(144.359 23)" fill="#ff9f23" stroke="rgba(0,0,0,0)" stroke-miterlimit="10" stroke-width="1"/>
    <path id="Path_53425" data-name="Path 53425" d="M19.394.151H5.517V-7.541h12.6V-10.3H5.517v-7.051H19.17V-20.1H2.408V2.907H19.394Zm10.16-5.865,5.673-8.14H31.765l-3.878,5.9-3.878-5.9H20.387L26-5.714,20.1,2.907h3.557l4.038-6.314,4.166,6.314H35.45ZM39.04-4.688c0-2.724.449-7.115,4.519-7.115,4.359,0,4.583,4.134,4.583,6.282,0,3.686-1.442,6.474-4.519,6.474C41.828.952,39.04-.234,39.04-4.688ZM36.348,9.541h2.82v-8.4h.064a5.039,5.039,0,0,0,4.455,2.243c5.7,0,7.371-5.352,7.371-9.358,0-4.711-2.532-8.365-6.987-8.365a5.668,5.668,0,0,0-5,2.852h-.064v-2.372h-2.66ZM64.519-2.349a4.258,4.258,0,0,1-4.327,3.3c-3.237,0-4.871-2.019-4.871-5.512H67.564c0-5.929-2.372-9.775-7.211-9.775-5.544,0-8.044,4.134-8.044,9.326,0,4.839,2.788,8.4,7.5,8.4a7.2,7.2,0,0,0,4.551-1.154,7.245,7.245,0,0,0,2.981-4.583ZM55.321-6.8a4.92,4.92,0,0,1,4.647-5c3.429,0,4.519,2.4,4.679,5ZM83.3-8.5c0-4.775-3.269-5.833-5.865-5.833a6.079,6.079,0,0,0-5.064,2.852h-.064v-2.372h-2.66V2.907h2.82V-6.227c0-4.551,2.82-5.577,4.423-5.577,2.756,0,3.589,1.474,3.589,4.391V2.907H83.3Zm15.127-.577c0-.833-.417-5.256-6.41-5.256-3.3,0-6.346,1.667-6.346,5.352,0,2.308,1.538,3.493,3.878,4.07l3.269.8c2.4.609,3.333,1.058,3.333,2.4,0,1.859-1.827,2.66-3.846,2.66-3.974,0-4.359-2.115-4.455-3.429H85.126c.1,2.019.577,5.865,7.211,5.865,3.782,0,6.634-2.083,6.634-5.544,0-2.275-1.218-3.557-4.711-4.423l-2.82-.705C89.261-7.829,88.4-8.15,88.4-9.528c0-2.083,2.468-2.372,3.333-2.372,3.557,0,3.942,1.763,3.974,2.82Zm13.909,6.73a4.258,4.258,0,0,1-4.327,3.3c-3.237,0-4.871-2.019-4.871-5.512h12.243c0-5.929-2.372-9.775-7.211-9.775-5.544,0-8.044,4.134-8.044,9.326,0,4.839,2.788,8.4,7.5,8.4a7.2,7.2,0,0,0,4.551-1.154,7.244,7.244,0,0,0,2.981-4.583Zm-9.2-4.455a4.92,4.92,0,0,1,4.647-5c3.429,0,4.519,2.4,4.679,5Z" transform="translate(28.712 44.249)" fill="#2864a0"/>
  </g>
</svg>
