<svg xmlns="http://www.w3.org/2000/svg" width="147.294" height="118.514" viewBox="0 0 147.294 118.514">
  <g id="Group_43942" data-name="Group 43942" transform="translate(-11221 -1308)">
    <path id="Path_50390" data-name="Path 50390" d="M182.69,246.517c-.572,0-1.15-.009-1.717-.027l.013-.412c.814.025,1.645.032,2.464.021l.006.412Q183.074,246.517,182.69,246.517Zm3.246-.1-.024-.411c.816-.048,1.642-.116,2.455-.2l.043.41C187.591,246.3,186.758,246.373,185.936,246.421Zm-7.442-.064c-.822-.063-1.654-.146-2.47-.246l.05-.409c.811.1,1.635.181,2.451.244Zm12.378-.453-.062-.408c.81-.123,1.627-.266,2.426-.425l.08.4C192.512,245.636,191.689,245.78,190.872,245.9Zm-17.3-.151c-.812-.138-1.633-.3-2.437-.471l.087-.4c.8.174,1.613.331,2.419.467Zm22.172-.817-.1-.4c.8-.2,1.6-.414,2.377-.646l.117.4C197.348,244.519,196.542,244.738,195.741,244.936Zm-27.023-.236c-.8-.212-1.6-.445-2.384-.693l.124-.393c.779.246,1.575.478,2.365.688Zm31.781-1.175-.135-.389c.772-.268,1.548-.558,2.308-.863l.153.383C202.06,242.962,201.277,243.254,200.5,243.525Zm-36.52-.323c-.774-.284-1.553-.591-2.315-.912l.16-.38c.756.318,1.529.623,2.3.906Zm41.124-1.519-.171-.375c.741-.337,1.486-.7,2.215-1.069l.188.367C206.6,240.981,205.85,241.343,205.1,241.683Zm4.412-2.255-.2-.358c.711-.406,1.421-.832,2.109-1.268l.22.348C210.946,238.589,210.231,239.019,209.514,239.427Zm4.19-2.651-.236-.338c.669-.468,1.337-.958,1.986-1.456l.251.327C215.052,235.812,214.379,236.306,213.7,236.777Zm-62.843-.581c-.665-.483-1.33-.99-1.976-1.505l.257-.322c.641.512,1.3,1.014,1.961,1.494Zm66.776-2.442-.266-.315c.624-.526,1.245-1.075,1.846-1.631l.28.3C218.891,232.671,218.266,233.224,217.637,233.754ZM146.98,233.1c-.62-.543-1.236-1.107-1.83-1.678l.285-.3c.59.567,1.2,1.127,1.816,1.666Zm74.3-2.713-.294-.29c.575-.583,1.144-1.186,1.691-1.793l.306.276c-.551.611-1.124,1.219-1.7,1.806ZM143.4,229.66c-.569-.6-1.13-1.216-1.669-1.837l.311-.27c.535.616,1.092,1.23,1.657,1.823ZM224.6,226.7l-.318-.262c.52-.632,1.031-1.285,1.521-1.94l.33.247C225.643,225.4,225.127,226.058,224.6,226.7Zm-84.458-.783c-.511-.645-1.013-1.311-1.495-1.98l.335-.241c.477.663.976,1.325,1.483,1.965Zm87.433-3.195-.341-.232c.46-.677.91-1.374,1.338-2.071l.352.216C228.5,221.333,228.042,222.036,227.578,222.718Zm-90.33-.831c-.449-.689-.889-1.4-1.307-2.107l.355-.209c.415.7.851,1.407,1.3,2.091Zm92.93-3.4-.361-.2c.4-.716.78-1.452,1.143-2.187l.37.183C230.966,217.02,230.578,217.761,230.179,218.483Zm2.2-4.457L232,213.86c.329-.75.644-1.519.938-2.284l.385.148C233.03,212.5,232.712,213.27,232.381,214.026Zm-99.762-.89c-.316-.759-.619-1.535-.9-2.307l.388-.141c.279.766.579,1.537.893,2.289Zm101.545-3.755-.391-.13c.257-.775.5-1.568.722-2.356l.4.112C234.668,207.8,234.423,208.6,234.164,209.381Zm-103.239-.9c-.245-.786-.476-1.588-.685-2.386l.4-.1c.208.792.436,1.588.68,2.368ZM235.508,204.6l-.4-.093c.185-.795.353-1.606.5-2.412l.405.074C235.864,202.984,235.694,203.8,235.508,204.6Zm-105.842-.927c-.172-.805-.328-1.626-.462-2.439l.407-.068c.134.807.288,1.621.459,2.42Zm106.74-3.955-.409-.056c.111-.808.2-1.631.278-2.448l.411.037c-.075.823-.169,1.653-.28,2.466Zm-107.553-.941c-.1-.816-.177-1.647-.237-2.471l.411-.03c.06.817.139,1.642.236,2.452Zm108-4-.412-.019c.037-.817.055-1.646.055-2.463h.412C236.911,193.12,236.892,193.955,236.855,194.778Zm-108.364-.949c-.014-.506-.021-1.021-.021-1.533q0-.476.008-.95l.412.007q-.008.47-.008.943c0,.508.007,1.02.021,1.521Zm.5-4.937-.411-.026c.051-.824.122-1.656.211-2.473l.41.044c-.088.811-.158,1.637-.209,2.455Zm107.244-2.516c-.082-.813-.2-1.209-.315-2.019l.408-.06c.12.815.224,1.438.307,2.257ZM129.519,184l-.407-.063c.126-.816.273-1.638.436-2.444l.4.082C129.79,182.37,129.644,183.186,129.519,184ZM235.5,181.931c-.157-.8-.335-1.614-.527-2.406l.4-.1c.194.8.373,1.614.531,2.425ZM130.5,179.168l-.4-.1c.2-.8.422-1.6.659-2.393l.395.119C130.914,177.576,130.694,178.375,130.5,179.168Zm103.84-2.023c-.23-.785-.481-1.575-.747-2.347l.39-.134c.268.779.521,1.575.753,2.366Zm-102.421-2.7-.389-.137c.274-.779.57-1.563.879-2.328l.382.155C132.48,172.893,132.187,173.671,131.915,174.444Zm100.82-1.957c-.3-.759-.623-1.52-.958-2.264l.376-.169c.337.749.662,1.516.965,2.281Zm-98.969-2.619-.375-.172c.344-.75.711-1.5,1.089-2.235l.366.189C134.471,168.377,134.107,169.123,133.765,169.868ZM230.716,168c-.369-.728-.76-1.457-1.162-2.168l.359-.2c.405.716.8,1.451,1.171,2.184Zm-94.688-2.521-.357-.206c.411-.714.845-1.429,1.289-2.125l.348.222C136.867,164.065,136.436,164.775,136.028,165.484Zm92.266-1.76c-.436-.694-.892-1.385-1.356-2.054l.339-.235c.468.674.928,1.371,1.366,2.069Zm-89.612-2.4-.337-.238c.475-.674.972-1.346,1.477-2l.326.253C139.647,159.992,139.154,160.659,138.682,161.328Zm86.807-1.648c-.5-.651-1.014-1.3-1.538-1.923l.316-.265c.528.63,1.049,1.282,1.55,1.937ZM141.7,157.433l-.314-.267c.533-.627,1.089-1.25,1.652-1.854l.3.281C142.784,156.192,142.233,156.811,141.7,157.433Zm80.623-1.527c-.554-.6-1.128-1.2-1.707-1.776l.291-.293c.583.58,1.162,1.182,1.72,1.789Zm-77.262-2.075-.288-.295c.59-.577,1.2-1.147,1.813-1.695l.275.308c-.609.544-1.214,1.11-1.8,1.682Zm73.768-1.4c-.607-.551-1.234-1.094-1.863-1.614l.263-.318c.634.524,1.265,1.071,1.877,1.626Zm-70.095-1.883-.26-.32c.638-.519,1.3-1.032,1.959-1.522l.246.331C150.025,149.527,149.371,150.035,148.738,150.551Zm3.955-2.931-.23-.342c.683-.459,1.385-.909,2.088-1.337l.214.352C154.067,146.718,153.37,147.164,152.693,147.62Zm4.2-2.557-.2-.362c.722-.4,1.462-.778,2.2-1.14l.181.37C158.347,144.29,157.612,144.671,156.9,145.063Zm49.761-.955c-.734-.366-1.485-.719-2.234-1.05l.167-.377c.754.333,1.512.689,2.251,1.058Zm-45.345-1.2-.164-.378c.755-.327,1.526-.641,2.294-.932l.146.386c-.762.289-1.528.6-2.277.925Zm40.831-.791c-.763-.3-1.545-.579-2.323-.839l.131-.391c.784.263,1.571.548,2.34.846Zm-36.231-.956-.128-.392c.784-.257,1.583-.5,2.376-.719l.11.4C167.482,140.661,166.689,140.9,165.911,141.156Zm31.556-.613c-.786-.224-1.588-.433-2.384-.62l.095-.4c.8.189,1.61.4,2.4.625Zm-26.809-.7-.092-.4c.8-.184,1.622-.351,2.432-.5l.073.406C172.267,139.491,171.455,139.657,170.658,139.839Zm22.015-.426c-.8-.151-1.621-.285-2.431-.4l.057-.408c.816.115,1.641.25,2.45.4Zm-17.168-.449-.055-.409c.816-.109,1.646-.2,2.467-.272l.036.411C177.139,138.766,176.315,138.856,175.5,138.964Zm12.291-.237c-.812-.077-1.639-.135-2.457-.175l.02-.412c.824.04,1.657.1,2.476.176Zm-7.384-.192-.017-.412c.758-.032,1.53-.048,2.3-.048h.187v.412h-.185C181.93,138.489,181.164,138.5,180.412,138.536Z" transform="translate(11106.53 1179.924)" fill="#3f3d56"/>
    <path id="Path_50401" data-name="Path 50401" d="M293.989,265.727h-8.865v-8.865h-3.3v8.865h-8.865v3.3h8.865v8.865h3.3v-8.865h8.865Z" transform="translate(11004.313 1104.093)" fill="#fff"/>
    <rect id="Rectangle_956" data-name="Rectangle 956" width="22.709" height="26.457" transform="translate(11235.763 1399.678)" fill="#f2f2f2"/>
    <path id="Path_50402" data-name="Path 50402" d="M164.505,540.341H132.757V508.592h31.749ZM133.2,539.9h30.867V509.033H133.2Z" transform="translate(11102.785 886.014)" fill="#3f3d56"/>
    <rect id="Rectangle_957" data-name="Rectangle 957" width="19.402" height="0.441" transform="translate(11242.157 1403.867)" fill="#3f3d56"/>
    <rect id="Rectangle_958" data-name="Rectangle 958" width="19.402" height="0.441" transform="translate(11242.157 1408.717)" fill="#3f3d56"/>
    <rect id="Rectangle_959" data-name="Rectangle 959" width="19.402" height="0.441" transform="translate(11242.157 1413.568)" fill="#3f3d56"/>
    <rect id="Rectangle_960" data-name="Rectangle 960" width="45.768" height="22.712" transform="translate(11267.344 1312.708)" fill="#f2f2f2"/>
    <path id="Path_50403" data-name="Path 50403" d="M341.26,116.126H286.009V88.5H341.26Zm-54.839-.412h54.427v-26.8H286.422Z" transform="translate(10981.128 1219.5)" fill="#3f3d56"/>
    <rect id="Rectangle_961" data-name="Rectangle 961" width="29.674" height="0.412" transform="translate(11275.39 1319.528)" fill="#3f3d56"/>
    <rect id="Rectangle_962" data-name="Rectangle 962" width="29.674" height="0.412" transform="translate(11275.39 1323.857)" fill="#3f3d56"/>
    <rect id="Rectangle_963" data-name="Rectangle 963" width="29.674" height="0.412" transform="translate(11275.39 1328.187)" fill="#3f3d56"/>
    <rect id="Rectangle_964" data-name="Rectangle 964" width="19.585" height="20.822" transform="translate(11330.258 1370.026)" fill="#f2f2f2"/>
    <path id="Path_50404" data-name="Path 50404" d="M615.918,396.1H591.179V371.362h24.739Zm-24.327-.412h23.915V371.774H591.591Z" transform="translate(10738.873 994.953)" fill="#3f3d56"/>
    <rect id="Rectangle_965" data-name="Rectangle 965" width="13.607" height="0.412" transform="translate(11333.246 1377.551)" fill="#3f3d56"/>
    <rect id="Rectangle_966" data-name="Rectangle 966" width="13.607" height="0.412" transform="translate(11333.246 1380.231)" fill="#3f3d56"/>
    <rect id="Rectangle_967" data-name="Rectangle 967" width="13.607" height="0.412" transform="translate(11333.246 1382.911)" fill="#3f3d56"/>
    <rect id="Rectangle_968" data-name="Rectangle 968" width="94.328" height="0.412" transform="translate(11247.599 1335.213)" fill="#3f3d56"/>
    <rect id="Rectangle_969" data-name="Rectangle 969" width="51.746" height="0.412" transform="translate(11316.548 1390.642)" fill="#3f3d56"/>
    <rect id="Rectangle_970" data-name="Rectangle 970" width="60.834" height="0.412" transform="translate(11221 1426.102)" fill="#3f3d56"/>
  </g>
</svg>
