<svg id="ads" xmlns="http://www.w3.org/2000/svg" width="15.782" height="27.128" viewBox="0 0 15.782 27.128">
  <path id="Path_47723" data-name="Path 47723" d="M170.069,94.619a.55.55,0,0,0,.015.559l5.421,8.643v2.756a.551.551,0,0,0,.285.482l3.67,2.02a.551.551,0,0,0,.816-.482v-4.775l5.421-8.643a.551.551,0,0,0-.466-.843h-2.918a2.262,2.262,0,0,0-4.431,0h-7.332a.55.55,0,0,0-.482.284Zm10.03-.989a1.162,1.162,0,0,1,1.067.7h-2.134A1.162,1.162,0,0,1,180.1,93.63Zm4.138,1.806-4.977,7.934a.551.551,0,0,0-.084.293v4l-2.569-1.414v-2.589a.55.55,0,0,0-.084-.293l-4.976-7.934Z" transform="translate(-170 -87.436)" fill="#fff"/>
  <path id="Path_47725" data-name="Path 47725" d="M195.519,48.6a2.693,2.693,0,1,0-2.693,2.693A2.693,2.693,0,0,0,195.519,48.6Zm-4.075,0a1.382,1.382,0,1,1,1.382,1.382,1.382,1.382,0,0,1-1.382-1.382Z" transform="translate(-187.934 -45.906)" fill="#fff" opacity="0.391"/>
  <path id="Path_47726" data-name="Path 47726" d="M193.547,47.613a1.707,1.707,0,1,0-1.707,1.707A1.707,1.707,0,0,0,193.547,47.613Zm-2.583,0a.876.876,0,1,1,.876.876.876.876,0,0,1-.876-.876Z" transform="translate(-182.835 -22.192)" fill="#fff" opacity="0.25"/>
  <path id="Path_47727" data-name="Path 47727" d="M194.07,47.875a1.969,1.969,0,1,0-1.969,1.968A1.969,1.969,0,0,0,194.07,47.875Zm-2.979,0a1.01,1.01,0,1,1,1.01,1.01,1.01,1.01,0,0,1-1.01-1.01Z" transform="translate(-186.71 -24.728)" fill="#fff" opacity="0.25"/>
</svg>
