<svg xmlns="http://www.w3.org/2000/svg" width="33.474" height="38.488" viewBox="0 0 33.474 38.488">
  <g id="ux-design_1_" data-name="ux-design (1)" transform="translate(-48.886 -16.224)">
    <g id="Group_49101" data-name="Group 49101" transform="translate(49.418 41.897)">
      <path id="Path_54341" data-name="Path 54341" d="M83.195,158.632,72.06,152.2l-5.071,2.928,16.206,9.356L99.4,155.131,94.33,152.2Z" transform="translate(-66.989 -152.203)" fill="#2bfed2"/>
    </g>
    <g id="Group_49102" data-name="Group 49102" transform="translate(65.624 16.756)">
      <path id="Path_54342" data-name="Path 54342" d="M128,57.551v5.855l11.135,6.429V82.693l5.071,2.928V66.907Z" transform="translate(-128 -57.551)" fill="#fcc24c"/>
    </g>
    <g id="Group_49103" data-name="Group 49103" transform="translate(49.418 16.756)">
      <path id="Path_54343" data-name="Path 54343" d="M72.06,69.835l11.135-6.429V57.551L66.989,66.907V85.62l5.071-2.928Z" transform="translate(-66.989 -57.551)" fill="#ea3487"/>
    </g>
    <g id="Group_49110" data-name="Group 49110" transform="translate(48.886 41.366)">
      <path id="Path_54350" data-name="Path 54350" d="M81.726,163.549a.531.531,0,0,1-.266-.071l-16.206-9.357a.531.531,0,0,1,0-.92l5.071-2.928a.532.532,0,0,1,.531,0l10.869,6.275L92.6,150.273a.532.532,0,0,1,.531,0L98.2,153.2a.531.531,0,0,1,0,.92l-16.206,9.357A.531.531,0,0,1,81.726,163.549Zm-15.143-9.888L81.726,162.4l15.143-8.743-4.009-2.314-10.869,6.275a.532.532,0,0,1-.531,0l-10.869-6.275Z" transform="translate(-64.989 -150.202)"/>
    </g>
    <g id="Group_49111" data-name="Group 49111" transform="translate(65.092 16.224)">
      <path id="Path_54351" data-name="Path 54351" d="M142.737,84.683a.53.53,0,0,1-.266-.071L137.4,81.684a.531.531,0,0,1-.266-.46V68.674L126.266,62.4a.531.531,0,0,1-.266-.46V56.082a.531.531,0,0,1,.8-.46L143,64.979a.531.531,0,0,1,.266.46V84.152a.531.531,0,0,1-.531.531Zm-4.54-3.766,4.009,2.314V65.746L127.062,57v4.628l10.869,6.275a.531.531,0,0,1,.266.46Z" transform="translate(-126 -55.551)"/>
    </g>
    <g id="Group_49112" data-name="Group 49112" transform="translate(48.886 16.224)">
      <path id="Path_54352" data-name="Path 54352" d="M65.52,84.683a.531.531,0,0,1-.531-.531V65.439a.531.531,0,0,1,.266-.46l16.206-9.356a.531.531,0,0,1,.8.46v5.855a.531.531,0,0,1-.266.46L71.123,68.673V81.224a.531.531,0,0,1-.266.46l-5.071,2.928A.53.53,0,0,1,65.52,84.683Zm.531-18.938V83.232l4.009-2.314V68.367a.531.531,0,0,1,.266-.46l10.869-6.276V57Zm4.54,15.479h0Z" transform="translate(-64.989 -55.551)"/>
    </g>
    <g id="Group_49113" data-name="Group 49113" transform="translate(56.979 30.864)">
      <path id="Path_54353" data-name="Path 54353" d="M99.256,119.875a3.8,3.8,0,0,1-3.8-3.8V111.39a.713.713,0,0,1,.724-.724.733.733,0,0,1,.737.724v4.683a2.342,2.342,0,1,0,4.683,0V111.39a.724.724,0,0,1,.737-.724.713.713,0,0,1,.724.724v4.683A3.8,3.8,0,0,1,99.256,119.875Z" transform="translate(-95.454 -110.666)" fill="#fff"/>
    </g>
    <g id="Group_49114" data-name="Group 49114" transform="translate(67.226 30.963)">
      <path id="Path_54354" data-name="Path 54354" d="M140.94,112.189l-2.5,3.394,2.5,3.42a.715.715,0,0,1-.158,1,.739.739,0,0,1-.421.145.754.754,0,0,1-.592-.3l-2.21-3.039-2.223,3.039a.749.749,0,0,1-.579.3.68.68,0,0,1-.421-.145.717.717,0,0,1-.171-1l2.5-3.42-2.5-3.394a.715.715,0,0,1,.171-1,.682.682,0,0,1,1,.158l2.223,3.026,2.21-3.026a.7.7,0,0,1,1.013-.158.713.713,0,0,1,.158,1Z" transform="translate(-134.034 -111.038)" fill="#fff"/>
    </g>
  </g>
</svg>
