<svg xmlns="http://www.w3.org/2000/svg" width="111.5" height="140.905" viewBox="0 0 111.5 140.905">
  <g id="Group_47783" data-name="Group 47783" transform="translate(-630 -523.095)">
    <g id="Group_46698" data-name="Group 46698" transform="translate(633.557 532.498)">
      <path id="Path_53444" data-name="Path 53444" d="M-10855.656-928.751v-89.437l6.688,3.613,6.453-3.613,7.855,4.136,9.037-4.136,7.938,4.136,6.988-4.136,6.178,4.136,7.125-4.136v88.481s1.727,18.513-22.436,18.358c-.049.01-48.266,0-48.266,0s-10.078-3.041-9.621-17.4C-10877.648-928.544-10855.656-928.751-10855.656-928.751Z" transform="translate(10877.731 1018.188)" fill="#fff" stroke="#116ce1" stroke-linejoin="round" stroke-width="2"/>
      <path id="Path_53443" data-name="Path 53443" d="M-10784.312-605.971h28.728s.887,17.164,13.159,17.407" transform="translate(10802.39 695.407)" fill="#fff" stroke="#116ce1" stroke-linecap="round" stroke-linejoin="round" stroke-width="2"/>
    </g>
    <g id="Group_46697" data-name="Group 46697" transform="translate(631.744 523.095)">
      <path id="Path_53445" data-name="Path 53445" d="M548.569,538.538a1.122,1.122,0,0,1,.7.772,7.007,7.007,0,0,0,4.134,4.325c1.058.4,1.689,1.112.081,1.77a7.574,7.574,0,0,0-4.1,4.162c-.485,1.082-1.09,1.325-1.567.015a7.751,7.751,0,0,0-4.354-4.355c-.872-.413-.977-1.061-.028-1.373,2.39-.787,3.643-2.6,4.658-4.7A3.487,3.487,0,0,1,548.569,538.538Z" transform="translate(-542.766 -536.189)" fill="#fd9f27"/>
      <path id="Path_53446" data-name="Path 53446" d="M545.071,538.538a.446.446,0,0,1,.28.307,2.784,2.784,0,0,0,1.642,1.718c.421.157.671.442.032.7a3.009,3.009,0,0,0-1.63,1.653c-.193.43-.433.526-.622.006a3.079,3.079,0,0,0-1.73-1.73c-.346-.164-.388-.422-.011-.546a3.192,3.192,0,0,0,1.85-1.869A1.39,1.39,0,0,1,545.071,538.538Z" transform="translate(-530.51 -538.538)" fill="#fd9f27"/>
      <path id="Path_53447" data-name="Path 53447" d="M545.071,538.538a.446.446,0,0,1,.28.307,2.784,2.784,0,0,0,1.642,1.718c.421.157.671.442.032.7a3.009,3.009,0,0,0-1.63,1.653c-.193.43-.433.526-.622.006a3.079,3.079,0,0,0-1.73-1.73c-.346-.164-.388-.422-.011-.546a3.192,3.192,0,0,0,1.85-1.869A1.39,1.39,0,0,1,545.071,538.538Z" transform="translate(-531.377 -524.657)" fill="#fd9f27"/>
    </g>
    <g id="Group_46693" data-name="Group 46693" transform="translate(728.619 616.451)">
      <path id="Path_53449" data-name="Path 53449" d="M4.384,0a.848.848,0,0,1,.532.583A5.293,5.293,0,0,0,8.038,3.85c.8.3,1.276.84.061,1.337A5.721,5.721,0,0,0,5,8.331c-.366.817-.823,1-1.183.011A5.855,5.855,0,0,0,.527,5.053c-.658-.312-.738-.8-.021-1.037A6.07,6.07,0,0,0,4.024.461,2.639,2.639,0,0,1,4.384,0Z" transform="translate(12.881 11.527) rotate(180)" fill="#fd9f27"/>
      <path id="Path_53451" data-name="Path 53451" d="M1.741,0a.337.337,0,0,1,.211.232,2.1,2.1,0,0,0,1.241,1.3c.318.119.507.334.024.531A2.273,2.273,0,0,0,1.986,3.31c-.145.325-.327.4-.47,0A2.326,2.326,0,0,0,.209,2.007C-.052,1.883-.084,1.689.2,1.6A2.411,2.411,0,0,0,1.6.183,1.05,1.05,0,0,1,1.741,0Z" transform="translate(3.621 14.068) rotate(180)" fill="#fd9f27"/>
      <path id="Path_53450" data-name="Path 53450" d="M1.741,0a.337.337,0,0,1,.211.232,2.1,2.1,0,0,0,1.241,1.3c.318.119.507.334.024.531A2.273,2.273,0,0,0,1.986,3.31c-.145.325-.327.4-.47,0A2.326,2.326,0,0,0,.209,2.007C-.052,1.883-.084,1.689.2,1.6A2.411,2.411,0,0,0,1.6.183,1.05,1.05,0,0,1,1.741,0Z" transform="translate(3.511 3.582) rotate(180)" fill="#fd9f27"/>
    </g>
    <g id="Group_46699" data-name="Group 46699" transform="translate(665.63 549.457)" opacity="0.3">
      <g id="Group_46691" data-name="Group 46691" transform="translate(0 22.221)">
        <line id="Line_776" data-name="Line 776" x2="4.597" fill="none" stroke="#116ce1" stroke-linecap="round" stroke-width="2"/>
        <line id="Line_785" data-name="Line 785" x2="4.597" transform="translate(0 39.078)" fill="none" stroke="#116ce1" stroke-linecap="round" stroke-width="2"/>
        <line id="Line_778" data-name="Line 778" x2="4.597" transform="translate(0 9.961)" fill="none" stroke="#116ce1" stroke-linecap="round" stroke-width="2"/>
        <line id="Line_780" data-name="Line 780" x2="4.597" transform="translate(0 19.922)" fill="none" stroke="#116ce1" stroke-linecap="round" stroke-width="2"/>
        <line id="Line_782" data-name="Line 782" x2="4.597" transform="translate(0 29.883)" fill="none" stroke="#116ce1" stroke-linecap="round" stroke-width="2"/>
        <line id="Line_777" data-name="Line 777" x2="24.519" transform="translate(9.961)" fill="none" stroke="#116ce1" stroke-linecap="round" stroke-width="2"/>
        <line id="Line_784" data-name="Line 784" x2="24.519" transform="translate(9.961 39.078)" fill="none" stroke="#116ce1" stroke-linecap="round" stroke-width="2"/>
        <path id="Path_53452" data-name="Path 53452" d="M0,0H16.857" transform="translate(9.961 9.961)" fill="none" stroke="#116ce1" stroke-linecap="round" stroke-width="2"/>
        <line id="Line_781" data-name="Line 781" x2="12.26" transform="translate(9.961 19.922)" fill="none" stroke="#116ce1" stroke-linecap="round" stroke-width="2"/>
        <line id="Line_783" data-name="Line 783" x2="16.857" transform="translate(9.961 29.883)" fill="none" stroke="#116ce1" stroke-linecap="round" stroke-width="2"/>
      </g>
      <g id="Group_46692" data-name="Group 46692" transform="translate(3.885)">
        <line id="Line_775" data-name="Line 775" x2="24.052" fill="none" stroke="#116ce1" stroke-linecap="round" stroke-width="2"/>
        <path id="Path_53448" data-name="Path 53448" d="M0,0H12.559" transform="translate(6.13 6.896)" fill="none" stroke="#116ce1" stroke-linecap="round" stroke-width="2"/>
      </g>
    </g>
    <ellipse id="Ellipse_2700" data-name="Ellipse 2700" cx="44.5" cy="5.5" rx="44.5" ry="5.5" transform="translate(630 653)" fill="#116ce1" opacity="0.08"/>
    <path id="Path_53453" data-name="Path 53453" d="M-9519.438,880.113s3.939,12.846,18.45,7.175,12.258-17.669,12.258-17.669-11.895,26.269-31.814,9.063A10.134,10.134,0,0,1-9519.438,880.113Z" transform="translate(10202.62 -249.578)" fill="#116ce1" opacity="0.13"/>
  </g>
</svg>
