<svg xmlns="http://www.w3.org/2000/svg" xmlns:xlink="http://www.w3.org/1999/xlink" width="181.929" height="195.411" viewBox="0 0 181.929 195.411">
  <defs>
    <linearGradient id="linear-gradient" x1="0.5" x2="0.5" y2="0.802" gradientUnits="objectBoundingBox">
      <stop offset="0" stop-color="#f0f0f0"/>
      <stop offset="1" stop-color="#fff"/>
    </linearGradient>
    <linearGradient id="linear-gradient-2" x1="0.5" x2="1" y2="0.774" gradientUnits="objectBoundingBox">
      <stop offset="0" stop-color="#fff" stop-opacity="0.788"/>
      <stop offset="1" stop-color="#fff"/>
    </linearGradient>
  </defs>
  <g id="Group_45918" data-name="Group 45918" transform="translate(-264 -1427.443)">
    <g id="Group_45900" data-name="Group 45900" transform="translate(-12 -2.556)">
      <circle id="Ellipse_2190" data-name="Ellipse 2190" cx="89.309" cy="89.309" r="89.309" transform="translate(276 1446.792)" opacity="0.508" fill="url(#linear-gradient)"/>
      <path id="Path_51076" data-name="Path 51076" d="M2.462-8.7v3.814H6.7v1.108H2.462V.117H7.179V1.288H1.022V-9.87H7.179V-8.7ZM20.188-7.543a3.218,3.218,0,0,1,2.445.973,3.922,3.922,0,0,1,.926,2.809V1.288h-1.44V-3.634A2.8,2.8,0,0,0,21.494-5.6a2.216,2.216,0,0,0-1.717-.681,2.36,2.36,0,0,0-1.828.752,3.164,3.164,0,0,0-.688,2.208V1.288H15.82V-3.634A2.778,2.778,0,0,0,15.187-5.6a2.221,2.221,0,0,0-1.709-.681,2.379,2.379,0,0,0-1.844.752,3.164,3.164,0,0,0-.688,2.208V1.288H9.505V-7.4h1.44v1.978A2.823,2.823,0,0,1,12.077-7a3.291,3.291,0,0,1,1.875-.546,3.3,3.3,0,0,1,1.923.562,3.057,3.057,0,0,1,1.163,1.654,3.141,3.141,0,0,1,1.219-1.638A3.369,3.369,0,0,1,20.188-7.543Zm10.873.032a3.938,3.938,0,0,1,2.057.538,3.712,3.712,0,0,1,1.417,1.551,5.179,5.179,0,0,1,.514,2.374,5.13,5.13,0,0,1-.514,2.366A3.722,3.722,0,0,1,33.119.861a3.938,3.938,0,0,1-2.057.538A3.539,3.539,0,0,1,28.917.758,3.257,3.257,0,0,1,27.706-.928V5.4h-1.44V-7.4h1.44v2.216a3.257,3.257,0,0,1,1.211-1.686A3.539,3.539,0,0,1,31.061-7.512ZM30.65-6.23a3.014,3.014,0,0,0-1.519.388,2.675,2.675,0,0,0-1.06,1.116,3.575,3.575,0,0,0-.38,1.678,3.527,3.527,0,0,0,.38,1.67,2.738,2.738,0,0,0,1.06,1.116,2.967,2.967,0,0,0,1.519.4,2.809,2.809,0,0,0,2.145-.847,3.265,3.265,0,0,0,.8-2.334,3.265,3.265,0,0,0-.8-2.334A2.809,2.809,0,0,0,30.65-6.23ZM41.555.022V1.288H40.478A2.763,2.763,0,0,1,38.492.655a2.859,2.859,0,0,1-.657-2.121V-6.151h-1.3V-7.4h1.3V-9.569h1.456V-7.4h2.247v1.25H39.291v4.716A1.625,1.625,0,0,0,39.6-.287a1.486,1.486,0,0,0,1.068.309ZM44.388-7.4,47.2-.564,49.816-7.4h1.6L46.255,5.4h-1.63l1.8-4.257L42.773-7.4Z" transform="translate(406.514 1525.769)" fill="#797979"/>
      <g id="Group_45530" data-name="Group 45530" transform="translate(382.874 1494.341)">
        <path id="Path_49348" data-name="Path 49348" d="M0,8.422V0" transform="matrix(0.07, 0.998, -0.998, 0.07, 19.191, 16.015)" fill="none" stroke="#707070" stroke-linecap="round" stroke-width="2"/>
        <path id="Path_49349" data-name="Path 49349" d="M6.3,6.3,0,0" transform="matrix(0.07, 0.998, -0.998, 0.07, 12.644, 3.649)" fill="none" stroke="#707070" stroke-linecap="round" stroke-width="2"/>
        <path id="Path_49350" data-name="Path 49350" d="M8.2,0H0" transform="matrix(0.07, 0.998, -0.998, 0.07, 0, 0)" fill="none" stroke="#707070" stroke-linecap="round" stroke-width="2"/>
      </g>
      <ellipse id="Ellipse_2191" data-name="Ellipse 2191" cx="31.654" cy="3.957" rx="31.654" ry="3.957" transform="translate(325.742 1602.8)" fill="#989898" opacity="0.263"/>
      <ellipse id="Ellipse_2192" data-name="Ellipse 2192" cx="31.009" cy="31.009" rx="31.009" ry="31.009" transform="translate(391.622 1429.999)" fill="#fff"/>
      <g id="Group_43896" data-name="Group 43896" transform="translate(400.593 1435.226)">
        <g id="Ellipse_2086" data-name="Ellipse 2086" transform="translate(0 0)" fill="#fff" stroke="#707070" stroke-width="2">
          <ellipse cx="23.91" cy="23.91" rx="23.91" ry="23.91" stroke="none"/>
          <ellipse cx="23.91" cy="23.91" rx="22.91" ry="22.91" fill="none"/>
        </g>
        <g id="Group_43332" data-name="Group 43332" transform="translate(28.084 11.096)">
          <ellipse id="Ellipse_2095" data-name="Ellipse 2095" cx="3.036" cy="4.175" rx="3.036" ry="4.175" transform="translate(0 4.845)" fill="#469be4"/>
          <ellipse id="Ellipse_2096" data-name="Ellipse 2096" cx="0.759" cy="1.139" rx="0.759" ry="1.139" transform="translate(3.795 6.363)" fill="#fff"/>
          <path id="Path_49345" data-name="Path 49345" d="M0,.038a6.606,6.606,0,0,1,5.219,1.68" transform="translate(8.009 1.718) rotate(180)" fill="none" stroke="#469be4" stroke-linecap="round" stroke-width="1.5"/>
          <ellipse id="Ellipse_2100" data-name="Ellipse 2100" cx="0.759" cy="1.139" rx="0.759" ry="1.139" transform="translate(3.795 6.363)" fill="#fff"/>
        </g>
        <ellipse id="Ellipse_2099" data-name="Ellipse 2099" cx="3.036" cy="4.175" rx="3.036" ry="4.175" transform="translate(12.145 15.94)" fill="#469be4"/>
        <path id="Path_49346" data-name="Path 49346" d="M5.22.038A6.608,6.608,0,0,0,0,1.718" transform="translate(15.795 12.811) rotate(180)" fill="none" stroke="#469be4" stroke-linecap="round" stroke-width="1.5"/>
        <ellipse id="Ellipse_2097" data-name="Ellipse 2097" cx="2.413" cy="3.218" rx="2.413" ry="3.218" transform="matrix(0.017, -1, 1, 0.017, 32.384, 30.632)" fill="#469be4" opacity="0.126"/>
        <ellipse id="Ellipse_2101" data-name="Ellipse 2101" cx="0.759" cy="1.139" rx="0.759" ry="1.139" transform="translate(15.181 17.458)" fill="#fff"/>
        <path id="Path_49347" data-name="Path 49347" d="M0,0S6.324,6.872,13.579,0" transform="translate(31.128 37.083) rotate(180)" fill="none" stroke="#469be4" stroke-linecap="round" stroke-width="1.5"/>
        <ellipse id="Ellipse_2102" data-name="Ellipse 2102" cx="2.413" cy="3.218" rx="2.413" ry="3.218" transform="matrix(0.017, -1, 1, 0.017, 8.095, 30.632)" fill="#469be4" opacity="0.126"/>
      </g>
      <g id="folder" transform="translate(321.271 1511.193)">
        <path id="Path_52028" data-name="Path 52028" d="M148.517,8H108.132a2.692,2.692,0,0,0-2.692,2.692V44.347h45.77V10.692A2.692,2.692,0,0,0,148.517,8Z" transform="translate(-87.94 -6.654)" fill="#fff"/>
        <g id="Group_45896" data-name="Group 45896" transform="translate(63.27 6.731)">
          <path id="Path_52029" data-name="Path 52029" d="M380.132,45.385H377.44V40h2.692a2.692,2.692,0,0,1,2.692,2.692h0A2.692,2.692,0,0,1,380.132,45.385Z" transform="translate(-377.44 -40)" fill="#f5b945"/>
          <path id="Path_52030" data-name="Path 52030" d="M380.132,109.385H377.44V104h2.692a2.692,2.692,0,0,1,2.692,2.692h0A2.692,2.692,0,0,1,380.132,109.385Z" transform="translate(-377.44 -93.231)" fill="#f5b945"/>
        </g>
        <g id="Group_45897" data-name="Group 45897" transform="translate(16.154)">
          <path id="Path_52031" data-name="Path 52031" d="M147.248,16.154H145.9V13.462h1.346a4.039,4.039,0,0,0,0-8.077H145.9V4.039A4.043,4.043,0,0,0,141.864,0H101.479A4.043,4.043,0,0,0,97.44,4.039V37.693a1.346,1.346,0,0,0,1.346,1.346h45.77a1.346,1.346,0,0,0,1.346-1.346V24.231h1.346a4.039,4.039,0,0,0,0-8.077Zm0-8.077a1.346,1.346,0,0,1,0,2.692H145.9V8.077Zm-4.039,28.27H100.132V4.039a1.348,1.348,0,0,1,1.346-1.346h40.385a1.348,1.348,0,0,1,1.346,1.346V36.347Zm4.039-14.808H145.9V18.846h1.346a1.346,1.346,0,0,1,0,2.692Z" transform="translate(-97.44)" fill="#4d4d4d"/>
        </g>
        <path id="Path_52034" data-name="Path 52034" d="M74.056,177.423h-35v-6.731A2.692,2.692,0,0,0,36.363,168H12.132a2.692,2.692,0,0,0-2.692,2.692v45.77a2.692,2.692,0,0,0,2.692,2.692H76.748V180.116A2.692,2.692,0,0,0,74.056,177.423Z" transform="translate(-8.094 -139.73)" fill="#6fa0e3"/>
        <path id="Path_52035" data-name="Path 52035" d="M412.544,312.308h-3.1V280h7.591a2.693,2.693,0,0,1,2.656,3.135L415.2,310.059A2.694,2.694,0,0,1,412.544,312.308Z" transform="translate(-340.785 -232.884)" fill="#5378aa"/>
        <path id="Path_52036" data-name="Path 52036" d="M80.768,180.275a4.038,4.038,0,0,0-3.083-1.428H71.441v-5.385a4.043,4.043,0,0,0-4.039-4.039H33.748v-5.385A4.043,4.043,0,0,0,29.71,160H5.479a4.043,4.043,0,0,0-4.039,4.039v45.77a4.043,4.043,0,0,0,4.039,4.039H73.2a4.024,4.024,0,0,0,3.983-3.375l4.488-26.924A4.033,4.033,0,0,0,80.768,180.275ZM4.132,209.809V172.116H17.594a1.346,1.346,0,0,0,0-2.692H4.132v-5.385a1.348,1.348,0,0,1,1.346-1.346H29.71a1.347,1.347,0,0,1,1.346,1.346v6.731a1.346,1.346,0,0,0,1.346,1.346h35a1.348,1.348,0,0,1,1.346,1.346v37.693H5.479A1.348,1.348,0,0,1,4.132,209.809Zm70.394.222a1.34,1.34,0,0,1-1.327,1.124H71.441V181.539h6.245a1.348,1.348,0,0,1,1.33,1.567Z" transform="translate(-1.44 -133.076)" fill="#4d4d4d"/>
      </g>
      <g id="Group_45898" data-name="Group 45898" transform="translate(346.877 1557.552)">
        <path id="Path_47829" data-name="Path 47829" d="M612.139,2377.6v-9.632s-8.74-.084-9.169,9.632C602.973,2377.666,612.139,2377.6,612.139,2377.6Z" transform="translate(-602.97 -2367.965)" fill="url(#linear-gradient-2)"/>
        <path id="Subtraction_21" data-name="Subtraction 21" d="M9.363,18.728A9.365,9.365,0,0,1,0,9.554c.114.017.95.026,2.417.026,2.793,0,6.919-.031,6.946-.031V0a9.366,9.366,0,0,1,3.645,17.993A9.3,9.3,0,0,1,9.363,18.728Z" transform="translate(3.188 3.497)" fill="url(#linear-gradient-2)"/>
      </g>
      <path id="Path_52037" data-name="Path 52037" d="M7.873,3.835A1.836,1.836,0,0,1,6.4,3.222a2.1,2.1,0,0,1-.528-1.416A2.132,2.132,0,0,1,6.393.369a1.844,1.844,0,0,1,1.479-.6,1.9,1.9,0,0,1,1.5.6A2.1,2.1,0,0,1,9.9,1.806a2.074,2.074,0,0,1-.539,1.421A1.888,1.888,0,0,1,7.873,3.835ZM3.413-8.021q-1.479-.317-1.479-2.251a3.348,3.348,0,0,1,2.06-2.6,10.215,10.215,0,0,1,4.438-.866,8.533,8.533,0,0,1,3.989.977A3.134,3.134,0,0,1,14.1-10.018,3.8,3.8,0,0,1,12.49-6.7,9.779,9.779,0,0,1,9.3-5.168Q8.95-5.084,8.866-4l-.222,2.42h-1.6l-.306-2.98a2.774,2.774,0,0,1,.085-.909,4.05,4.05,0,0,1,1.395-.608,7.647,7.647,0,0,0,2.208-1.12,2.98,2.98,0,0,0,1.12-2.045q0-2.673-3.159-2.9-3.476,0-3.593,1.733a.825.825,0,0,0,.28.629.978.978,0,0,1,.28.756Q5.294-8.021,3.413-8.021Z" transform="translate(355.156 1535.733)" fill="#4d4d4d"/>
    </g>
  </g>
</svg>
