<svg xmlns="http://www.w3.org/2000/svg" width="145.518" height="183.905" viewBox="0 0 145.518 183.905">
  <g id="Group_46701" data-name="Group 46701" transform="translate(-616 -393.095)">
    <g id="Group_46698" data-name="Group 46698" transform="translate(620.642 405.366)">
      <path id="Path_53444" data-name="Path 53444" d="M-10848.921-901.464v-116.724l8.728,4.715,8.421-4.715,10.254,5.4,11.793-5.4,10.359,5.4,9.12-5.4,8.063,5.4,9.3-5.4v115.475s2.254,24.161-29.282,23.958c-.062.013-62.99,0-62.99,0s-13.153-3.969-12.556-22.71C-10877.622-901.194-10848.921-901.464-10848.921-901.464Z" transform="translate(10877.731 1018.188)" fill="#fff" stroke="#116ce1" stroke-linejoin="round" stroke-width="2"/>
      <path id="Path_53443" data-name="Path 53443" d="M-10784.312-605.971h37.492s1.157,22.4,17.175,22.717" transform="translate(10807.905 722.693)" fill="#fff" stroke="#116ce1" stroke-linecap="round" stroke-linejoin="round" stroke-width="2"/>
    </g>
    <g id="Group_46697" data-name="Group 46697" transform="translate(3 71)">
      <path id="Path_53445" data-name="Path 53445" d="M550.339,538.538a1.464,1.464,0,0,1,.918,1.007,9.145,9.145,0,0,0,5.4,5.644c1.381.516,2.2,1.452.105,2.31a9.884,9.884,0,0,0-5.354,5.431c-.633,1.412-1.422,1.729-2.045.019a10.116,10.116,0,0,0-5.683-5.684c-1.137-.538-1.275-1.385-.037-1.792,3.119-1.027,4.754-3.4,6.079-6.139A4.556,4.556,0,0,1,550.339,538.538Z" transform="translate(72.511 -213.377)" fill="#fd9f27"/>
      <path id="Path_53446" data-name="Path 53446" d="M545.775,538.538a.582.582,0,0,1,.365.4,3.633,3.633,0,0,0,2.143,2.242c.549.205.876.577.042.918a3.927,3.927,0,0,0-2.127,2.158c-.251.561-.565.687-.812.008a4.019,4.019,0,0,0-2.258-2.258c-.452-.214-.507-.55-.015-.712a4.165,4.165,0,0,0,2.415-2.439A1.815,1.815,0,0,1,545.775,538.538Z" transform="translate(88.506 -216.443)" fill="#fd9f27"/>
      <path id="Path_53447" data-name="Path 53447" d="M545.775,538.538a.582.582,0,0,1,.365.4,3.633,3.633,0,0,0,2.143,2.242c.549.205.876.577.042.918a3.927,3.927,0,0,0-2.127,2.158c-.251.561-.565.687-.812.008a4.019,4.019,0,0,0-2.258-2.258c-.452-.214-.507-.55-.015-.712a4.165,4.165,0,0,0,2.415-2.439A1.815,1.815,0,0,1,545.775,538.538Z" transform="translate(87.374 -198.327)" fill="#fd9f27"/>
    </g>
    <g id="Group_46693" data-name="Group 46693" transform="translate(5 107)">
      <path id="Path_53449" data-name="Path 53449" d="M5.721,0a1.106,1.106,0,0,1,.694.761A6.908,6.908,0,0,0,10.49,5.025c1.043.39,1.665,1.1.079,1.745a7.467,7.467,0,0,0-4.044,4.1c-.478,1.067-1.074,1.306-1.545.015A7.641,7.641,0,0,0,.688,6.594C-.171,6.187-.275,5.548.66,5.24,3.016,4.465,4.251,2.675,5.252.6A3.444,3.444,0,0,1,5.721,0Z" transform="translate(756.518 422.977) rotate(180)" fill="#fd9f27"/>
      <path id="Path_53451" data-name="Path 53451" d="M2.273,0a.44.44,0,0,1,.276.3A2.745,2.745,0,0,0,4.168,2c.415.155.662.436.032.693A2.967,2.967,0,0,0,2.592,4.32c-.19.424-.427.519-.614.006A3.036,3.036,0,0,0,.273,2.62C-.068,2.458-.109,2.2.262,2.082A3.147,3.147,0,0,0,2.086.239,1.37,1.37,0,0,1,2.273,0Z" transform="translate(744.434 426.294) rotate(180)" fill="#fd9f27"/>
      <path id="Path_53450" data-name="Path 53450" d="M2.273,0a.44.44,0,0,1,.276.3A2.745,2.745,0,0,0,4.168,2c.415.155.662.436.032.693A2.967,2.967,0,0,0,2.592,4.32c-.19.424-.427.519-.614.006A3.036,3.036,0,0,0,.273,2.62C-.068,2.458-.109,2.2.262,2.082A3.147,3.147,0,0,0,2.086.239,1.37,1.37,0,0,1,2.273,0Z" transform="translate(744.289 412.608) rotate(180)" fill="#fd9f27"/>
    </g>
    <g id="Group_46699" data-name="Group 46699" transform="translate(0 78)" opacity="0.3">
      <g id="Group_46691" data-name="Group 46691" transform="translate(0 -4)">
        <line id="Line_776" data-name="Line 776" x2="6" transform="translate(662.5 382.5)" fill="none" stroke="#116ce1" stroke-linecap="round" stroke-width="2"/>
        <line id="Line_785" data-name="Line 785" x2="6" transform="translate(662.5 433.5)" fill="none" stroke="#116ce1" stroke-linecap="round" stroke-width="2"/>
        <line id="Line_778" data-name="Line 778" x2="6" transform="translate(662.5 395.5)" fill="none" stroke="#116ce1" stroke-linecap="round" stroke-width="2"/>
        <line id="Line_780" data-name="Line 780" x2="6" transform="translate(662.5 408.5)" fill="none" stroke="#116ce1" stroke-linecap="round" stroke-width="2"/>
        <line id="Line_782" data-name="Line 782" x2="6" transform="translate(662.5 421.5)" fill="none" stroke="#116ce1" stroke-linecap="round" stroke-width="2"/>
        <line id="Line_777" data-name="Line 777" x2="32" transform="translate(675.5 382.5)" fill="none" stroke="#116ce1" stroke-linecap="round" stroke-width="2"/>
        <line id="Line_784" data-name="Line 784" x2="32" transform="translate(675.5 433.5)" fill="none" stroke="#116ce1" stroke-linecap="round" stroke-width="2"/>
        <path id="Path_53452" data-name="Path 53452" d="M0,0H22" transform="translate(675.5 395.5)" fill="none" stroke="#116ce1" stroke-linecap="round" stroke-width="2"/>
        <line id="Line_781" data-name="Line 781" x2="16" transform="translate(675.5 408.5)" fill="none" stroke="#116ce1" stroke-linecap="round" stroke-width="2"/>
        <line id="Line_783" data-name="Line 783" x2="22" transform="translate(675.5 421.5)" fill="none" stroke="#116ce1" stroke-linecap="round" stroke-width="2"/>
      </g>
      <g id="Group_46692" data-name="Group 46692" transform="translate(4.07)">
        <line id="Line_775" data-name="Line 775" x2="31.391" transform="translate(663.5 349.5)" fill="none" stroke="#116ce1" stroke-linecap="round" stroke-width="2"/>
        <path id="Path_53448" data-name="Path 53448" d="M0,0H16.391" transform="translate(671.5 358.5)" fill="none" stroke="#116ce1" stroke-linecap="round" stroke-width="2"/>
      </g>
    </g>
    <ellipse id="Ellipse_2700" data-name="Ellipse 2700" cx="58" cy="7.5" rx="58" ry="7.5" transform="translate(616 562)" fill="#116ce1" opacity="0.08"/>
    <g id="Group_46696" data-name="Group 46696" transform="translate(1.026 65.087)">
      <g id="Ellipse_2086" data-name="Ellipse 2086" transform="translate(700.217 393.668)" fill="#fff" stroke="#116ce1" stroke-width="2">
        <circle cx="23.872" cy="23.872" r="23.872" stroke="none"/>
        <circle cx="23.872" cy="23.872" r="22.872" fill="none"/>
      </g>
      <g id="Group_46695" data-name="Group 46695" transform="translate(728.257 404.745)">
        <ellipse id="Ellipse_2095" data-name="Ellipse 2095" cx="3.031" cy="4.168" rx="3.031" ry="4.168" transform="translate(0 4.837)" fill="#469be4"/>
        <ellipse id="Ellipse_2096" data-name="Ellipse 2096" cx="0.758" cy="1.137" rx="0.758" ry="1.137" transform="translate(3.789 6.353)" fill="#fff"/>
        <path id="Path_49345" data-name="Path 49345" d="M0,.038A6.6,6.6,0,0,1,5.212,1.715" transform="translate(7.996 1.715) rotate(180)" fill="none" stroke="#469be4" stroke-linecap="round" stroke-width="2"/>
      </g>
      <ellipse id="Ellipse_2097" data-name="Ellipse 2097" cx="2.41" cy="3.213" rx="2.41" ry="3.213" transform="matrix(0.017, -1, 1, 0.017, 732.55, 424.255)" fill="#469be4" opacity="0.17"/>
      <g id="Group_46694" data-name="Group 46694" transform="translate(710.776 404.746)">
        <ellipse id="Ellipse_2099" data-name="Ellipse 2099" cx="3.031" cy="4.168" rx="3.031" ry="4.168" transform="translate(1.568 4.837)" fill="#469be4"/>
        <path id="Path_49346" data-name="Path 49346" d="M5.212.038A6.6,6.6,0,0,0,0,1.715" transform="translate(5.212 1.715) rotate(180)" fill="none" stroke="#469be4" stroke-linecap="round" stroke-width="2"/>
        <ellipse id="Ellipse_2101" data-name="Ellipse 2101" cx="0.758" cy="1.137" rx="0.758" ry="1.137" transform="translate(4.599 6.353)" fill="#fff"/>
      </g>
      <path id="Path_49347" data-name="Path 49347" d="M0,0S6.314,6.861,13.558,0" transform="translate(731.295 431.693) rotate(180)" fill="none" stroke="#469be4" stroke-linecap="round" stroke-width="2"/>
      <ellipse id="Ellipse_2102" data-name="Ellipse 2102" cx="2.41" cy="3.213" rx="2.41" ry="3.213" transform="matrix(0.017, -1, 1, 0.017, 708.299, 424.255)" fill="#469be4" opacity="0.17"/>
    </g>
    <path id="Path_53453" data-name="Path 53453" d="M-9519.1,883.315s5.142,16.765,24.079,9.364,16-23.06,16-23.06-15.523,34.283-41.521,11.828A13.215,13.215,0,0,1-9519.1,883.315Z" transform="translate(10204.508 -350)" fill="#116ce1" opacity="0.13"/>
  </g>
</svg>
