<?xml version="1.0" encoding="utf-8"?>
<!-- Generator: Adobe Illustrator 23.0.0, SVG Export Plug-In . SVG Version: 6.00 Build 0)  -->
<svg version="1.1" id="Layer_1" xmlns="http://www.w3.org/2000/svg" xmlns:xlink="http://www.w3.org/1999/xlink" x="0px" y="0px"
	 viewBox="0 0 43.2 37.5" style="enable-background:new 0 0 43.2 37.5;" xml:space="preserve">
<g>
	<path d="M43,18.3c-2.2-2.6-4.6-4.9-7.4-6.9c-0.3-0.2-0.8-0.2-1,0.2s-0.2,0.8,0.2,1c2.5,1.8,4.7,3.8,6.7,6.1
		c-1.9,2.2-10.2,11-19.9,11c-1.8,0-3.5-0.3-5.2-0.8c-0.4-0.1-0.8,0.1-0.9,0.5c-0.1,0.4,0.1,0.8,0.5,0.9c1.8,0.6,3.7,0.9,5.7,0.9
		c11.7,0,21.1-11.6,21.4-12.1C43.3,18.9,43.3,18.5,43,18.3z"/>
	<path d="M8,26.2c0.2,0,0.5-0.1,0.6-0.3c0.2-0.3,0.2-0.8-0.2-1c-2.4-1.8-4.7-3.8-6.7-6.1c1.9-2.2,10.1-11,19.9-11
		c1.5,0,2.9,0.2,4.3,0.6c0.4,0.1,0.8-0.1,0.9-0.5c0.1-0.4-0.1-0.8-0.5-0.9c-1.5-0.4-3.1-0.6-4.7-0.6C9.9,6.2,0.6,17.8,0.2,18.3
		c-0.2,0.3-0.2,0.7,0,0.9c2.2,2.6,4.6,4.9,7.3,6.8C7.6,26.2,7.8,26.2,8,26.2z"/>
	<path d="M13.6,18.7c0,0.4,0.3,0.8,0.8,0.8s0.8-0.3,0.8-0.8c0-3.6,2.9-6.5,6.5-6.5c0.4,0,0.8-0.3,0.8-0.8s-0.3-0.8-0.8-0.8
		C17.2,10.7,13.6,14.3,13.6,18.7z"/>
	<path d="M28.1,18.7c0,3.6-2.9,6.5-6.5,6.5c-0.4,0-0.8,0.3-0.8,0.8s0.3,0.8,0.8,0.8c4.4,0,8-3.6,8-8c0-0.4-0.3-0.8-0.8-0.8
		S28.1,18.3,28.1,18.7z"/>
	<path d="M39.8,0.5c-0.3-0.3-0.8-0.3-1.1,0L3.4,35.9c-0.3,0.3-0.3,0.8,0,1.1c0.1,0.1,0.3,0.2,0.5,0.2s0.4-0.1,0.5-0.2L39.8,1.6
		C40.1,1.3,40.1,0.8,39.8,0.5z"/>
</g>
</svg>
