<?xml version="1.0" encoding="utf-8"?>
<!-- Generator: Adobe Illustrator 23.0.0, SVG Export Plug-In . SVG Version: 6.00 Build 0)  -->
<svg version="1.1" id="Layer_1" xmlns="http://www.w3.org/2000/svg" xmlns:xlink="http://www.w3.org/1999/xlink" x="0px" y="0px"
	 viewBox="0 0 41.7 24.1" style="enable-background:new 0 0 41.7 24.1;" xml:space="preserve">
<g>
	<path d="M20.8,5.2c-3.8,0-6.8,3.1-6.8,6.8s3.1,6.8,6.8,6.8s6.8-3.1,6.8-6.8S24.6,5.2,20.8,5.2z M20.8,17.4c-2.9,0-5.3-2.4-5.3-5.3
		c0-2.9,2.4-5.3,5.3-5.3c2.9,0,5.3,2.4,5.3,5.3C26.2,15,23.8,17.4,20.8,17.4z"/>
	<path d="M41.2,11C41.2,11,41.2,11,41.2,11C39,8.4,30.8,0,20.8,0C10.9,0,2.7,8.4,0.5,11c-0.5,0.6-0.5,1.5,0,2.1
		c2.3,2.6,10.5,11,20.4,11c9.9,0,18.1-8.4,20.4-11C41.8,12.5,41.8,11.6,41.2,11z M40.1,12.2c-2.2,2.5-10,10.5-19.3,10.5
		c-9.3,0-17.1-8-19.3-10.5c0,0,0-0.1,0-0.2c2.2-2.5,10-10.5,19.3-10.5c9.3,0,17.1,8,19.3,10.5C40.1,12,40.1,12.1,40.1,12.2z"/>
</g>
</svg>
