<svg xmlns="http://www.w3.org/2000/svg" xmlns:xlink="http://www.w3.org/1999/xlink" width="98.013" height="125.457" viewBox="0 0 98.013 125.457">
  <defs>
    <linearGradient id="linear-gradient" x1="0.5" y1="-2.145" x2="0.5" y2="-0.366" gradientUnits="objectBoundingBox">
      <stop offset="0" stop-color="#dfe7f7"/>
      <stop offset="0.99" stop-color="#b5d1ff"/>
      <stop offset="1" stop-color="#b5d1ff"/>
    </linearGradient>
    <linearGradient id="linear-gradient-2" x1="0.5" y1="-0.17" x2="0.5" y2="20.658" gradientUnits="objectBoundingBox">
      <stop offset="0" stop-color="#ff5252"/>
      <stop offset="1" stop-color="#d50000"/>
    </linearGradient>
    <linearGradient id="linear-gradient-4" y1="-0.123" y2="2.825" xlink:href="#linear-gradient-2"/>
    <linearGradient id="linear-gradient-5" y1="-4.203" y2="3.531" xlink:href="#linear-gradient-2"/>
  </defs>
  <g id="Group_47842" data-name="Group 47842" transform="translate(-725.23 -272.134)">
    <g id="PDF" transform="translate(725.23 272.134)">
      <path id="Path_53648" data-name="Path 53648" d="M98.252,125.458H13.96A1.96,1.96,0,0,1,12,123.5V1.96A1.96,1.96,0,0,1,13.96,0H77.987a1.96,1.96,0,0,1,1.386.574L99.638,20.84a1.96,1.96,0,0,1,.574,1.386V123.5A1.96,1.96,0,0,1,98.252,125.458Z" transform="translate(-2.199 0)" fill="url(#linear-gradient)"/>
      <path id="Path_53649" data-name="Path 53649" d="M7,34.643l7.841-3.464,5.473,8.4H7Z" transform="translate(-7 42.192)" fill="url(#linear-gradient-2)"/>
      <path id="Path_53650" data-name="Path 53650" d="M97.252,125.458H12.96A1.96,1.96,0,0,1,11,123.5V1.96A1.96,1.96,0,0,1,12.96,0H77.8L99.212,21.414V123.5A1.96,1.96,0,0,1,97.252,125.458Z" transform="translate(-3.159 0)" fill="#fff"/>
      <path id="Path_53651" data-name="Path 53651" d="M45.076,0V19.454a1.96,1.96,0,0,0,1.96,1.96H66.49L56.885,9.848Z" transform="translate(29.563 0)" fill="url(#linear-gradient)"/>
      <path id="Path_53652" data-name="Path 53652" d="M83.494,69.579H10.47A3.468,3.468,0,0,1,7,66.11v-31.4H83.494a3.472,3.472,0,0,1,3.47,3.47V66.11A3.47,3.47,0,0,1,83.494,69.579Z" transform="translate(-7 45.587)" fill="url(#linear-gradient-4)"/>
      <path id="Path_53653" data-name="Path 53653" d="M14.841,31.179H10.466a3.465,3.465,0,1,0,0,6.93h4.375Z" transform="translate(-7 42.192)" fill="url(#linear-gradient-5)"/>
      <g id="Group_47839" data-name="Group 47839" transform="translate(15.682 89.246)">
        <path id="Path_53654" data-name="Path 53654" d="M15,54.471V41.035a1.7,1.7,0,0,1,1.7-1.7,55.119,55.119,0,0,1,7.8.253,4.736,4.736,0,0,1,3.4,4.928,4.865,4.865,0,0,1-3.756,5.065,35.765,35.765,0,0,1-5.2.241.547.547,0,0,0-.547.547v4.1a1.7,1.7,0,1,1-3.4,0Zm3.4-11.742v3.683a.547.547,0,0,0,.547.547,14.908,14.908,0,0,0,4-.265,2.3,2.3,0,0,0-.459-4.4,33.252,33.252,0,0,0-3.542-.116.547.547,0,0,0-.545.549Z" transform="translate(-15 -39.264)" fill="#fff"/>
        <path id="Path_53655" data-name="Path 53655" d="M23,41.049a1.7,1.7,0,0,1,1.7-1.7,38.189,38.189,0,0,1,7.716.321,6.353,6.353,0,0,1,4.148,4.279,12.45,12.45,0,0,1,.551,3.979,11.046,11.046,0,0,1-.518,3.583,6.14,6.14,0,0,1-4.193,4.313,40.937,40.937,0,0,1-7.7.357,1.7,1.7,0,0,1-1.7-1.7Zm3.4,1.694V52.8a.547.547,0,0,0,.547.547,21.4,21.4,0,0,0,4.048-.161,2.907,2.907,0,0,0,2.262-2.327,11,11,0,0,0,.345-3.083,10.062,10.062,0,0,0-.345-3,3.262,3.262,0,0,0-2.548-2.425,28.185,28.185,0,0,0-3.772-.161.547.547,0,0,0-.539.549Z" transform="translate(-7.318 -39.277)" fill="#fff"/>
        <path id="Path_53656" data-name="Path 53656" d="M31.682,54.451V41.015a1.7,1.7,0,0,1,1.7-1.7H41.8a1.424,1.424,0,1,1,0,2.848H35.638a.547.547,0,0,0-.547.549V45.6a.547.547,0,0,0,.547.549H40.7A1.424,1.424,0,1,1,40.7,49H35.638a.547.547,0,0,0-.547.547v4.9a1.7,1.7,0,0,1-3.409.008Z" transform="translate(1.019 -39.244)" fill="#fff"/>
      </g>
    </g>
    <path id="Path_53677" data-name="Path 53677" d="M97.8,82.623a4.177,4.177,0,0,0,.172,5.652c1.69-3.717-.094-5.676-.172-5.652M98.885,97.5a124.561,124.561,0,0,1-4.76,13.295,89.8,89.8,0,0,1,11.561-3.55,60.148,60.148,0,0,1-6.8-9.745m13.295,11.568c1.45,1.1,1.8,1.659,2.754,1.659a2.268,2.268,0,0,0,2.561-1.5c-.217-.116-.509-.346-2.091-.346a26.1,26.1,0,0,0-3.224.189m-24.27,7.81c-3.8,2.109-5.354,3.844-5.465,4.823-.018.163-.066.588.766,1.216.266-.084,1.815-.781,4.7-6.039m-4.739,9.009a2.88,2.88,0,0,1-1.721-.573,4.2,4.2,0,0,1-1.985-3.944c.323-2.859,3.906-5.856,10.652-8.909a117.055,117.055,0,0,0,6.742-18.9c-1.775-3.818-3.5-8.771-2.245-11.677a3.4,3.4,0,0,1,2.018-2.138,8.964,8.964,0,0,1,1.809-.3c.934,0,1.831,1.114,2.263,1.839a7.237,7.237,0,0,1,.68,4.423,39.215,39.215,0,0,1-.661,4.37c-.21,1.061-.448,2.117-.7,3.168a56.1,56.1,0,0,0,9.053,13.289,35.124,35.124,0,0,1,5.978-.627c2.784,0,4.476.641,5.163,1.961.572,1.093.336,2.373-.695,3.8a4.74,4.74,0,0,1-3.95,2.093c-2.167,0-4.685-1.35-7.5-4.016a86.141,86.141,0,0,0-15.712,4.96,49.731,49.731,0,0,1-4.242,7.473c-1.82,2.529-3.394,3.706-4.951,3.706" transform="translate(674.085 211.156)" fill="#f74343"/>
  </g>
</svg>
