<svg xmlns="http://www.w3.org/2000/svg" width="34.467" height="34.467" viewBox="0 0 34.467 34.467">
  <g id="clock_1_" data-name="clock (1)" transform="translate(0)">
    <circle id="Ellipse_2954" data-name="Ellipse 2954" cx="16.729" cy="16.729" r="16.729" transform="translate(0.505 0.505)" fill="#eab14d"/>
    <path id="Path_54326" data-name="Path 54326" d="M243.667,7.5q-.448,0-.89.024a16.729,16.729,0,0,1,0,33.41q.442.023.89.024a16.729,16.729,0,1,0,0-33.458Z" transform="translate(-226.434 -6.995)" fill="#e49542"/>
    <circle id="Ellipse_2955" data-name="Ellipse 2955" cx="13.036" cy="13.036" r="13.036" transform="translate(4.198 4.198)" fill="#f4fbff"/>
    <path id="Path_54327" data-name="Path 54327" d="M241.148,62.357c-.361,0-.718.015-1.072.044a13.036,13.036,0,0,1,0,25.983c.354.029.711.044,1.072.044a13.036,13.036,0,0,0,0-26.072Z" transform="translate(-223.914 -58.159)" fill="#daf1f4"/>
    <circle id="Ellipse_2956" data-name="Ellipse 2956" cx="1.348" cy="1.348" r="1.348" transform="translate(15.886 15.886)" fill="#365e7d"/>
    <g id="Group_49099" data-name="Group 49099" transform="translate(0)">
      <path id="Path_54328" data-name="Path 54328" d="M249,97.7a.5.5,0,0,0,.5-.5v-.741a.5.5,0,0,0-1.01,0v.741A.5.5,0,0,0,249,97.7Z" transform="translate(-231.771 -89.49)"/>
      <path id="Path_54329" data-name="Path 54329" d="M349.565,140.947a.5.5,0,0,0-.714,0l-.524.524a.5.5,0,0,0,.714.714l.524-.524A.5.5,0,0,0,349.565,140.947Z" transform="translate(-324.74 -131.32)"/>
      <path id="Path_54330" data-name="Path 54330" d="M389.733,248.5a.5.5,0,1,0,0,1.01h.741a.5.5,0,0,0,0-1.01Z" transform="translate(-363.026 -231.772)"/>
      <path id="Path_54331" data-name="Path 54331" d="M348.463,348.328a.5.5,0,1,0-.714.714l.524.524a.5.5,0,0,0,.714-.714Z" transform="translate(-324.201 -324.741)"/>
      <path id="Path_54332" data-name="Path 54332" d="M247.683,389.734v.741a.5.5,0,1,0,1.01,0v-.741a.5.5,0,0,0-1.01,0Z" transform="translate(-231.009 -363.027)"/>
      <path id="Path_54333" data-name="Path 54333" d="M140.892,347.75l-.524.524a.5.5,0,0,0,.714.714l.524-.524a.5.5,0,0,0-.714-.714Z" transform="translate(-130.781 -324.202)"/>
      <path id="Path_54334" data-name="Path 54334" d="M96.453,247.684a.5.5,0,1,0,0,1.01h.741a.5.5,0,1,0,0-1.01Z" transform="translate(-89.489 -231.01)"/>
      <path id="Path_54335" data-name="Path 54335" d="M142.185,140.894l-.524-.524a.5.5,0,0,0-.714.714l.524.524a.5.5,0,0,0,.714-.714Z" transform="translate(-131.32 -130.782)"/>
      <path id="Path_54336" data-name="Path 54336" d="M190.95,154.279l3.6,1.849a.5.5,0,0,0,.462-.9l-3.6-1.849a1.852,1.852,0,0,0-1.311-2.148v-5.146a.5.5,0,1,0-1.01,0v5.146a1.859,1.859,0,0,0-1.277,1.277h-2.506a.5.5,0,0,0,0,1.01h2.506a1.851,1.851,0,0,0,3.135.759Zm-1.353-.421a.843.843,0,1,1,.843-.843A.844.844,0,0,1,189.6,153.858Z" transform="translate(-172.363 -135.782)"/>
      <path id="Path_54337" data-name="Path 54337" d="M81.434,67.892a.5.5,0,0,0,.465-.542,13.541,13.541,0,1,0,0,2.1.5.5,0,0,0-1.007-.077,12.53,12.53,0,1,1,0-1.942A.5.5,0,0,0,81.434,67.892Z" transform="translate(-51.164 -51.164)"/>
      <path id="Path_54338" data-name="Path 54338" d="M136.2,5.048a17.239,17.239,0,0,0-21.48-2.329.5.5,0,1,0,.545.85A16.221,16.221,0,1,1,119.3,32.762a.5.5,0,0,0-.293.966A17.236,17.236,0,0,0,136.2,5.048Z" transform="translate(-106.781 0)"/>
      <path id="Path_54339" data-name="Path 54339" d="M10.687,85.134A16.227,16.227,0,0,1,6.9,57.775.5.5,0,0,0,6.26,57a17.237,17.237,0,0,0,4.019,29.06.5.5,0,0,0,.408-.924Z" transform="translate(0 -53.052)"/>
    </g>
  </g>
</svg>
