<svg xmlns="http://www.w3.org/2000/svg" width="92.88" height="80.608" viewBox="0 0 92.88 80.608">
  <g id="Group_47494" data-name="Group 47494" transform="translate(-497.296 -443.444)">
    <g id="Group_47487" data-name="Group 47487" transform="translate(575.713 446.918) rotate(-29)">
      <path id="Path_53449" data-name="Path 53449" d="M3.762,0a.727.727,0,0,1,.456.5A4.542,4.542,0,0,0,6.9,3.3c.686.256,1.095.721.052,1.148a4.909,4.909,0,0,0-2.659,2.7c-.314.7-.706.859-1.016.01A5.024,5.024,0,0,0,.452,4.336c-.565-.267-.633-.688-.018-.89A5.208,5.208,0,0,0,3.453.4,2.265,2.265,0,0,1,3.762,0Z" transform="translate(11.053 9.892) rotate(180)" fill="#fd6986"/>
      <path id="Path_53451" data-name="Path 53451" d="M1.494,0a.289.289,0,0,1,.181.2A1.8,1.8,0,0,0,2.74,1.313c.273.1.435.286.021.456A1.951,1.951,0,0,0,1.7,2.84c-.125.279-.281.341-.4,0A2,2,0,0,0,.18,1.722c-.224-.106-.252-.273-.007-.354A2.069,2.069,0,0,0,1.372.157.9.9,0,0,1,1.494,0Z" transform="translate(3.108 12.072) rotate(180)" fill="#fd6986"/>
      <path id="Path_53450" data-name="Path 53450" d="M1.494,0a.289.289,0,0,1,.181.2A1.8,1.8,0,0,0,2.74,1.313c.273.1.435.286.021.456A1.951,1.951,0,0,0,1.7,2.84c-.125.279-.281.341-.4,0A2,2,0,0,0,.18,1.722c-.224-.106-.252-.273-.007-.354A2.069,2.069,0,0,0,1.372.157.9.9,0,0,1,1.494,0Z" transform="translate(3.013 3.074) rotate(180)" fill="#fd6986"/>
    </g>
    <g id="Group_47483" data-name="Group 47483" transform="translate(136.057 -4.701)">
      <path id="Path_53487" data-name="Path 53487" d="M55.667,244.307H2.756a1.654,1.654,0,0,1,0-3.307H55.667A1.654,1.654,0,0,1,55.667,244.307Z" transform="translate(380.783 245.822)" fill="#fd6986"/>
      <path id="Path_53488" data-name="Path 53488" d="M282.456,244.307H256V241h26.456A1.654,1.654,0,0,1,282.456,244.307Z" transform="translate(153.993 245.822)" fill="#ea3487"/>
      <g id="Group_47479" data-name="Group 47479" transform="translate(381.774 460.257)">
        <path id="Path_53493" data-name="Path 53493" d="M333.643,337.25H328.4a1.654,1.654,0,0,1,0-3.307h5.244a1.3,1.3,0,0,0,1.3-1.3V327.4a1.653,1.653,0,0,1,3.307,0v5.244A4.611,4.611,0,0,1,333.643,337.25Z" transform="translate(-290.739 -289.851)"/>
        <path id="Path_53489" data-name="Path 53489" d="M382.449,14V6.1a2.8,2.8,0,0,0-2.793-2.793h-7.9a1.654,1.654,0,0,1,0-3.307h7.9a6.107,6.107,0,0,1,6.1,6.1V14A1.654,1.654,0,0,1,382.449,14Z" transform="translate(-329.317 0)"/>
        <path id="Path_53490" data-name="Path 53490" d="M379.656,385.756h-7.9a1.653,1.653,0,0,1,0-3.307h7.9a2.8,2.8,0,0,0,2.793-2.793v-7.9a1.654,1.654,0,0,1,3.307,0v7.9A6.107,6.107,0,0,1,379.656,385.756Z" transform="translate(-329.317 -329.317)"/>
        <path id="Path_53491" data-name="Path 53491" d="M0,14V6.1A6.107,6.107,0,0,1,6.1,0H14a1.654,1.654,0,0,1,0,3.307H6.1A2.8,2.8,0,0,0,3.307,6.1V14A1.654,1.654,0,0,1,0,14Z" transform="translate(0 0)"/>
        <path id="Path_53492" data-name="Path 53492" d="M14,385.756H6.1a6.107,6.107,0,0,1-6.1-6.1v-7.9a1.654,1.654,0,0,1,3.307,0v7.9A2.8,2.8,0,0,0,6.1,382.449H14A1.653,1.653,0,0,1,14,385.756Z" transform="translate(0 -329.317)"/>
        <path id="Path_53494" data-name="Path 53494" d="M334.942,89.85V84.606a1.3,1.3,0,0,0-1.3-1.3H328.4a1.654,1.654,0,0,1,0-3.307h5.244a4.611,4.611,0,0,1,4.606,4.606V89.85A1.653,1.653,0,0,1,334.942,89.85Z" transform="translate(-290.739 -71.181)"/>
        <g id="Group_47476" data-name="Group 47476" transform="translate(8.929 8.819)">
          <path id="Path_53495" data-name="Path 53495" d="M81,89.85V84.606A4.611,4.611,0,0,1,85.606,80H90.85a1.654,1.654,0,0,1,0,3.307H85.606a1.3,1.3,0,0,0-1.3,1.3V89.85A1.654,1.654,0,0,1,81,89.85Z" transform="translate(-81 -80)"/>
          <path id="Path_53496" data-name="Path 53496" d="M90.85,337.25H85.606A4.611,4.611,0,0,1,81,332.644V327.4a1.654,1.654,0,0,1,3.307,0v5.244a1.3,1.3,0,0,0,1.3,1.3H90.85A1.654,1.654,0,0,1,90.85,337.25Z" transform="translate(-81 -298.669)"/>
        </g>
      </g>
    </g>
    <ellipse id="Oval" cx="3.925" cy="3.877" rx="3.925" ry="3.877" transform="translate(498.296 514.431)" fill="none" stroke="#fec84a" stroke-width="2" opacity="0.331"/>
    <path id="Rectangle-4" d="M.238,1.143C-.283.111.113-.268,1.124.3l1.348.755L4.028.242c1.025-.535,1.386-.154.812.843L3.986,2.568,4.84,4.052c.576,1,.234,1.334-.763.745L2.472,3.85,1.06,4.744c-.975.618-1.346.287-.822-.75l.72-1.426Z" transform="translate(506 502.773) rotate(45)" fill="#ee8494" fill-rule="evenodd"/>
    <path id="Rectangle-4-2" data-name="Rectangle-4" d="M.238,1.143C-.283.111.113-.268,1.124.3l1.348.755L4.028.242c1.025-.535,1.386-.154.812.843L3.986,2.568,4.84,4.052c.576,1,.234,1.334-.763.745L2.472,3.85,1.06,4.744c-.975.618-1.346.287-.822-.75l.72-1.426Z" transform="translate(514.202 516.833) rotate(45)" fill="#ee8494" fill-rule="evenodd"/>
  </g>
</svg>
