<svg xmlns="http://www.w3.org/2000/svg" width="551.956" height="286.175" viewBox="0 0 551.956 286.175">
  <g id="Group_46439" data-name="Group 46439" transform="translate(-408.494 -94.849)">
    <g id="Group_46437" data-name="Group 46437" transform="translate(-7.208)">
      <path id="Path_3" data-name="Path 3" d="M638.433,394.731c-3.2-6.1-16.2-11-22.013-12.115-31.048-5.926-63.569-5.1-95.021-5-34.253.108-66.934,5.59-100.9,8.129-17.665,1.316-36.334-1.054-54.04-1.669Q322.72,382.562,279,380.521c-25.128-1.172-51.208,1.457-73.373,15.31-2.519,1.576-5.064,3.477-6.21,6.3-7.2,17.75,82.536,15.52,94.227,15.824,58.974,1.535,117.986,2.328,176.967.732,43.854-1.188,89.558-1.116,133.049-7.3,9.617-1.369,22.706-1.859,31.015-7.519C639.275,400.736,639.939,397.6,638.433,394.731Z" transform="translate(254.526 -38.542)" opacity="0.07"/>
      <path id="Path_4" data-name="Path 4" d="M606.069,187.489c15.758,0,41.434,6.23,38.9,21.618-3.481,21.086-97.2,13.31-119.589,13.529-45.017.439-90.51.609-134.648,10.452-10.732,2.393-26.105,7.677-24.936,21.369.409,4.782,3.227,9.112,6.813,12.35,12.89,11.642,30.85,12.757,47.523,14.8,25.217,3.091,145.168-1.028,184.378,11.827,7.723,2.532,17.37,5.8,17.691,16.827.817,28.047-68.84,26.666-89.733,27.2-55.767,1.422-111.6.859-167.363-.242-45.068-.889-90.278-1.677-135.272-4.585-16.773-1.084-44.206-1.409-57-14-7.153-7.041-8.091-19.84,3.218-26.38,7.971-4.609,31.354-2.594,40.353-3.367,29.086-2.5,36.647-57.841,11.151-57.841" transform="translate(248.718 -73.561)" fill="none" stroke="#777f93" stroke-miterlimit="10" stroke-width="1" stroke-dasharray="4" opacity="0.315"/>
      <g id="Group_7" data-name="Group 7" transform="translate(813.972 94.035)" opacity="0.359">
        <g id="Group_6" data-name="Group 6" transform="translate(5.026 4.878)">
          <path id="Path_6" data-name="Path 6" d="M539.456,209.758a1.86,1.86,0,0,1-.613-.1l-29.991-10.5a1.864,1.864,0,0,1-.6-3.171l24.086-20.726a1.862,1.862,0,0,1,3.045,1.066l5.907,31.222a1.862,1.862,0,0,1-1.833,2.209Zm-28.995-12.546,28.337,9.917-5.58-29.5Z" transform="translate(-507.604 -174.81)" fill="#777f93"/>
        </g>
        <path id="Path_7" data-name="Path 7" d="M523.622,195.592h0a1.124,1.124,0,0,1-.706-1.384l2.974-10.433a1.764,1.764,0,0,1,2.273-1.157h0a1.763,1.763,0,0,1,1.055,2.321l-4.18,10.012A1.124,1.124,0,0,1,523.622,195.592Z" transform="translate(-499.765 -168.512)" fill="#777f93"/>
        <path id="Path_8" data-name="Path 8" d="M524.036,196.2a1.146,1.146,0,1,1-.7-1.459A1.144,1.144,0,0,1,524.036,196.2Z" transform="translate(-499.961 -166.272)" fill="#777f93"/>
      </g>
      <g id="Group_13" data-name="Group 13" transform="translate(469.416 117.935)" opacity="0.104">
        <circle id="Ellipse_4" data-name="Ellipse 4" cx="1.967" cy="1.967" r="1.967" transform="translate(0 112.584)" fill="none" stroke="#8e8989" stroke-miterlimit="10" stroke-width="1"/>
        <circle id="Ellipse_5" data-name="Ellipse 5" cx="1.967" cy="1.967" r="1.967" transform="translate(291.834 76.205)" fill="none" stroke="#8e8989" stroke-miterlimit="10" stroke-width="1"/>
        <circle id="Ellipse_6" data-name="Ellipse 6" cx="1.967" cy="1.967" r="1.967" transform="translate(136.997 21.11)" fill="none" stroke="#8e8989" stroke-miterlimit="10" stroke-width="1"/>
        <circle id="Ellipse_7" data-name="Ellipse 7" cx="1.967" cy="1.967" r="1.967" transform="translate(134.637 170.629)" fill="none" stroke="#8e8989" stroke-miterlimit="10" stroke-width="1"/>
        <g id="Group_10" data-name="Group 10" transform="translate(180.2 56.829)">
          <line id="Line_1" data-name="Line 1" y2="4.448" transform="translate(2.224)" fill="none" stroke="#8e8989" stroke-linecap="round" stroke-linejoin="round" stroke-width="1"/>
          <line id="Line_2" data-name="Line 2" x1="4.448" transform="translate(0 2.224)" fill="none" stroke="#8e8989" stroke-linecap="round" stroke-linejoin="round" stroke-width="1"/>
        </g>
        <g id="Group_11" data-name="Group 11" transform="translate(260.032)">
          <line id="Line_3" data-name="Line 3" y2="4.448" transform="translate(2.224)" fill="none" stroke="#8e8989" stroke-linecap="round" stroke-linejoin="round" stroke-width="1"/>
          <line id="Line_4" data-name="Line 4" x1="4.448" transform="translate(0 2.224)" fill="none" stroke="#8e8989" stroke-linecap="round" stroke-linejoin="round" stroke-width="1"/>
        </g>
        <g id="Group_12" data-name="Group 12" transform="translate(383.539 119.981)">
          <line id="Line_5" data-name="Line 5" y2="4.448" transform="translate(2.224)" fill="none" stroke="#8e8989" stroke-linecap="round" stroke-linejoin="round" stroke-width="1"/>
          <line id="Line_6" data-name="Line 6" x1="4.448" transform="translate(0 2.224)" fill="none" stroke="#8e8989" stroke-linecap="round" stroke-linejoin="round" stroke-width="1"/>
        </g>
      </g>
      <g id="Group_28" data-name="Group 28" transform="translate(671.523 129.089)">
        <g id="Group_19" data-name="Group 19" transform="translate(47.051 113.275)">
          <g id="Group_16" data-name="Group 16" transform="translate(0 1.028)">
            <path id="Path_13" data-name="Path 13" d="M401.46,399.552s-8.279,3.532-8.273,5.3c0,1.014,11.384-.437,12.07-1.123,1.1-1.1-.444-4.023-.444-4.023Z" transform="translate(-385.265 -277.874)" fill="#26387a"/>
            <path id="Path_14" data-name="Path 14" d="M399.725,395.582l.531,5.09a1.553,1.553,0,0,0,1.433.914,2.408,2.408,0,0,0,1.92-.914l-.409-6.37" transform="translate(-384.061 -278.842)" fill="#ffb288"/>
            <path id="Path_15" data-name="Path 15" d="M416.62,296.808c3.012,12.133,1.894,18.3-2.518,27.449-2.673,30.776-4.541,61.431-8.137,91.438l-3.8.218c-8.641-29.216-16.591-72.892-15.577-112.816" transform="translate(-386.498 -296.808)" fill="#26387a"/>
            <g id="Group_15" data-name="Group 15" transform="translate(18.385 4.169)">
              <path id="Path_16" data-name="Path 16" d="M411.884,300.328a22.963,22.963,0,0,1,1.28,8.987c-.147,4.6-2.018,8.773-3.23,13.14-1.617,5.823-1.741,11.623-2.183,17.591q-1.037,14.011-2.112,28.018-1.741,22.847-3.513,45.688-.051.679-.105,1.356" transform="translate(-402.022 -300.328)" fill="none" stroke="#0061a6" stroke-miterlimit="10" stroke-width="0.5"/>
            </g>
          </g>
          <g id="Group_18" data-name="Group 18" transform="translate(25.199)">
            <path id="Path_17" data-name="Path 17" d="M429.335,400.552s-8.279,3.532-8.273,5.3c0,1.014,11.384-.437,12.07-1.123,1.1-1.1-.444-4.023-.444-4.023Z" transform="translate(-405.328 -276.662)" fill="#26387a"/>
            <path id="Path_18" data-name="Path 18" d="M427.6,396.582l.531,5.09a1.553,1.553,0,0,0,1.433.914,2.408,2.408,0,0,0,1.92-.914l-.409-6.37" transform="translate(-404.123 -277.63)" fill="#ffb288"/>
            <path id="Path_19" data-name="Path 19" d="M440.23,295.94c3.807,11.908,3.1,18.131-.7,27.557-.631,30.885-2.756,63.135-4.358,93.315h-3.91c-10.554-28.58-21.861-72.705-23.49-112.608" transform="translate(-407.776 -295.94)" fill="#26387a"/>
            <g id="Group_17" data-name="Group 17" transform="translate(19.648 4.933)">
              <path id="Path_20" data-name="Path 20" d="M434.264,300.105s4.414,10.329-3.047,24.837c-.861,13.691-1.3,91.1-1.3,91.1" transform="translate(-423.345 -300.105)" fill="none" stroke="#0061a6" stroke-miterlimit="10" stroke-width="0.5"/>
              <path id="Path_21" data-name="Path 21" d="M424.367,302.868a6.821,6.821,0,0,0,3.238,2.517,16.088,16.088,0,0,0,4.036.914,28.646,28.646,0,0,0,4.922.253" transform="translate(-424.367 -299.596)" fill="none" stroke="#0061a6" stroke-miterlimit="10" stroke-width="0.5"/>
              <path id="Path_22" data-name="Path 22" d="M424.823,304.5a11.236,11.236,0,0,0,5.059,2.493,26.414,26.414,0,0,0,5.65.534" transform="translate(-424.283 -299.295)" fill="none" stroke="#0061a6" stroke-miterlimit="10" stroke-width="0.5"/>
            </g>
          </g>
        </g>
        <g id="Group_20" data-name="Group 20" transform="translate(21.268 31.798)">
          <path id="Path_23" data-name="Path 23" d="M402.974,249.019c-13.167,22.911-27.34,43.661-35.744,68.715l-2.5-1.331c.64-23.262,8.179-57.086,18.079-78.146" transform="translate(-364.727 -225.093)" fill="#ffb288"/>
          <path id="Path_24" data-name="Path 24" d="M395.248,227.141a34.8,34.8,0,0,0-8.864,4.329,30.175,30.175,0,0,0-10.237,12.352,55.932,55.932,0,0,0-4.408,15.571,41.348,41.348,0,0,0,11.829,3.545,62.442,62.442,0,0,0,13.037,0" transform="translate(-363.435 -227.141)" fill="#fd5b65"/>
        </g>
        <g id="Group_21" data-name="Group 21" transform="translate(42.575 27.494)">
          <path id="Path_25" data-name="Path 25" d="M383.407,241.353c-1.4,24.779-.333,50.269.3,74.374,0,0,8.641,2.3,29.634,2.3,20.914,0,34.611-6.375,34.611-6.375-4.053-24.773-7.275-55.167-17.2-75.561,0,0-11.2-12.078-22.246-12.575a14.416,14.416,0,0,0-6.556,1.7c-1.559.725-8.722,2.476-8.722,2.476Z" transform="translate(-382.718 -223.507)" fill="#fd5b65"/>
          <path id="Path_26" data-name="Path 26" d="M383.285,240.441c-.548,4.763-.548,19.468-.548,19.468" transform="translate(-382.715 -220.386)" fill="#ba000c" stroke="#ba000c" stroke-miterlimit="10" stroke-width="0.5"/>
        </g>
        <g id="Group_25" data-name="Group 25" transform="translate(0 97.598)">
          <path id="Path_27" data-name="Path 27" d="M400.832,308c35.072-3.889,49.784,40.564,57.769,57.809,18.879,40.762,90.1,36.216,122.563,36.216,42.511,0,61.169,14.327,41.327,21.842" transform="translate(-336.805 -278.084)" fill="none" stroke="#ffc840" stroke-linecap="round" stroke-linejoin="round" stroke-width="5"/>
          <path id="Path_28" data-name="Path 28" d="M417.958,314.159c0,18.042-13.656,28.931-25.327,28.931H373.487V285.227h19.144C404.3,285.227,417.958,296.116,417.958,314.159Z" transform="translate(-341.844 -282.237)" fill="#fdae2b"/>
          <path id="Path_29" data-name="Path 29" d="M409.623,314.624c0,17.63-10.439,31.922-23.317,31.922H365.183V282.7h21.123C399.184,282.7,409.623,296.994,409.623,314.624Z" transform="translate(-343.374 -282.702)" fill="#ef8417"/>
          <path id="Path_30" data-name="Path 30" d="M408.735,294.93q-6.852,9.337-13.343,18.931a3.24,3.24,0,0,0,1.633-.855c0,.48-.765,1.31-.089,1.618s1.392-.483,2.1-.266c.662-.155,1.28-.985,1.765-1.464a3.619,3.619,0,0,0-.3,1.117c4.66-1.812,8.828-6.156,12.453-9.653A29.208,29.208,0,0,0,408.735,294.93Z" transform="translate(-337.808 -280.449)" fill="#fdae2b" opacity="0.5" style="mix-blend-mode: multiply;isolation: isolate"/>
          <ellipse id="Ellipse_8" data-name="Ellipse 8" cx="23.317" cy="31.922" rx="23.317" ry="31.922" transform="translate(0 0)" fill="#ffc840"/>
          <g id="Group_24" data-name="Group 24" transform="translate(17.27 15.866)">
            <g id="Group_22" data-name="Group 22" transform="translate(0 22.624)">
              <path id="Path_31" data-name="Path 31" d="M369.346,319.947c0,2.62-1.789,4.744-4,4.744s-4-2.125-4-4.744,1.791-4.744,4-4.744S369.346,317.328,369.346,319.947Z" transform="translate(-361.351 -315.203)" fill="#ef8417"/>
            </g>
            <g id="Group_23" data-name="Group 23">
              <path id="Path_32" data-name="Path 32" d="M369.346,300.843c0,2.62-1.789,4.744-4,4.744s-4-2.125-4-4.744,1.791-4.744,4-4.744S369.346,298.224,369.346,300.843Z" transform="translate(-361.351 -296.099)" fill="#ef8417"/>
            </g>
          </g>
        </g>
        <g id="Group_26" data-name="Group 26" transform="translate(57.312 27.502)">
          <path id="Path_33" data-name="Path 33" d="M433.947,254.882s1.48,15.078-5.262,27.617c-5.766,10.722-17.219,24.6-26.473,32.248l-2.223-.541c3.22-12.359,13.386-34.3,14.018-42.531s.481-17.761.632-22.345" transform="translate(-394.272 -218.757)" fill="#ffb288"/>
          <path id="Path_34" data-name="Path 34" d="M404.491,223.514s12.41.849,19.609,6.932c10.278,8.686,11.8,25.683,11.8,29.631-3.106,3.357-9.9,3.529-14.847,3.529a17.066,17.066,0,0,1-8.565-2.369l-1.01-18.751" transform="translate(-393.442 -223.514)" fill="#fd5b65"/>
          <path id="Path_35" data-name="Path 35" d="M401.781,302.56a7.893,7.893,0,0,0-3.969,1.754c-1.087.849-2.424,2.271-2.284,2.922.147.683,1.929-.631,2.146-.366s-3.051,5.2-2.435,5.568,3.394-4.1,3.394-4.1-2.7,4.775-1.654,4.879c.873.088,3.269-4.432,3.269-4.432s-2.026,4.041-1.332,4.194,2.571-3.873,2.571-3.873-1.528,3.439-.942,3.5c.3.03,1.8-1.68,2.435-3.753.621-2.038,1.345-3.807.786-5.4" transform="translate(-395.162 -208.948)" fill="#ffb288"/>
          <line id="Line_7" data-name="Line 7" y2="17.083" transform="translate(19.566 20.942)" fill="none" stroke="#ba000c" stroke-miterlimit="10" stroke-width="0.5"/>
        </g>
        <g id="Group_27" data-name="Group 27" transform="translate(41.679)">
          <path id="Path_36" data-name="Path 36" d="M382.788,210.325c-.065.74-.095,1.484-.089,2.226a8.031,8.031,0,0,0,1.146,4.614,4.851,4.851,0,0,0,2.663,1.869c.756.206,1.744.118,2.07-.593a1.931,1.931,0,0,0,.12-.815,21.888,21.888,0,0,0-1.573-8.061" transform="translate(-381.826 -198.582)" fill="#26387a"/>
          <path id="Path_37" data-name="Path 37" d="M401.357,212.91c-1.064-4.15-4.413-9.962-9.861-8.8-3.421.733-6.573,3.064-7.579,6.328-1.2,3.9.747,8.43,3.083,11.612a9.621,9.621,0,0,0,3.213,2.98c3.155,1.631,7.412.294,9.554-2.423S402.2,216.2,401.357,212.91Z" transform="translate(-381.669 -199.614)" fill="#ffb288"/>
          <path id="Path_38" data-name="Path 38" d="M392.233,221.46l1.781,6.506-2.424,1.144a5.918,5.918,0,0,0,5.506,1.93c7.435-1.073,9.773-6.226,9.773-6.226l-4.2-.438-4.647-7.92" transform="translate(-380.188 -197.312)" fill="#ffb288"/>
          <path id="Path_39" data-name="Path 39" d="M405.277,209.059a10.444,10.444,0,0,0-5.031-6.778c-4.4-2.673-10.664-2.887-14.582.795-2.231,2.1-6.246,9.529-1.448,11,1.5.461,3.04-.451,4.344-1.323l3.978-2.66a3.155,3.155,0,0,1,1.555-.669,2.327,2.327,0,0,1,2.052,1.651,21.588,21.588,0,0,1,.578,2.75,2.631,2.631,0,0,0,1,1.665,1.224,1.224,0,0,0,1.724-.347,3.071,3.071,0,0,0,.049-1.365c-.008-.461.251-1.024.711-1a.808.808,0,0,1,.445.193c1.158.9.782,2.708,1.167,4.125.051.186-.338,3.052-.208,3.2C405.3,219.435,405.651,211.1,405.277,209.059Z" transform="translate(-381.962 -200.291)" fill="#26387a"/>
          <path id="Path_40" data-name="Path 40" d="M397.032,211.308a1.023,1.023,0,0,1,.945-1.065,2.012,2.012,0,0,1,1.448.551,3.208,3.208,0,0,1,1.212,2.334,3.6,3.6,0,0,1-.66,1.988,2.126,2.126,0,0,1-1.065.937,1.683,1.683,0,0,1-1.669-.532" transform="translate(-379.186 -198.458)" fill="#ffb288"/>
        </g>
      </g>
      <g id="Group_40" data-name="Group 40" transform="translate(442.331 128.072)">
        <g id="Group_31" data-name="Group 31" transform="translate(99.446 114.292)">
          <g id="Group_29" data-name="Group 29" transform="translate(36.088 2.586)">
            <path id="Path_41" data-name="Path 41" d="M286.334,399.4s7.987,1.331,8.207,3.085c.126,1.005-11.194,2.2-11.962,1.612-1.229-.947.278-4.492.278-4.492Z" transform="translate(-255.027 -279.461)" fill="#1e4174"/>
            <path id="Path_42" data-name="Path 42" d="M285.7,395.393l.655,5.047a1.556,1.556,0,0,1-1.3,1.092,2.408,2.408,0,0,1-2.022-.661l-.939-6.3" transform="translate(-255.028 -280.351)" fill="#fe9a8d"/>
            <path id="Path_43" data-name="Path 43" d="M260.059,298.124c-1.427,12.42-1.505,18.388,4.046,26.9,2.63,12.018,6.669,24.319,9.722,36.623-1.315,14.692,7.9,38.1,12.852,54.811l3.581-.612c4.815-30.083,6.594-76.219,2.273-116.6" transform="translate(-259.239 -298.124)" fill="#1e4174"/>
            <path id="Path_44" data-name="Path 44" d="M261.9,312.333s13.74,43.622,13.74,45.99.375,10.51.984,15.79c1.116,9.672,9.879,38.18,9.879,38.18" transform="translate(-258.749 -295.506)" fill="#1e4174" stroke="#0061a6" stroke-miterlimit="10" stroke-width="0.5"/>
            <path id="Path_45" data-name="Path 45" d="M282.4,398.976l-.554-2.18,4.618-.171.062,2.012Z" transform="translate(-255.073 -279.972)" fill="#1e4174"/>
          </g>
          <g id="Group_30" data-name="Group 30">
            <path id="Path_46" data-name="Path 46" d="M234.056,399.811s6.248,4.514,5.694,6.1c-.317.911-10.481-2.855-10.886-3.685-.648-1.328,2.139-3.715,2.139-3.715Z" transform="translate(-228.767 -277.038)" fill="#1e4174"/>
            <path id="Path_47" data-name="Path 47" d="M235.24,396.2l-1.577,4.583a1.479,1.479,0,0,1-1.574.379,2.291,2.291,0,0,1-1.445-1.418l1.864-5.773" transform="translate(-228.421 -277.875)" fill="#fe9a8d"/>
            <path id="Path_48" data-name="Path 48" d="M238.422,295.94c-3.807,11.908-3.1,18.131.7,27.557.23,11.28.343,22.7.473,34.112-8.037,20.117-9.31,38.169-8.292,57.326l3.876,1.437s23.078-40.224,27.323-56.125a262.855,262.855,0,0,0,8.38-56.042" transform="translate(-228.355 -295.94)" fill="#1e4174"/>
            <path id="Path_49" data-name="Path 49" d="M239.25,298.124s-4.2,12.288,1.307,24.131c0,3.305,1.892,30.789,1.144,35.036-.36,2.037-4.132,11.752-6.651,21.209-2.788,10.461-3.376,35.13-3.376,35.13" transform="translate(-228.231 -295.538)" fill="#1e4174" stroke="#0061a6" stroke-miterlimit="10" stroke-width="0.5"/>
            <path id="Path_50" data-name="Path 50" d="M230.644,396.819l.614-2.588,4.96,2.307-.978,2.217Z" transform="translate(-228.421 -277.827)" fill="#1e4174"/>
          </g>
        </g>
        <g id="Group_32" data-name="Group 32" transform="translate(156.954 7.318)">
          <path id="Path_51" data-name="Path 51" d="M293.159,220.619l-3.109-2.654v-5.5c0-.853-1.157-5.971-2.2-5.971s-1.28-1.28-1.8-.759.426,6.3,0,6.73-.979-2.746-1.374-2.352-.428,2.721-.428,3.912a7.908,7.908,0,0,0,1.9,4.327c.944.943,5.12,5.456,5.12,5.456Z" transform="translate(-276.051 -205.612)" fill="#fe9a8d"/>
          <path id="Path_52" data-name="Path 52" d="M292.878,216.8l-2.6,2.958s10.267,13.59,13.52,18.14a54.365,54.365,0,0,1-9.686-5.256c-4.829-3.167-9.672-4.846-13.021-4.846-7.112,0-3.389,23.442,4.86,26.872,15.65,2.353,33.192.865,35.878-4.636C325.81,241.876,302.871,222.671,292.878,216.8Z" transform="translate(-277.327 -203.55)" fill="#3ed9c7"/>
          <path id="Path_53" data-name="Path 53" d="M299.679,234.612s1.958,5.468,5.438,7.253" transform="translate(-273.208 -200.268)" fill="none" stroke="#03aa99" stroke-miterlimit="10" stroke-width="0.5"/>
        </g>
        <g id="Group_33" data-name="Group 33" transform="translate(106.412 30.188)">
          <path id="Path_54" data-name="Path 54" d="M253.022,232.5c-18.656,20.952-18.373,56.977-18.373,81.463,0,0,13.7,9.35,34.611,9.35,20.994,0,29.634-5.155,29.634-5.155.629-24.808-3.8-35.508.3-76.545,0,0-6.676-15.317-10.235-15.317s-17.48-1.373-17.48-1.373Z" transform="translate(-234.649 -224.923)" fill="#3ed9c7"/>
          <path id="Path_55" data-name="Path 55" d="M288.276,250.624s.424-7.167,2.164-8.908" transform="translate(-224.766 -221.828)" fill="none" stroke="#03aa99" stroke-miterlimit="10" stroke-width="0.5"/>
        </g>
        <path id="Path_56" data-name="Path 56" d="M270.979,213.157c.694-4.228,3.706-10.267,9.236-9.583,3.473.429,6.163,2.827,8.106,5.636,1.667,2.409,1.037,4.713-1.335,10.812a15.7,15.7,0,0,1-3.652,4.275c-3,1.9-7.358.946-9.73-1.572A11.384,11.384,0,0,1,270.979,213.157Z" transform="translate(-121.572 -198.679)" fill="#fe9a8d"/>
        <path id="Path_57" data-name="Path 57" d="M272.412,213.4c.8-.12.006-.637.358.088.225.463.291.6.743.748s.451.553.821.828c.576.429,1.063-.154,1.306-.648a5.566,5.566,0,0,0,.33-3.012c-.083-.779-.343-2.012.42-2.553.624-.443,2,.2,2.647.385.992.288,1.974.609,2.962.91a17.622,17.622,0,0,0,7.405,1.024,7.179,7.179,0,0,0,5.5-3.465c1.258-2.434-1.257-5.613-3.819-5.617a9.945,9.945,0,0,0-1.964.406,1.517,1.517,0,0,1-.735.011c-.559-.165-.805-.792-1.12-1.283a4.219,4.219,0,0,0-4.246-1.747c-1.9.208-3.517,1.119-5.323,1.612a10.9,10.9,0,0,1-2.742.045,2.909,2.909,0,0,0-2.434,1.589c-.775-.811-2.5,1.176-2.932,1.7-1.891,2.3-2.488,5.616-2.54,8.523-.045,2.544.379,6.244,3.168,7.268,1.18.432,1.922.663,1.972-.418a16.967,16.967,0,0,1-.745-4.28,2.264,2.264,0,0,1,1.036-2.415" transform="translate(-122.266 -199.432)" fill="#26387a"/>
        <path id="Path_58" data-name="Path 58" d="M281.733,221.233l-.608,6.389,2.1.594a5.914,5.914,0,0,1-4.771,3.356c-7.447.992-12.709-4.729-12.709-4.729l2.486-.481,3.762-11.863" transform="translate(-122.506 -196.656)" fill="#fe9a8d"/>
        <path id="Path_59" data-name="Path 59" d="M273.124,211.337a1.023,1.023,0,0,0-1.035-.978,2.02,2.02,0,0,0-1.4.676c-2.082,2.074.535,7.127,2.59,4.517" transform="translate(-121.735 -197.419)" fill="#fe9a8d"/>
        <path id="Path_60" data-name="Path 60" d="M286.751,217.543c-.334.783-1.654,1.1-2.378,1.175-3.5.387-6.409-1.877-9.763-2.292a1.783,1.783,0,0,0-2.442,2.084,21.905,21.905,0,0,0,.041,2.35,4.521,4.521,0,0,0,.54,1.942c1.513,2.521,6.567,2.946,9.128,2.79a5.353,5.353,0,0,0,2.922-.875c1.154-.869,1.4-2.39,1.834-3.727A7.382,7.382,0,0,0,286.751,217.543Z" transform="translate(-121.325 -196.311)" fill="#26387a"/>
        <path id="Path_61" data-name="Path 61" d="M283.263,219.785a.7.7,0,0,0-.372-.135,34.09,34.09,0,0,1-3.819-.491,1.787,1.787,0,0,0-.65.032,1.331,1.331,0,0,0-.807,1.065.9.9,0,0,0,.555,1.022,5.871,5.871,0,0,0,2.453.535,3.517,3.517,0,0,0,2.3-.411C283.268,221.117,283.777,220.154,283.263,219.785Z" transform="translate(-120.323 -195.8)" fill="#fe9a8d"/>
        <g id="Group_38" data-name="Group 38" transform="translate(0 81.642)">
          <path id="Path_62" data-name="Path 62" d="M292.331,297.8c-40.755-2.132-64.482,18.9-81.333,57.211-21.869,49.716-52.435,53.687-66.2,53.415" transform="translate(-144.795 -262.976)" fill="none" stroke="#ffc840" stroke-linecap="round" stroke-linejoin="round" stroke-width="5"/>
          <path id="Path_63" data-name="Path 63" d="M256.19,305.636c1.5,17.98,16.013,27.7,27.643,26.726l19.078-1.592L298.1,273.109l-19.076,1.59C267.393,275.671,254.689,287.656,256.19,305.636Z" transform="translate(-124.29 -267.498)" fill="#fdae2b"/>
          <path id="Path_64" data-name="Path 64" d="M264.5,305.407c1.465,17.57,13.057,30.944,25.89,29.873l21.049-1.755L306.128,269.9l-21.049,1.755C272.245,272.728,263.03,287.838,264.5,305.407Z" transform="translate(-122.765 -268.089)" fill="#ef8417"/>
          <ellipse id="Ellipse_9" data-name="Ellipse 9" cx="23.317" cy="31.922" rx="23.317" ry="31.922" transform="translate(158.624 3.877) rotate(-4.768)" fill="#ffc840"/>
          <g id="Group_36" data-name="Group 36" transform="translate(181.611 17.568)">
            <g id="Group_34" data-name="Group 34" transform="translate(1.881 22.546)">
              <path id="Path_65" data-name="Path 65" d="M299.754,307.314c.218,2.61,2.178,4.578,4.378,4.395s3.807-2.449,3.59-5.059-2.178-4.58-4.378-4.395S299.537,304.7,299.754,307.314Z" transform="translate(-299.734 -302.243)" fill="#fdae2b"/>
            </g>
            <g id="Group_35" data-name="Group 35">
              <path id="Path_66" data-name="Path 66" d="M298.166,288.276c.218,2.611,2.178,4.578,4.378,4.395s3.807-2.449,3.59-5.059-2.178-4.578-4.378-4.395S297.949,285.665,298.166,288.276Z" transform="translate(-298.146 -283.205)" fill="#fdae2b"/>
            </g>
          </g>
          <g id="Group_37" data-name="Group 37" transform="translate(184.227 16.462)">
            <path id="Path_67" data-name="Path 67" d="M302.4,291.4l29.753-2.481a3.316,3.316,0,0,0,3.009-3.594h0a3.313,3.313,0,0,0-3.562-3.045l-29.754,2.482C299.573,284.955,300.008,291.6,302.4,291.4Z" transform="translate(-300.355 -282.271)" fill="#e2e8ed"/>
            <path id="Path_68" data-name="Path 68" d="M303.992,310.441l29.753-2.481a3.316,3.316,0,0,0,3.009-3.594h0a3.313,3.313,0,0,0-3.562-3.045L303.438,303.8C301.161,303.993,301.6,310.641,303.992,310.441Z" transform="translate(-300.063 -278.763)" fill="#e2e8ed"/>
          </g>
        </g>
        <g id="Group_39" data-name="Group 39" transform="translate(112.916 30.188)">
          <path id="Path_69" data-name="Path 69" d="M241.793,254.882s-1.48,15.078,5.262,27.617c5.765,10.722,17.219,24.6,26.473,32.248l2.223-.541c-3.22-12.359-13.387-34.3-14.019-42.531s-.48-17.761-.632-22.345" transform="translate(-239.862 -220.425)" fill="#ffb288"/>
          <path id="Path_70" data-name="Path 70" d="M270.463,224.923s-13.077.754-20.6,6.435c-13,9.822-10.45,36.2-6.665,49.094s21.993,32.246,27.874,36.414c.964,0,3.8-.239,3.694-2.457-3.252-10.055-12.525-36.5-12.525-36.5l1.465-35.68" transform="translate(-240.141 -224.923)" fill="#3ed9c7"/>
          <path id="Path_71" data-name="Path 71" d="M270.024,302.56a7.9,7.9,0,0,1,3.969,1.754c1.087.849,2.424,2.271,2.284,2.922-.148.683-1.929-.631-2.146-.366s3.049,5.2,2.435,5.568-3.394-4.1-3.394-4.1,2.7,4.775,1.654,4.879c-.874.088-3.269-4.432-3.269-4.432s2.025,4.041,1.332,4.194-2.572-3.873-2.572-3.873,1.529,3.439.941,3.5c-.295.03-1.8-1.68-2.435-3.753-.621-2.038-1.345-3.807-.785-5.4" transform="translate(-235.037 -210.616)" fill="#ffb288"/>
          <path id="Path_72" data-name="Path 72" d="M262.47,284.83c-2.084-6-3.665-10.508-3.665-10.508l2.747-29.947" transform="translate(-236.702 -221.338)" fill="none" stroke="#03aa99" stroke-miterlimit="10" stroke-width="0.5"/>
          <path id="Path_73" data-name="Path 73" d="M240.2,250.517c-.075,8.122.9,18.127,2.986,25.219,1.821,6.208,6.985,13.911,12.507,20.7" transform="translate(-240.13 -220.207)" fill="none" stroke="#03aa99" stroke-miterlimit="10" stroke-width="0.5"/>
        </g>
      </g>
      <path id="Path_93" data-name="Path 93" d="M266.426,219.907l-12.132-9.776s5.455-20.148-1.767-27.185a39.46,39.46,0,0,0-13.716-8.2c-11.163-4.236-24.5-5.2-34.447,1.4-7.339,4.87-11.8,13.217-13.8,21.8-1.757,7.553-1.611,16.137,3.111,22.288a24.2,24.2,0,0,0,8.111,6.458c9.6,5.03,34.988,6.928,46-.454,3.051-2.044,2.783-4.808,4.061-9.126Z" transform="translate(252.78 -76.53)" opacity="0.07"/>
      <text id="Oops_" data-name="Oops!" transform="translate(474.341 130.621)" font-size="19" font-family="OpenSans-Semibold, Open Sans" font-weight="600" letter-spacing="-0.03em" opacity="0.175"><tspan x="-25.305" y="0">Oops!</tspan></text>
    </g>
    <circle id="Ellipse_2680" data-name="Ellipse 2680" cx="5.5" cy="5.5" r="5.5" transform="translate(429 350)" fill="#fec840"/>
    <circle id="Ellipse_2682" data-name="Ellipse 2682" cx="5.5" cy="5.5" r="5.5" transform="translate(943 368)" fill="#fec840"/>
  </g>
</svg>
