<svg xmlns="http://www.w3.org/2000/svg" width="213.588" height="208.147" viewBox="0 0 213.588 208.147">
  <g id="Group_50087" data-name="Group 50087" transform="translate(-717.431 -276.27)">
    <g id="Group_50084" data-name="Group 50084" transform="translate(769.407 276.27)">
      <path id="Path_55018" data-name="Path 55018" d="M626.164,267.5H591.288a5.02,5.02,0,0,1-3.965-1.922h0a5.083,5.083,0,0,1-.952-4.359,88.185,88.185,0,0,0,0-40.957,5.084,5.084,0,0,1,.952-4.359,5.02,5.02,0,0,1,3.965-1.922h34.876a5.084,5.084,0,0,1,5,4.267,147.812,147.812,0,0,1,0,44.986A5.084,5.084,0,0,1,626.164,267.5Z" transform="translate(-536.879 -211.473)" fill="#e6e6e6"/>
      <path id="Path_55019" data-name="Path 55019" d="M594.666,219.978a2.411,2.411,0,0,0-1.9.922,2.475,2.475,0,0,0-.461,2.123,90.821,90.821,0,0,1,0,42.181,2.474,2.474,0,0,0,.461,2.122h0a2.41,2.41,0,0,0,1.9.922h34.876a2.442,2.442,0,0,0,2.409-2.041,145.2,145.2,0,0,0,0-44.189,2.442,2.442,0,0,0-2.409-2.041Z" transform="translate(-540.257 -214.848)" fill="#fff"/>
      <path id="Path_55020" data-name="Path 55020" d="M633.221,240.758h-18.3a2.627,2.627,0,0,1-2.624-2.624v-1.025a2.627,2.627,0,0,1,2.624-2.624h18.3a2.627,2.627,0,0,1,2.624,2.624v1.025A2.627,2.627,0,0,1,633.221,240.758Z" transform="translate(-551.547 -223.011)" fill="#e6e6e6"/>
      <path id="Path_55021" data-name="Path 55021" d="M633.221,270.384h-18.3a2.627,2.627,0,0,1-2.624-2.624v-1.025a2.627,2.627,0,0,1,2.624-2.624h18.3a2.627,2.627,0,0,1,2.624,2.624v1.025A2.627,2.627,0,0,1,633.221,270.384Z" transform="translate(-551.547 -239.679)" fill="#e6e6e6"/>
      <path id="Path_55022" data-name="Path 55022" d="M633.221,300.01h-18.3a2.627,2.627,0,0,1-2.624-2.624V296.36a2.627,2.627,0,0,1,2.624-2.624h18.3a2.627,2.627,0,0,1,2.624,2.624v1.025A2.627,2.627,0,0,1,633.221,300.01Z" transform="translate(-551.547 -256.349)" fill="#e6e6e6"/>
      <path id="Path_55023" data-name="Path 55023" d="M776.164,343.5H741.288a5.02,5.02,0,0,1-3.965-1.922h0a5.083,5.083,0,0,1-.952-4.359,88.187,88.187,0,0,0,0-40.957,5.084,5.084,0,0,1,.952-4.359,5.02,5.02,0,0,1,3.965-1.922h34.876a5.084,5.084,0,0,1,5,4.267,147.81,147.81,0,0,1,0,44.986,5.084,5.084,0,0,1-5,4.267Z" transform="translate(-621.276 -254.233)" fill="#e6e6e6"/>
      <path id="Path_55024" data-name="Path 55024" d="M744.666,295.978a2.411,2.411,0,0,0-1.9.922,2.475,2.475,0,0,0-.461,2.123,90.82,90.82,0,0,1,0,42.181,2.474,2.474,0,0,0,.461,2.122h0a2.41,2.41,0,0,0,1.9.922h34.875a2.442,2.442,0,0,0,2.409-2.041,145.2,145.2,0,0,0,0-44.189,2.442,2.442,0,0,0-2.409-2.041Z" transform="translate(-624.653 -257.61)" fill="#fff"/>
      <path id="Path_55025" data-name="Path 55025" d="M616.883,429.435H582.007a5.238,5.238,0,0,1-4.137-2,5.3,5.3,0,0,1-.993-4.546,87.967,87.967,0,0,0,0-40.855,5.3,5.3,0,0,1,.993-4.546,5.238,5.238,0,0,1,4.137-2h34.876a5.3,5.3,0,0,1,5.219,4.452,148.028,148.028,0,0,1,0,45.053,5.3,5.3,0,0,1-5.219,4.452Z" transform="translate(-531.534 -302.339)" fill="#cbcbcb" opacity="0.34"/>
      <path id="Path_55026" data-name="Path 55026" d="M783.221,331.758h-18.3a2.627,2.627,0,0,1-2.624-2.624v-1.025a2.627,2.627,0,0,1,2.624-2.624h18.3a2.627,2.627,0,0,1,2.624,2.624v1.025A2.627,2.627,0,0,1,783.221,331.758Z" transform="translate(-635.943 -274.211)" fill="#e6e6e6"/>
      <path id="Path_55027" data-name="Path 55027" d="M783.221,361.384h-18.3a2.627,2.627,0,0,1-2.624-2.624v-1.025a2.627,2.627,0,0,1,2.624-2.624h18.3a2.627,2.627,0,0,1,2.624,2.624v1.025A2.627,2.627,0,0,1,783.221,361.384Z" transform="translate(-635.943 -290.879)" fill="#e6e6e6"/>
      <ellipse id="Ellipse_3058" data-name="Ellipse 3058" cx="12.145" cy="12.145" rx="12.145" ry="12.145" transform="translate(55.863 87.791)" fill="#fff"/>
      <path id="Path_55028" data-name="Path 55028" d="M625.891,427.589h-3.519V424.07a1.32,1.32,0,1,0-2.639,0v3.519h-3.519a1.32,1.32,0,0,0,0,2.639h3.519v3.519a1.32,1.32,0,1,0,2.639,0v-3.519h3.519a1.32,1.32,0,0,0,0-2.639Z" transform="translate(-553.044 -328.971)" fill="#1175cb"/>
      <path id="Path_55029" data-name="Path 55029" d="M631.731,215.685H613.362a1.97,1.97,0,0,1-1.968-1.968v-3.5a1.97,1.97,0,0,1,1.968-1.968h18.369a1.97,1.97,0,0,1,1.968,1.968v3.5A1.97,1.97,0,0,1,631.731,215.685Z" transform="translate(-551.04 -208.25)" fill="#ccc"/>
      <path id="Path_55030" data-name="Path 55030" d="M783.731,292.685H765.362a1.97,1.97,0,0,1-1.968-1.968v-3.5a1.97,1.97,0,0,1,1.968-1.968h18.369a1.97,1.97,0,0,1,1.968,1.968v3.5A1.97,1.97,0,0,1,783.731,292.685Z" transform="translate(-636.561 -251.574)" fill="#ccc"/>
      <path id="Path_55043" data-name="Path 55043" d="M508.72,482.936l-32.206-13.381a5.02,5.02,0,0,1-2.924-3.3h0a5.083,5.083,0,0,1,.794-4.391A88.185,88.185,0,0,0,490.1,424.045a5.084,5.084,0,0,1,2.552-3.66,5.02,5.02,0,0,1,4.4-.253l32.206,13.381a5.084,5.084,0,0,1,2.983,5.86,147.811,147.811,0,0,1-17.26,41.543,5.084,5.084,0,0,1-6.257,2.02Z" transform="translate(-473.397 -327.244)" fill="#e6e6e6"/>
      <path id="Path_55044" data-name="Path 55044" d="M499.419,425.933a2.411,2.411,0,0,0-2.113.121,2.475,2.475,0,0,0-1.24,1.783,90.821,90.821,0,0,1-16.184,38.953,2.474,2.474,0,0,0-.389,2.137h0a2.41,2.41,0,0,0,1.4,1.582L513.1,483.89a2.441,2.441,0,0,0,3.008-.961,145.2,145.2,0,0,0,16.955-40.807,2.442,2.442,0,0,0-1.442-2.809Z" transform="translate(-476.775 -330.622)" fill="#fff"/>
      <path id="Path_55045" data-name="Path 55045" d="M540.558,477.537l-16.9-7.022a2.627,2.627,0,0,1-1.416-3.43l.394-.947a2.627,2.627,0,0,1,3.43-1.416l16.9,7.022a2.627,2.627,0,0,1,1.416,3.43l-.393.947A2.627,2.627,0,0,1,540.558,477.537Z" transform="translate(-500.766 -352.439)" fill="#868686"/>
      <path id="Path_55046" data-name="Path 55046" d="M529.191,504.9l-16.9-7.022a2.627,2.627,0,0,1-1.416-3.43l.393-.947a2.627,2.627,0,0,1,3.43-1.416l16.9,7.022a2.627,2.627,0,0,1,1.416,3.43l-.393.947A2.627,2.627,0,0,1,529.191,504.9Z" transform="translate(-494.37 -367.832)" fill="#868686"/>
      <path id="Path_55047" data-name="Path 55047" d="M555.424,437.736a1.965,1.965,0,0,1-.738-.145l-17.03-6.885a1.97,1.97,0,0,1-1.087-2.562l1.312-3.244a1.968,1.968,0,0,1,2.562-1.087l17.03,6.885a1.97,1.97,0,0,1,1.087,2.562l-1.311,3.244A1.973,1.973,0,0,1,555.424,437.736Z" transform="translate(-508.86 -329.454)" fill="#ccc"/>
    </g>
    <g id="Group_50085" data-name="Group 50085" transform="translate(717.431 322.916)">
      <path id="Path_55057" data-name="Path 55057" d="M3205.526,10551.574c-1.812-4.462,1.533,0,1.533,0a11.863,11.863,0,0,1-.689,9.232c-2.5,4.479-8.483,6.286-12.34,5.205s.406-1.479.406-1.479a9.621,9.621,0,0,0,10.58-4.388A10.606,10.606,0,0,0,3205.526,10551.574Z" transform="translate(-3164.885 -10542.543)" fill="#0b4fc2" opacity="0.112"/>
      <path id="Path_55032" data-name="Path 55032" d="M442.552,675.308h10.56a6.729,6.729,0,0,1,6.729,6.73v.218H442.553Z" transform="translate(-405.172 -520.998)" fill="#2f2e41"/>
      <path id="Path_55034" data-name="Path 55034" d="M376.552,675.308h10.56a6.729,6.729,0,0,1,6.729,6.73v.218H376.553Z" transform="translate(-368.037 -520.998)" fill="#2f2e41"/>
      <path id="Path_55035" data-name="Path 55035" d="M376.307,561.477l-4.36-78.174,30.532,7.633L411.9,519.2a30.819,30.819,0,0,1,1.551,11.295l-2.275,30.71-5.052.188-6.975-33.555a16.541,16.541,0,0,0-2.419-6.632l-7.2-11.4a.437.437,0,0,0-.8.179l-7.863,51.44Z" transform="translate(-365.446 -409.653)" fill="#0b4fc2"/>
      <circle id="Ellipse_3059" data-name="Ellipse 3059" cx="10.742" cy="10.742" r="10.742" transform="translate(21.21 2.27)" fill="#fff" stroke="#0b4fc2" stroke-width="1"/>
      <path id="Path_55048" data-name="Path 55048" d="M418.751,690.625H357.52a.437.437,0,1,1,0-.875h61.23a.437.437,0,1,1,0,.875Z" transform="translate(-357.083 -529.124)" fill="#ccc"/>
      <path id="Path_55049" data-name="Path 55049" d="M3246.341,10643.07s11.674,10.387,14.571,20.8-19.782-17.88-19.782-17.88Z" transform="translate(-3203.781 -10598.404)" fill="#fff" stroke="#0b4fc2" stroke-width="1" opacity="0.82"/>
      <path id="Path_55039" data-name="Path 55039" d="M476.592,475.583a2.915,2.915,0,0,1-2.06-1.774,5.4,5.4,0,0,1-.353-3.354L460.914,458.1l4.932-2.631,12.093,12.335c1.364.713,2.133,2.743,1.789,4.727S478.037,475.828,476.592,475.583Z" transform="translate(-414.398 -396.247)" fill="#fff" stroke="#0b4fc2" stroke-width="1"/>
      <path id="Union_118" data-name="Union 118" d="M31.938,58.773h0L1.644,51.006a2.187,2.187,0,0,1-1.6-2.543L7,10.985a13.65,13.65,0,0,1,7.982-9.858,13.171,13.171,0,0,1,12.362.907c.424.265.851.553,1.269.858a13.541,13.541,0,0,1,5.105,7.64l9.2,19.561,10.7,9.046a2.412,2.412,0,0,1,.7,2.673l-1.3,3.5a2.406,2.406,0,0,1-2.255,1.57,2.421,2.421,0,0,1-1.077-.255L36.832,40.193a20.721,20.721,0,0,1-2.394-1.406l.23,17.838a2.19,2.19,0,0,1-2.182,2.217A2.223,2.223,0,0,1,31.938,58.773Z" transform="translate(4.401 25.576)" fill="#fff" stroke="#0b4fc2" stroke-width="1"/>
      <path id="Union_119" data-name="Union 119" d="M2.208,49.566C.214,49.29-.169,48.339.058,47.2L7.046,9.58C8.313,4.292,11.437,1.773,15.567,0,15.567,0,9.131,27.66,2.208,49.566Z" transform="translate(4.96 26.765)" fill="#f1f5f8"/>
      <path id="Path_55054" data-name="Path 55054" d="M4.776,5.085,0,0" transform="matrix(0.719, -0.695, 0.695, 0.719, 58.46, 42.759)" fill="none" stroke="#1175cb" stroke-width="1"/>
      <path id="Path_55055" data-name="Path 55055" d="M0,6.147.873,0" transform="matrix(0.719, -0.695, 0.695, 0.719, 64.785, 33.575)" fill="none" stroke="#1175cb" stroke-width="1"/>
      <path id="Path_55056" data-name="Path 55056" d="M0,6.711.874,0" transform="translate(76.533 31.65) rotate(13)" fill="none" stroke="#1175cb" stroke-width="1"/>
      <path id="Path_55041" data-name="Path 55041" d="M412.547,338.824c.571.25,1.74-4.3,1.216-5.208-.779-1.353-.733-1.343-1.249-2.238a2.6,2.6,0,0,1,.037-2.907,1.53,1.53,0,0,1,2.524.3c-.2-1.875,1.658-3.383,3.5-3.806s3.775-.161,5.623-.538c2.144-.437,4.375-2.235,3.519-4.593a3.321,3.321,0,0,0-.648-1.065,8.191,8.191,0,0,0-3.723-2.045c-2.812-.955-5.7-1.921-8.669-1.816a12.6,12.6,0,0,0-11.129,8.139,11.437,11.437,0,0,0-.474,1.76,11.806,11.806,0,0,0,7.328,12.966Z" transform="translate(-382.85 -314.906)" fill="#0b4fc2"/>
    </g>
  </g>
</svg>
