<svg xmlns="http://www.w3.org/2000/svg" width="79.156" height="83.748" viewBox="0 0 79.156 83.748">
  <g id="Group_47495" data-name="Group 47495" transform="translate(-300.729 -439.61)">
    <g id="Group_46697" data-name="Group 46697" transform="translate(300.729 440.61)">
      <path id="Path_53445" data-name="Path 53445" d="M547.3,538.538a.877.877,0,0,1,.55.6,5.479,5.479,0,0,0,3.232,3.381c.828.309,1.321.87.063,1.384a5.922,5.922,0,0,0-3.207,3.254c-.379.846-.852,1.036-1.225.011a6.061,6.061,0,0,0-3.4-3.405c-.681-.322-.764-.83-.022-1.074a6.282,6.282,0,0,0,3.642-3.678A2.728,2.728,0,0,1,547.3,538.538Z" transform="translate(-542.766 -536.701)" fill="#fd9f27"/>
      <path id="Path_53446" data-name="Path 53446" d="M545.083,538.538a.447.447,0,0,1,.281.308,2.8,2.8,0,0,0,1.65,1.726c.423.158.675.444.032.707a3.025,3.025,0,0,0-1.638,1.661c-.193.432-.435.529-.625.006a3.094,3.094,0,0,0-1.738-1.739c-.348-.165-.39-.424-.011-.548a3.208,3.208,0,0,0,1.86-1.878A1.372,1.372,0,0,1,545.083,538.538Z" transform="translate(-532.183 -539.538)" fill="#fd9f27"/>
      <path id="Path_53447" data-name="Path 53447" d="M544.832,538.538a.4.4,0,0,1,.25.275,2.493,2.493,0,0,0,1.471,1.539c.377.141.6.4.029.63a2.7,2.7,0,0,0-1.46,1.481c-.172.385-.388.472-.558.005a2.758,2.758,0,0,0-1.55-1.55c-.31-.147-.348-.378-.01-.489a2.86,2.86,0,0,0,1.658-1.675A1.22,1.22,0,0,1,544.832,538.538Z" transform="translate(-533.392 -527.226)" fill="#fd9f27"/>
    </g>
    <g id="Group_46693" data-name="Group 46693" transform="translate(371.76 510.362)">
      <path id="Path_53449" data-name="Path 53449" d="M2.765,0A.535.535,0,0,1,3.1.368,3.339,3.339,0,0,0,5.07,2.429c.5.188.8.53.038.844A3.609,3.609,0,0,0,3.154,5.255c-.231.515-.519.631-.746.007A3.693,3.693,0,0,0,.332,3.187c-.415-.2-.466-.506-.013-.654A3.828,3.828,0,0,0,2.538.291,1.665,1.665,0,0,1,2.765,0Z" transform="translate(8.125 7.271) rotate(180)" fill="#fd9f27"/>
      <path id="Path_53451" data-name="Path 53451" d="M1.1,0a.212.212,0,0,1,.133.146,1.327,1.327,0,0,0,.783.819c.2.075.32.211.015.335a1.434,1.434,0,0,0-.777.788c-.092.2-.206.251-.3,0a1.467,1.467,0,0,0-.824-.824c-.165-.078-.185-.2-.005-.26A1.521,1.521,0,0,0,1.008.116.662.662,0,0,1,1.1,0Z" transform="translate(2.284 8.874) rotate(180)" fill="#fd9f27"/>
      <path id="Path_53450" data-name="Path 53450" d="M1.1,0a.212.212,0,0,1,.133.146,1.327,1.327,0,0,0,.783.819c.2.075.32.211.015.335a1.434,1.434,0,0,0-.777.788c-.092.2-.206.251-.3,0a1.467,1.467,0,0,0-.824-.824c-.165-.078-.185-.2-.005-.26A1.521,1.521,0,0,0,1.008.116.662.662,0,0,1,1.1,0Z" transform="translate(2.214 2.259) rotate(180)" fill="#fd9f27"/>
    </g>
    <g id="Group_47491" data-name="Group 47491" transform="translate(318.066 446.851)">
      <g id="Group_47489" data-name="Group 47489" transform="translate(5.175 0)">
        <path id="Path_53444" data-name="Path 53444" d="M-10864.509-957v-61.186l3.967,2.472,3.83-2.472,4.662,2.829,5.36-2.829,4.711,2.829,4.147-2.829,3.666,2.829,4.228-2.829v60.532Z" transform="translate(10864.509 1018.188)" fill="#fd6986" stroke="#000" stroke-linejoin="round" stroke-width="2"/>
      </g>
      <g id="Group_46698" data-name="Group 46698" transform="translate(0 6.934)">
        <path id="Path_53444-2" data-name="Path 53444" d="M-10864.633-967.936v-50.252l3.968,2.03,3.829-2.03,4.663,2.324,5.36-2.324,4.711,2.324,4.146-2.324,3.666,2.324,4.228-2.324v49.715s1.025,10.4-13.313,10.315c-.027.005-28.64,0-28.64,0s-5.979-1.709-5.708-9.777C-10877.682-967.819-10864.633-967.936-10864.633-967.936Z" transform="translate(10877.731 1018.188)" fill="#f2f5f8" stroke="#000" stroke-linejoin="round" stroke-width="2"/>
        <path id="Path_53443" data-name="Path 53443" d="M-10784.312-605.971h17.046s.526,9.578,7.811,9.713" transform="translate(10795.04 656.29)" fill="#d9f9f8" stroke="#000" stroke-linecap="round" stroke-linejoin="round" stroke-width="2"/>
      </g>
      <g id="Group_46699" data-name="Group 46699" transform="translate(19.033 21.864)">
        <g id="Group_46691" data-name="Group 46691" transform="translate(0 0)">
          <line id="Line_776" data-name="Line 776" x2="2.728" transform="translate(0 0)" fill="none" stroke="#000" stroke-linecap="round" stroke-width="2"/>
          <line id="Line_785" data-name="Line 785" x2="2.728" transform="translate(0 17.245)" fill="none" stroke="#000" stroke-linecap="round" stroke-width="2"/>
          <line id="Line_782" data-name="Line 782" x2="2.728" transform="translate(0 8.817)" fill="none" stroke="#000" stroke-linecap="round" stroke-width="2"/>
          <line id="Line_777" data-name="Line 777" x2="14.55" transform="translate(5.911 0)" fill="none" stroke="#000" stroke-linecap="round" stroke-width="2"/>
          <line id="Line_784" data-name="Line 784" x2="14.55" transform="translate(5.911 17.245)" fill="none" stroke="#000" stroke-linecap="round" stroke-width="2"/>
          <line id="Line_783" data-name="Line 783" x2="10.003" transform="translate(5.911 8.817)" fill="none" stroke="#000" stroke-linecap="round" stroke-width="2"/>
        </g>
      </g>
      <path id="Path_53453" data-name="Path 53453" d="M-9519.889,875.846s2.337,7.623,10.949,4.258,7.273-10.485,7.273-10.485-7.058,15.588-18.879,5.378A6.035,6.035,0,0,1-9519.889,875.846Z" transform="translate(9549.337 -814.104)" fill="#116ce1" opacity="0.13"/>
      <g id="Group_47488" data-name="Group 47488" transform="translate(24.737 51.85)">
        <path id="Path_53502" data-name="Path 53502" d="M209.777,342.458A11.354,11.354,0,1,1,198.43,331.11,11.347,11.347,0,0,1,209.777,342.458Z" transform="translate(-186.1 -330.128)" fill="#ffce5d"/>
        <path id="Path_53503" data-name="Path 53503" d="M273.4,342.458a11.354,11.354,0,0,1-13.114,11.209,11.348,11.348,0,0,0,0-22.419,11.354,11.354,0,0,1,13.114,11.21Z" transform="translate(-249.719 -330.128)" fill="#dba72d"/>
        <path id="Path_53509" data-name="Path 53509" d="M242.355,370.968l-2.617-2.617v9.49a.982.982,0,0,1-1.963,0v-9.49l-2.617,2.617a.982.982,0,0,1-1.388-1.388l4.293-4.292a.982.982,0,0,1,1.388,0l4.293,4.292a.982.982,0,0,1-1.388,1.388Z" transform="translate(-226.427 -359.583)"/>
        <path id="Path_53510" data-name="Path 53510" d="M191.909,323.61a12.328,12.328,0,1,0,12.329,12.329A12.343,12.343,0,0,0,191.909,323.61Zm0,22.694a10.365,10.365,0,1,1,10.366-10.365A10.377,10.377,0,0,1,191.909,346.3Z" transform="translate(-179.58 -323.61)"/>
      </g>
    </g>
  </g>
</svg>
