<svg xmlns="http://www.w3.org/2000/svg" width="496.566" height="86.914" viewBox="0 0 496.566 86.914">
  <g id="Group_47552" data-name="Group 47552" transform="translate(-274.445 -451.138)">
    <g id="Group_47493" data-name="Group 47493" transform="translate(-23 14)">
      <g id="Group_47485" data-name="Group 47485" transform="matrix(0.921, 0.391, -0.391, 0.921, 785.25, 507.877)">
        <path id="Path_53449" data-name="Path 53449" d="M3.531,0a.683.683,0,0,1,.428.47A4.264,4.264,0,0,0,6.475,3.1c.644.241,1.028.677.049,1.077a4.609,4.609,0,0,0-2.5,2.533c-.295.658-.663.806-.953.009A4.717,4.717,0,0,0,.425,4.07c-.53-.251-.595-.646-.017-.836A4.89,4.89,0,0,0,3.242.372,2.126,2.126,0,0,1,3.531,0Z" transform="translate(10.376 9.286) rotate(180)" fill="#fd9f27"/>
        <path id="Path_53451" data-name="Path 53451" d="M1.4,0a.271.271,0,0,1,.17.187,1.694,1.694,0,0,0,1,1.046c.256.1.408.269.019.428A1.831,1.831,0,0,0,1.6,2.666c-.117.262-.263.32-.379,0A1.874,1.874,0,0,0,.169,1.617c-.211-.1-.236-.257-.007-.332A1.943,1.943,0,0,0,1.288.148.846.846,0,0,1,1.4,0Z" transform="translate(2.917 11.333) rotate(180)" fill="#fd9f27"/>
        <path id="Path_53450" data-name="Path 53450" d="M1.4,0a.271.271,0,0,1,.17.187,1.694,1.694,0,0,0,1,1.046c.256.1.408.269.019.428A1.831,1.831,0,0,0,1.6,2.666c-.117.262-.263.32-.379,0A1.874,1.874,0,0,0,.169,1.617c-.211-.1-.236-.257-.007-.332A1.943,1.943,0,0,0,1.288.148.846.846,0,0,1,1.4,0Z" transform="translate(2.828 2.886) rotate(180)" fill="#fd9f27"/>
      </g>
      <g id="file-upload" transform="translate(728.384 454.852)">
        <g id="Group_47481" data-name="Group 47481" transform="translate(0.93 0.93)">
          <path id="Path_53497" data-name="Path 53497" d="M67.771,57.98H65.264a1.857,1.857,0,0,1-1.857-1.857V9.357A1.857,1.857,0,0,1,65.264,7.5h39a1.893,1.893,0,0,1,1.893,1.893v7.472Z" transform="translate(-63.407 -7.5)" fill="#ff6986"/>
          <path id="Path_53498" data-name="Path 53498" d="M142,52.546V91.122a1.858,1.858,0,0,1-1.857,1.858h-39.7a1.859,1.859,0,0,1-1.858-1.858V44.357A1.857,1.857,0,0,1,100.45,42.5h31.507L142,52.544Z" transform="translate(-94.228 -38.159)" fill="#f2f5f8"/>
          <path id="Path_53499" data-name="Path 53499" d="M142,52.546V91.122a1.858,1.858,0,0,1-1.857,1.858h-39.7a1.859,1.859,0,0,1-1.858-1.858V89.568h38.33a1.858,1.858,0,0,0,1.857-1.858V52.546h0L131.213,42.5h.744L142,52.544Z" transform="translate(-94.228 -38.159)" fill="#c1eaf4"/>
          <path id="Path_53500" data-name="Path 53500" d="M377.638,52.544H367.592V42.5Z" transform="translate(-329.862 -38.159)" fill="#aec9d6"/>
          <path id="Path_53501" data-name="Path 53501" d="M377.638,52.544h-3.225l-6.821-9.056V42.5Z" transform="translate(-329.862 -38.159)" fill="#8fb2bc"/>
          <path id="Path_53502" data-name="Path 53502" d="M208.59,341.864a10.759,10.759,0,1,1-10.754-10.754A10.753,10.753,0,0,1,208.59,341.864Z" transform="translate(-171.742 -290.971)" fill="#ffce5d"/>
          <path id="Path_53503" data-name="Path 53503" d="M272.71,341.864a10.76,10.76,0,0,1-12.428,10.622,10.754,10.754,0,0,0,0-21.246,10.759,10.759,0,0,1,12.428,10.624Z" transform="translate(-235.863 -290.971)" fill="#dba72d"/>
        </g>
        <g id="Group_47482" data-name="Group 47482" transform="translate(0 0)">
          <path id="Path_53504" data-name="Path 53504" d="M105.271,14.66l-4.751-4.751V2.823A2.826,2.826,0,0,0,97.7,0h-39a2.791,2.791,0,0,0-2.788,2.788V49.553a2.791,2.791,0,0,0,2.788,2.788h1.577v1.553a2.791,2.791,0,0,0,2.788,2.788h6.047a.93.93,0,0,0,0-1.861H63.059a.928.928,0,0,1-.927-.927v-37.4a.93.93,0,1,0-1.861,0V50.48H58.695a.928.928,0,0,1-.927-.927V2.788a.928.928,0,0,1,.927-.927h39a.963.963,0,0,1,.962.962V8.049L95.225,4.614a.93.93,0,0,0-.658-.272H63.059a2.791,2.791,0,0,0-2.788,2.788v5.033a.93.93,0,1,0,1.861,0V7.129a.928.928,0,0,1,.927-.927H93.637v9.114a.93.93,0,0,0,.93.93h9.117V53.894a.928.928,0,0,1-.927.927H96.782a.93.93,0,0,0,0,1.861h5.975a2.791,2.791,0,0,0,2.788-2.788V15.318a.931.931,0,0,0-.272-.658ZM95.5,14.386V7.517l6.87,6.87Z" transform="translate(-55.907 0)"/>
          <path id="Path_53505" data-name="Path 53505" d="M199.753,175.456H177.5a.93.93,0,0,0,0,1.861h22.255a.93.93,0,0,0,0-1.861Z" transform="translate(-161.602 -153.693)"/>
          <path id="Path_53506" data-name="Path 53506" d="M199.753,219.688H177.5a.93.93,0,0,0,0,1.861h22.255a.93.93,0,0,0,0-1.861Z" transform="translate(-161.602 -192.439)"/>
          <path id="Path_53507" data-name="Path 53507" d="M325.87,264.8h-4.4a.93.93,0,1,0,0,1.861h4.4a.93.93,0,1,0,0-1.861Z" transform="translate(-287.719 -231.957)"/>
          <path id="Path_53508" data-name="Path 53508" d="M190.978,266.663a.93.93,0,0,0,0-1.861H177.5a.93.93,0,0,0,0,1.861Z" transform="translate(-161.602 -231.957)"/>
          <path id="Path_53510" data-name="Path 53510" d="M191.264,323.61a11.683,11.683,0,1,0,11.684,11.684A11.7,11.7,0,0,0,191.264,323.61Zm0,21.507a9.823,9.823,0,1,1,9.823-9.823A9.834,9.834,0,0,1,191.264,345.117Z" transform="translate(-164.24 -283.471)"/>
          <g id="Group_41515" data-name="Group 41515" transform="translate(21.823 46.499)">
            <path id="Path_47704" data-name="Path 47704" d="M-376.3-39.651V-29.39" transform="translate(381.433 39.651)" fill="none" stroke="#000" stroke-linecap="round" stroke-width="2"/>
            <path id="Path_47705" data-name="Path 47705" d="M0,0V10.261" transform="translate(0 5.403) rotate(-90)" fill="none" stroke="#000" stroke-linecap="round" stroke-width="2"/>
          </g>
        </g>
      </g>
      <g id="Group_47486" data-name="Group 47486" transform="translate(712.659 438.138)">
        <ellipse id="Oval" cx="3.145" cy="3.106" rx="3.145" ry="3.106" transform="translate(0.18 12.358)" fill="none" stroke="#ef8494" stroke-width="2"/>
        <path id="Rectangle-4" d="M.3,1.432C-.355.139.141-.335,1.409.375L3.1,1.321,5.048.3C6.331-.366,6.785.111,6.066,1.36L5,3.219l1.07,1.859c.722,1.253.294,1.672-.956.934L3.1,4.824,1.328,5.945c-1.222.774-1.686.36-1.03-.94l.9-1.787Z" transform="translate(14.51 0.198) rotate(45)" fill="#ee8494" fill-rule="evenodd"/>
        <path id="Rectangle-4-2" data-name="Rectangle-4" d="M.291,1.407C-.349.139.134-.327,1.373.367l.535.3L2.614.3c1.255-.655,1.7-.2.992,1.038l-.376.653.376.653c.707,1.228.289,1.639-.931.919l-.767-.453-.6.381c-1.2.76-1.657.354-1.014-.918l.294-.582Z" transform="translate(-0.232 -1) rotate(45)" fill="#f8d476" fill-rule="evenodd"/>
      </g>
    </g>
    <g id="Group_47494" data-name="Group 47494" transform="translate(-24.156 14)">
      <g id="Group_47487" data-name="Group 47487" transform="translate(575.713 446.918) rotate(-29)">
        <path id="Path_53449-2" data-name="Path 53449" d="M3.762,0a.727.727,0,0,1,.456.5A4.542,4.542,0,0,0,6.9,3.3c.686.256,1.095.721.052,1.148a4.909,4.909,0,0,0-2.659,2.7c-.314.7-.706.859-1.016.01A5.024,5.024,0,0,0,.452,4.336c-.565-.267-.633-.688-.018-.89A5.208,5.208,0,0,0,3.453.4,2.265,2.265,0,0,1,3.762,0Z" transform="translate(11.053 9.892) rotate(180)" fill="#fd6986"/>
        <path id="Path_53451-2" data-name="Path 53451" d="M1.494,0a.289.289,0,0,1,.181.2A1.8,1.8,0,0,0,2.74,1.313c.273.1.435.286.021.456A1.951,1.951,0,0,0,1.7,2.84c-.125.279-.281.341-.4,0A2,2,0,0,0,.18,1.722c-.224-.106-.252-.273-.007-.354A2.069,2.069,0,0,0,1.372.157.9.9,0,0,1,1.494,0Z" transform="translate(3.108 12.072) rotate(180)" fill="#fd6986"/>
        <path id="Path_53450-2" data-name="Path 53450" d="M1.494,0a.289.289,0,0,1,.181.2A1.8,1.8,0,0,0,2.74,1.313c.273.1.435.286.021.456A1.951,1.951,0,0,0,1.7,2.84c-.125.279-.281.341-.4,0A2,2,0,0,0,.18,1.722c-.224-.106-.252-.273-.007-.354A2.069,2.069,0,0,0,1.372.157.9.9,0,0,1,1.494,0Z" transform="translate(3.013 3.074) rotate(180)" fill="#fd6986"/>
      </g>
      <g id="Group_47483" data-name="Group 47483" transform="translate(136.057 -4.701)">
        <path id="Path_53487" data-name="Path 53487" d="M55.667,244.307H2.756a1.654,1.654,0,0,1,0-3.307H55.667A1.654,1.654,0,0,1,55.667,244.307Z" transform="translate(380.783 245.822)" fill="#fd6986"/>
        <path id="Path_53488" data-name="Path 53488" d="M282.456,244.307H256V241h26.456A1.654,1.654,0,0,1,282.456,244.307Z" transform="translate(153.993 245.822)" fill="#ea3487"/>
        <g id="Group_47479" data-name="Group 47479" transform="translate(381.774 460.257)">
          <path id="Path_53493" data-name="Path 53493" d="M333.643,337.25H328.4a1.654,1.654,0,0,1,0-3.307h5.244a1.3,1.3,0,0,0,1.3-1.3V327.4a1.653,1.653,0,0,1,3.307,0v5.244A4.611,4.611,0,0,1,333.643,337.25Z" transform="translate(-290.739 -289.851)"/>
          <path id="Path_53489" data-name="Path 53489" d="M382.449,14V6.1a2.8,2.8,0,0,0-2.793-2.793h-7.9a1.654,1.654,0,0,1,0-3.307h7.9a6.107,6.107,0,0,1,6.1,6.1V14A1.654,1.654,0,0,1,382.449,14Z" transform="translate(-329.317 0)"/>
          <path id="Path_53490" data-name="Path 53490" d="M379.656,385.756h-7.9a1.653,1.653,0,0,1,0-3.307h7.9a2.8,2.8,0,0,0,2.793-2.793v-7.9a1.654,1.654,0,0,1,3.307,0v7.9A6.107,6.107,0,0,1,379.656,385.756Z" transform="translate(-329.317 -329.317)"/>
          <path id="Path_53491" data-name="Path 53491" d="M0,14V6.1A6.107,6.107,0,0,1,6.1,0H14a1.654,1.654,0,0,1,0,3.307H6.1A2.8,2.8,0,0,0,3.307,6.1V14A1.654,1.654,0,0,1,0,14Z" transform="translate(0 0)"/>
          <path id="Path_53492" data-name="Path 53492" d="M14,385.756H6.1a6.107,6.107,0,0,1-6.1-6.1v-7.9a1.654,1.654,0,0,1,3.307,0v7.9A2.8,2.8,0,0,0,6.1,382.449H14A1.653,1.653,0,0,1,14,385.756Z" transform="translate(0 -329.317)"/>
          <path id="Path_53494" data-name="Path 53494" d="M334.942,89.85V84.606a1.3,1.3,0,0,0-1.3-1.3H328.4a1.654,1.654,0,0,1,0-3.307h5.244a4.611,4.611,0,0,1,4.606,4.606V89.85A1.653,1.653,0,0,1,334.942,89.85Z" transform="translate(-290.739 -71.181)"/>
          <g id="Group_47476" data-name="Group 47476" transform="translate(8.929 8.819)">
            <path id="Path_53495" data-name="Path 53495" d="M81,89.85V84.606A4.611,4.611,0,0,1,85.606,80H90.85a1.654,1.654,0,0,1,0,3.307H85.606a1.3,1.3,0,0,0-1.3,1.3V89.85A1.654,1.654,0,0,1,81,89.85Z" transform="translate(-81 -80)"/>
            <path id="Path_53496" data-name="Path 53496" d="M90.85,337.25H85.606A4.611,4.611,0,0,1,81,332.644V327.4a1.654,1.654,0,0,1,3.307,0v5.244a1.3,1.3,0,0,0,1.3,1.3H90.85A1.654,1.654,0,0,1,90.85,337.25Z" transform="translate(-81 -298.669)"/>
          </g>
        </g>
      </g>
      <ellipse id="Oval-2" data-name="Oval" cx="3.925" cy="3.877" rx="3.925" ry="3.877" transform="translate(498.296 514.431)" fill="none" stroke="#fec84a" stroke-width="2" opacity="0.331"/>
      <path id="Rectangle-4-3" data-name="Rectangle-4" d="M.238,1.143C-.283.111.113-.268,1.124.3l1.348.755L4.028.242c1.025-.535,1.386-.154.812.843L3.986,2.568,4.84,4.052c.576,1,.234,1.334-.763.745L2.472,3.85,1.06,4.744c-.975.618-1.346.287-.822-.75l.72-1.426Z" transform="translate(506 502.773) rotate(45)" fill="#ee8494" fill-rule="evenodd"/>
      <path id="Rectangle-4-4" data-name="Rectangle-4" d="M.238,1.143C-.283.111.113-.268,1.124.3l1.348.755L4.028.242c1.025-.535,1.386-.154.812.843L3.986,2.568,4.84,4.052c.576,1,.234,1.334-.763.745L2.472,3.85,1.06,4.744c-.975.618-1.346.287-.822-.75l.72-1.426Z" transform="translate(514.202 516.833) rotate(45)" fill="#ee8494" fill-rule="evenodd"/>
    </g>
    <g id="Group_47495" data-name="Group 47495" transform="translate(-26.283 14)">
      <g id="Group_46697" data-name="Group 46697" transform="translate(300.729 440.61)">
        <path id="Path_53445" data-name="Path 53445" d="M547.3,538.538a.877.877,0,0,1,.55.6,5.479,5.479,0,0,0,3.232,3.381c.828.309,1.321.87.063,1.384a5.922,5.922,0,0,0-3.207,3.254c-.379.846-.852,1.036-1.225.011a6.061,6.061,0,0,0-3.4-3.405c-.681-.322-.764-.83-.022-1.074a6.282,6.282,0,0,0,3.642-3.678A2.728,2.728,0,0,1,547.3,538.538Z" transform="translate(-542.766 -536.701)" fill="#fd9f27"/>
        <path id="Path_53446" data-name="Path 53446" d="M545.083,538.538a.447.447,0,0,1,.281.308,2.8,2.8,0,0,0,1.65,1.726c.423.158.675.444.032.707a3.025,3.025,0,0,0-1.638,1.661c-.193.432-.435.529-.625.006a3.094,3.094,0,0,0-1.738-1.739c-.348-.165-.39-.424-.011-.548a3.208,3.208,0,0,0,1.86-1.878A1.372,1.372,0,0,1,545.083,538.538Z" transform="translate(-532.183 -539.538)" fill="#fd9f27"/>
        <path id="Path_53447" data-name="Path 53447" d="M544.832,538.538a.4.4,0,0,1,.25.275,2.493,2.493,0,0,0,1.471,1.539c.377.141.6.4.029.63a2.7,2.7,0,0,0-1.46,1.481c-.172.385-.388.472-.558.005a2.758,2.758,0,0,0-1.55-1.55c-.31-.147-.348-.378-.01-.489a2.86,2.86,0,0,0,1.658-1.675A1.22,1.22,0,0,1,544.832,538.538Z" transform="translate(-533.392 -527.226)" fill="#fd9f27"/>
      </g>
      <g id="Group_46693" data-name="Group 46693" transform="translate(371.76 510.362)">
        <path id="Path_53449-3" data-name="Path 53449" d="M2.765,0A.535.535,0,0,1,3.1.368,3.339,3.339,0,0,0,5.07,2.429c.5.188.8.53.038.844A3.609,3.609,0,0,0,3.154,5.255c-.231.515-.519.631-.746.007A3.693,3.693,0,0,0,.332,3.187c-.415-.2-.466-.506-.013-.654A3.828,3.828,0,0,0,2.538.291,1.665,1.665,0,0,1,2.765,0Z" transform="translate(8.125 7.271) rotate(180)" fill="#fd9f27"/>
        <path id="Path_53451-3" data-name="Path 53451" d="M1.1,0a.212.212,0,0,1,.133.146,1.327,1.327,0,0,0,.783.819c.2.075.32.211.015.335a1.434,1.434,0,0,0-.777.788c-.092.2-.206.251-.3,0a1.467,1.467,0,0,0-.824-.824c-.165-.078-.185-.2-.005-.26A1.521,1.521,0,0,0,1.008.116.662.662,0,0,1,1.1,0Z" transform="translate(2.284 8.874) rotate(180)" fill="#fd9f27"/>
        <path id="Path_53450-3" data-name="Path 53450" d="M1.1,0a.212.212,0,0,1,.133.146,1.327,1.327,0,0,0,.783.819c.2.075.32.211.015.335a1.434,1.434,0,0,0-.777.788c-.092.2-.206.251-.3,0a1.467,1.467,0,0,0-.824-.824c-.165-.078-.185-.2-.005-.26A1.521,1.521,0,0,0,1.008.116.662.662,0,0,1,1.1,0Z" transform="translate(2.214 2.259) rotate(180)" fill="#fd9f27"/>
      </g>
      <g id="Group_47491" data-name="Group 47491" transform="translate(318.066 446.851)">
        <g id="Group_47489" data-name="Group 47489" transform="translate(5.175 0)">
          <path id="Path_53444" data-name="Path 53444" d="M-10864.509-957v-61.186l3.967,2.472,3.83-2.472,4.662,2.829,5.36-2.829,4.711,2.829,4.147-2.829,3.666,2.829,4.228-2.829v60.532Z" transform="translate(10864.509 1018.188)" fill="#fd6986" stroke="#000" stroke-linejoin="round" stroke-width="2"/>
        </g>
        <g id="Group_46698" data-name="Group 46698" transform="translate(0 6.934)">
          <path id="Path_53444-2" data-name="Path 53444" d="M-10864.633-967.936v-50.252l3.968,2.03,3.829-2.03,4.663,2.324,5.36-2.324,4.711,2.324,4.146-2.324,3.666,2.324,4.228-2.324v49.715s1.025,10.4-13.313,10.315c-.027.005-28.64,0-28.64,0s-5.979-1.709-5.708-9.777C-10877.682-967.819-10864.633-967.936-10864.633-967.936Z" transform="translate(10877.731 1018.188)" fill="#f2f5f8" stroke="#000" stroke-linejoin="round" stroke-width="2"/>
          <path id="Path_53443" data-name="Path 53443" d="M-10784.312-605.971h17.046s.526,9.578,7.811,9.713" transform="translate(10795.04 656.29)" fill="#d9f9f8" stroke="#000" stroke-linecap="round" stroke-linejoin="round" stroke-width="2"/>
        </g>
        <g id="Group_46699" data-name="Group 46699" transform="translate(19.033 21.864)">
          <g id="Group_46691" data-name="Group 46691" transform="translate(0 0)">
            <line id="Line_776" data-name="Line 776" x2="2.728" transform="translate(0 0)" fill="none" stroke="#000" stroke-linecap="round" stroke-width="2"/>
            <line id="Line_785" data-name="Line 785" x2="2.728" transform="translate(0 17.245)" fill="none" stroke="#000" stroke-linecap="round" stroke-width="2"/>
            <line id="Line_782" data-name="Line 782" x2="2.728" transform="translate(0 8.817)" fill="none" stroke="#000" stroke-linecap="round" stroke-width="2"/>
            <line id="Line_777" data-name="Line 777" x2="14.55" transform="translate(5.911 0)" fill="none" stroke="#000" stroke-linecap="round" stroke-width="2"/>
            <line id="Line_784" data-name="Line 784" x2="14.55" transform="translate(5.911 17.245)" fill="none" stroke="#000" stroke-linecap="round" stroke-width="2"/>
            <line id="Line_783" data-name="Line 783" x2="10.003" transform="translate(5.911 8.817)" fill="none" stroke="#000" stroke-linecap="round" stroke-width="2"/>
          </g>
        </g>
        <path id="Path_53453" data-name="Path 53453" d="M-9519.889,875.846s2.337,7.623,10.949,4.258,7.273-10.485,7.273-10.485-7.058,15.588-18.879,5.378A6.035,6.035,0,0,1-9519.889,875.846Z" transform="translate(9549.337 -814.104)" fill="#116ce1" opacity="0.13"/>
        <g id="Group_47488" data-name="Group 47488" transform="translate(24.737 51.85)">
          <path id="Path_53502-2" data-name="Path 53502" d="M209.777,342.458A11.354,11.354,0,1,1,198.43,331.11,11.347,11.347,0,0,1,209.777,342.458Z" transform="translate(-186.1 -330.128)" fill="#ffce5d"/>
          <path id="Path_53503-2" data-name="Path 53503" d="M273.4,342.458a11.354,11.354,0,0,1-13.114,11.209,11.348,11.348,0,0,0,0-22.419,11.354,11.354,0,0,1,13.114,11.21Z" transform="translate(-249.719 -330.128)" fill="#dba72d"/>
          <path id="Path_53509" data-name="Path 53509" d="M242.355,370.968l-2.617-2.617v9.49a.982.982,0,0,1-1.963,0v-9.49l-2.617,2.617a.982.982,0,0,1-1.388-1.388l4.293-4.292a.982.982,0,0,1,1.388,0l4.293,4.292a.982.982,0,0,1-1.388,1.388Z" transform="translate(-226.427 -359.583)"/>
          <path id="Path_53510-2" data-name="Path 53510" d="M191.909,323.61a12.328,12.328,0,1,0,12.329,12.329A12.343,12.343,0,0,0,191.909,323.61Zm0,22.694a10.365,10.365,0,1,1,10.366-10.365A10.377,10.377,0,0,1,191.909,346.3Z" transform="translate(-179.58 -323.61)"/>
        </g>
      </g>
    </g>
  </g>
</svg>
