<svg xmlns="http://www.w3.org/2000/svg" width="50" height="50" viewBox="0 0 14 15.999">
  <path id="Union_72" data-name="Union 72" d="M1,16a1,1,0,0,1-1-1V3.388a1,1,0,0,1,1-1h.866v.866a1.283,1.283,0,0,0,2.567,0V2.389H9.8v.866a1.283,1.283,0,1,0,2.567,0V2.389H13a1,1,0,0,1,1,1V15a1,1,0,0,1-1,1Zm.167-1.193H12.834V5.731H1.166Zm8.4-1.194V11.94h2.1v1.671Zm-3.5,0V11.94h2.1v1.671Zm-3.5,0V11.94h2.1v1.671Zm7-2.388V9.552h2.1v1.672Zm-3.5,0V9.552h2.1v1.672Zm-3.5,0V9.552h2.1v1.672Zm7-2.389V7.164h2.1V8.835Zm-3.5,0V7.164h2.1V8.835Zm-3.5,0V7.164h2.1V8.835ZM10.5,3V.583a.583.583,0,1,1,1.166,0V3A.583.583,0,1,1,10.5,3ZM2.567,3V.583a.583.583,0,1,1,1.166,0V3A.583.583,0,1,1,2.567,3Z" fill="#0a4d82"/>
</svg>
