<svg id="qr-code_2_" data-name="qr-code (2)" xmlns="http://www.w3.org/2000/svg" width="15.954" height="15.954" viewBox="0 0 15.954 15.954">
  <path id="Path_53514" data-name="Path 53514" d="M372.7,0h-2.233a.467.467,0,1,0,0,.935H372.7a.791.791,0,0,1,.79.79V3.957a.467.467,0,1,0,.935,0V1.724A1.726,1.726,0,0,0,372.7,0Z" transform="translate(-358.471 0)"/>
  <path id="Path_53515" data-name="Path 53515" d="M.467,4.425a.467.467,0,0,0,.467-.467V1.724a.791.791,0,0,1,.79-.79H3.957a.467.467,0,0,0,0-.935H1.724A1.726,1.726,0,0,0,0,1.724V3.957a.467.467,0,0,0,.467.467Z" transform="translate(0 0)"/>
  <path id="Path_53516" data-name="Path 53516" d="M3.957,373.49H1.724a.791.791,0,0,1-.79-.79v-2.233a.467.467,0,1,0-.935,0V372.7a1.726,1.726,0,0,0,1.724,1.724H3.957a.467.467,0,1,0,0-.935Z" transform="translate(0 -358.471)"/>
  <path id="Path_53517" data-name="Path 53517" d="M373.957,370a.467.467,0,0,0-.467.467V372.7a.791.791,0,0,1-.79.79h-2.233a.467.467,0,1,0,0,.935H372.7a1.726,1.726,0,0,0,1.724-1.724v-2.233A.467.467,0,0,0,373.957,370Z" transform="translate(-358.471 -358.471)"/>
  <path id="Path_53518" data-name="Path 53518" d="M327.11,80.935h1.482a.368.368,0,0,1,.367.367v1.482a.467.467,0,1,0,.935,0V81.3a1.3,1.3,0,0,0-1.3-1.3H327.11a.467.467,0,1,0,0,.935Z" transform="translate(-316.465 -77.507)"/>
  <path id="Path_53519" data-name="Path 53519" d="M81,81.3v1.482a.467.467,0,1,0,.935,0V81.3a.368.368,0,0,1,.367-.367h1.482a.467.467,0,0,0,0-.935H82.3A1.3,1.3,0,0,0,81,81.3Z" transform="translate(-78.476 -77.507)"/>
  <path id="Path_53520" data-name="Path 53520" d="M83.784,327.961H82.3a.368.368,0,0,1-.367-.367v-1.482a.467.467,0,1,0-.935,0v1.482a1.3,1.3,0,0,0,1.3,1.3h1.482a.467.467,0,0,0,0-.935Z" transform="translate(-78.476 -315.497)"/>
  <path id="Path_53521" data-name="Path 53521" d="M329.895,327.594v-1.482a.467.467,0,1,0-.935,0v1.482a.368.368,0,0,1-.367.367H327.11a.467.467,0,0,0,0,.935h1.483A1.3,1.3,0,0,0,329.895,327.594Z" transform="translate(-316.465 -315.497)"/>
  <path id="Path_53522" data-name="Path 53522" d="M1,241.467a.467.467,0,0,0,.467.467H16.424a.467.467,0,1,0,0-.935H1.467A.467.467,0,0,0,1,241.467Z" transform="translate(-0.969 -233.49)"/>
</svg>
