<svg xmlns="http://www.w3.org/2000/svg" height="50px" width="50px" viewBox="0 0 8.35 8.353">
  <g id="Group_41936" data-name="Group 41936" transform="translate(-327.711 -446)">
    <path id="Shape_1_copy_9" data-name="Shape 1 copy 9" d="M.316,3.432H.229l-.005,0h0l-.006,0h0a.313.313,0,0,1-.1-.056h0l-.006,0h0l0,0,0,0,0,0L.093,3.339.087,3.334l0,0,0,0,0,0h0l0-.005h0A.315.315,0,0,1,0,3.107V.716a.316.316,0,1,1,.632,0V2.352L2.891.093A.316.316,0,0,1,3.338.54L1.08,2.8H2.715a.316.316,0,0,1,0,.632Z" transform="translate(327.711 450.921)" fill="#00b190"/>
    <path id="Shape_1_copy_9-2" data-name="Shape 1 copy 9" d="M.093,3.34a.317.317,0,0,1,0-.448L2.351.633H.716A.316.316,0,0,1,.716,0h2.4a.314.314,0,0,1,.16.044h0l0,0,0,0h0l.005,0h0A.315.315,0,0,1,3.43.316s0,.006,0,.008V2.716a.316.316,0,1,1-.632,0V1.08L.54,3.34a.316.316,0,0,1-.447,0Z" transform="translate(332.63 446)" fill="#00b190"/>
  </g>
</svg>
