<?xml version="1.0" encoding="utf-8"?>
<!-- Generator: Adobe Illustrator 23.0.0, SVG Export Plug-In . SVG Version: 6.00 Build 0)  -->
<svg version="1.1" id="Layer_1" width="50px" height="50px" xmlns="http://www.w3.org/2000/svg" xmlns:xlink="http://www.w3.org/1999/xlink" x="0px" y="0px"
	 viewBox="0 0 24.8 14.6" style="enable-background:new 0 0 24.8 14.6;" xml:space="preserve">
<g id="view" transform="translate(0.799 0.75)">
	<g id="Ellipse_26">
		<path d="M11.6,10.8c-2.4,0-4.3-1.9-4.3-4.3c0-2.4,1.9-4.3,4.3-4.3s4.3,1.9,4.3,4.3C15.9,8.9,14,10.8,11.6,10.8z M11.6,3.8
			c-1.5,0-2.8,1.2-2.8,2.8c0,1.5,1.2,2.8,2.8,2.8s2.8-1.2,2.8-2.8C14.4,5,13.1,3.8,11.6,3.8z"/>
	</g>
	<g id="Path_51">
		<path d="M11.6,13.8c-5.9,0-10.7-5-12-6.5c-0.4-0.5-0.4-1.2,0-1.7c1.3-1.5,6.2-6.5,12-6.5c5.9,0,10.7,5,12,6.5c0,0,0,0,0,0
			c0.4,0.5,0.4,1.2,0,1.6C22.3,8.9,17.5,13.8,11.6,13.8z M0.8,6.6c1.4,1.6,5.7,5.8,10.8,5.8c5,0,9.3-4.2,10.8-5.8
			C20.9,5,16.6,0.8,11.6,0.8C6.6,0.8,2.2,5,0.8,6.6z"/>
	</g>
</g>
</svg>
