<?xml version="1.0" encoding="utf-8"?>
<!-- Generator: Adobe Illustrator 24.3.0, SVG Export Plug-In . SVG Version: 6.00 Build 0)  -->
<svg version="1.1" id="Layer_1" xmlns="http://www.w3.org/2000/svg" xmlns:xlink="http://www.w3.org/1999/xlink" x="0px" y="0px"
	 viewBox="0 0 14.1 15.7" style="enable-background:new 0 0 14.1 15.7;" xml:space="preserve">
<path id="download_3_" d="M14.1,13.1v2.1c0,0.3-0.2,0.6-0.6,0.6h-13c-0.3,0-0.6-0.2-0.6-0.6v-2.1c0-0.3,0.2-0.6,0.5-0.6
	c0.3,0,0.6,0.2,0.6,0.5c0,0,0,0,0,0.1v1.5H13v-1.5c0-0.3,0.2-0.6,0.5-0.6S14.1,12.7,14.1,13.1C14.1,13,14.1,13.1,14.1,13.1
	L14.1,13.1z M6.7,11.9c0.2,0.2,0.6,0.2,0.8,0l3.1-3.1c0.2-0.2,0.2-0.6,0-0.8c-0.2-0.2-0.6-0.2-0.8,0c0,0,0,0,0,0l-2.2,2.2V0.6
	C7.6,0.2,7.3,0,7,0c-0.3,0-0.5,0.2-0.5,0.5v9.6L4.3,8C4.1,7.7,3.8,7.8,3.5,8c-0.2,0.2-0.2,0.5,0,0.8L6.7,11.9z"/>
</svg>
