<svg xmlns="http://www.w3.org/2000/svg" width="13.989" height="10" viewBox="0 0 13.989 10">
  <g id="meal_1_" data-name="meal (1)" transform="translate(0 -73)">
    <g id="Group_47708" data-name="Group 47708" transform="translate(0 73)">
      <g id="Group_47704" data-name="Group 47704" transform="translate(0 7.432)">
        <path id="Path_53604" data-name="Path 53604" d="M12.76,347.568H1.23A1.231,1.231,0,0,1,0,346.339v-.109A1.231,1.231,0,0,1,1.23,345H12.76a1.231,1.231,0,0,1,1.23,1.23v.109A1.231,1.231,0,0,1,12.76,347.568ZM1.23,345.82a.41.41,0,0,0-.41.41v.109a.41.41,0,0,0,.41.41H12.76a.41.41,0,0,0,.41-.41v-.109a.41.41,0,0,0-.41-.41Z" transform="translate(0 -345)" fill="#7BA0FC"/>
      </g>
      <g id="Group_47705" data-name="Group 47705" transform="translate(4.836)">
        <path id="Path_53605" data-name="Path 53605" d="M180.907,73.82h-3.5a.41.41,0,1,1,0-.82h3.5a.41.41,0,1,1,0,.82Z" transform="translate(-177 -73)" fill="#7BA0FC"/>
      </g>
      <g id="Group_47706" data-name="Group 47706" transform="translate(5.71)">
        <path id="Path_53606" data-name="Path 53606" d="M211.158,75.568H209.41a.41.41,0,0,1-.41-.41V73.41a.41.41,0,0,1,.41-.41h1.749a.41.41,0,0,1,.41.41v1.749A.41.41,0,0,1,211.158,75.568Zm-1.339-.82h.929V73.82h-.929Z" transform="translate(-209 -73)" fill="#7BA0FC"/>
      </g>
      <g id="Group_47707" data-name="Group 47707" transform="translate(0.902 1.749)">
        <path id="Path_53607" data-name="Path 53607" d="M44.776,143.5H33.41a.41.41,0,0,1-.41-.41,6.093,6.093,0,1,1,12.186,0A.41.41,0,0,1,44.776,143.5Zm-10.941-.82H44.35a5.273,5.273,0,0,0-10.515,0Z" transform="translate(-33 -137)" fill="#7BA0FC"/>
      </g>
    </g>
  </g>
</svg>
