<svg xmlns="http://www.w3.org/2000/svg" width="11.902" height="13.844" viewBox="0 0 11.902 13.844">
  <g id="Group_50316" data-name="Group 50316" transform="translate(3297.023 -5023)">
    <path id="Path_57790" data-name="Path 57790" d="M13.825,6.735h0L11.211.171a.272.272,0,0,0-.353-.152h0L.254,4.242a.266.266,0,0,0-.109.086A.269.269,0,0,0,0,4.564V11.63a.272.272,0,0,0,.272.272H11.686a.272.272,0,0,0,.272-.272V7.771l1.715-.683A.272.272,0,0,0,13.825,6.735Zm-2.411,4.624H.544V4.836H11.414ZM4.534,4.294l4.55-1.813a2.162,2.162,0,0,0,1.558.672L11.1,4.294Zm7.423,2.893V4.564a.272.272,0,0,0-.272-.272h0l-.576-1.446a.225.225,0,0,0-.022-.034A.268.268,0,0,0,10.8,2.6a1.625,1.625,0,0,1-1.425-.614.269.269,0,0,0-.349-.061l-.038.007L3.432,4.147a.268.268,0,0,0-.149.145H1.6L10.807.625,13.22,6.684Z" transform="translate(-3297.023 5036.844) rotate(-90)"/>
    <path id="Path_57791" data-name="Path 57791" d="M.194,4.144a1.625,1.625,0,0,1,1.1,1.1.272.272,0,0,0,.26.194.249.249,0,0,0,.042-.006l.037.008H8.153l.033-.007a.253.253,0,0,0,.306-.186h0a1.625,1.625,0,0,1,1.1-1.1.268.268,0,0,0,.186-.3.274.274,0,0,0,.008-.04V1.631a.245.245,0,0,0-.008-.04.268.268,0,0,0-.186-.3,1.623,1.623,0,0,1-1.1-1.1.268.268,0,0,0-.3-.186A.253.253,0,0,0,8.153,0H1.631a.256.256,0,0,0-.04.008.269.269,0,0,0-.3.186,1.625,1.625,0,0,1-1.1,1.1.268.268,0,0,0-.186.3A.275.275,0,0,0,0,1.631V3.8a.251.251,0,0,0,.008.038A.269.269,0,0,0,.194,4.144Zm.349-2.4a2.157,2.157,0,0,0,1.2-1.2h6.3a2.157,2.157,0,0,0,1.2,1.2V3.694a2.159,2.159,0,0,0-1.2,1.2h-6.3a2.159,2.159,0,0,0-1.2-1.2Z" transform="translate(-3291.644 5035.757) rotate(-90)"/>
    <path id="Path_57792" data-name="Path 57792" d="M1.631,3.261A1.631,1.631,0,1,0,0,1.631,1.631,1.631,0,0,0,1.631,3.261Zm0-2.718A1.087,1.087,0,1,1,.544,1.631,1.087,1.087,0,0,1,1.631.544Z" transform="translate(-3290.557 5032.496) rotate(-90)"/>
    <path id="Union_132" data-name="Union 132" d="M0,6.5A.5.5,0,1,1,.5,7,.5.5,0,0,1,0,6.5Zm0-6A.5.5,0,1,1,.5,1,.5.5,0,0,1,0,.5Z" transform="translate(-3289.86 5028)"/>
  </g>
</svg>
