<svg xmlns="http://www.w3.org/2000/svg" width="50" height="50" viewBox="0 0 14 15.722">
  <g id="attach" transform="translate(-28.042 0)">
    <g id="Group_46617" data-name="Group 46617" transform="translate(28.042 0)">
      <path id="Path_53432" data-name="Path 53432" d="M40.9,1.145a3.921,3.921,0,0,0-5.539,0L29.526,6.977a.461.461,0,0,0,.652.652L36.009,1.8a3.068,3.068,0,0,1,4.236,0,3,3,0,0,1,0,4.235L32.1,14.267a1.887,1.887,0,0,1-2.606,0,1.845,1.845,0,0,1,0-2.606l7.817-7.91a.708.708,0,0,1,.977,0,.692.692,0,0,1,0,.978L30.8,12.312a.514.514,0,0,0,0,.652.461.461,0,0,0,.652,0L38.941,5.38a1.614,1.614,0,0,0,0-2.281,1.652,1.652,0,0,0-2.28,0l-7.817,7.909a2.783,2.783,0,0,0,0,3.909,2.779,2.779,0,0,0,3.91,0L40.9,6.683A3.92,3.92,0,0,0,40.9,1.145Z" transform="translate(-28.042 0)"/>
    </g>
  </g>
</svg>
