<svg xmlns="http://www.w3.org/2000/svg" width="54.845" height="54.41" viewBox="0 0 54.845 54.41">
  <g id="Group_47409" data-name="Group 47409" transform="translate(0 -22.097)">
    <path id="Path_53353" data-name="Path 53353" d="M0,52.16c.622-1.64,1.442-3.781,2.049-5.427a1.884,1.884,0,0,0,.116-.922c-.24-1.65-.456-3.3-.732-4.947a2.358,2.358,0,0,1,.739-2.235c.761-.718,1.545-1.416,2.366-2.063a6.726,6.726,0,0,0,2.571-3.692c.276-1.095.734-2.144,1.1-3.215a2.254,2.254,0,0,1,1.636-1.523c1.117-.293,2.233-.6,3.367-.809a6.349,6.349,0,0,0,3.669-1.982c.8-.864,1.732-1.6,2.594-2.41a2.325,2.325,0,0,1,2.185-.513c.674.135,1.338.322,2,.5,1.8.477,3.584,1.037,5.47.268,1.194-.434,2.442-.573,3.6-1.09h.67a7.889,7.889,0,0,1,1.5.922c.931.861,1.915,1.667,2.838,2.536a4.562,4.562,0,0,0,2.386,1.222c1.375.252,2.728.622,4.1.914a2.38,2.38,0,0,1,1.847,1.64c.514,1.4,1.075,2.775,1.6,4.169A3.455,3.455,0,0,0,48.737,35q1.779,1.465,3.529,2.965a2.281,2.281,0,0,1,.86,2.127q-.272,2.081-.51,4.167a3.656,3.656,0,0,0,.027,1.727c.7,1.789,1.463,3.553,2.2,5.327v.938c-1.1,1.613-2.2,3.223-3.3,4.84a3.014,3.014,0,0,0-.458,1.444c-.14,1.529-.28,3.059-.435,4.587A2.276,2.276,0,0,1,49.4,65.04c-1.323.687-2.629,1.407-3.957,2.085a3.878,3.878,0,0,0-1.571,1.4c-.776,1.222-1.6,2.414-2.375,3.636a2.614,2.614,0,0,1-2.411,1.267c-1.45-.014-2.9.017-4.351-.012a3.559,3.559,0,0,0-1.842.482c-1.607.885-3.173,1.846-4.845,2.61h-.67c-1.572-.815-3.152-1.612-4.71-2.452a3.912,3.912,0,0,0-2.106-.485c-1.447.067-2.9.082-4.344.123A2.458,2.458,0,0,1,13.968,72.5c-.717-1.074-1.492-2.11-2.188-3.2a4.9,4.9,0,0,0-2.229-1.926c-1.221-.535-2.4-1.162-3.6-1.75a2.273,2.273,0,0,1-1.375-1.9c-.153-1.413-.338-2.823-.535-4.231a3.962,3.962,0,0,0-.6-1.881C2.293,56.017,1.009,53.86,0,52.16M23.3,59.6c.152-.139.287-.255.412-.38q1.587-1.585,3.17-3.172,5.961-5.967,11.931-11.926c.369-.367.416-.588.01-.938A10.353,10.353,0,0,1,37.6,41.947c-.366-.442-.587-.374-.972.014-4.259,4.3-8.547,8.564-12.805,12.862-.406.41-.6.368-.979-.014-2-2.039-4.044-4.038-6.039-6.083-.4-.413-.616-.389-.967.022a14.752,14.752,0,0,1-1.369,1.377c-.292.263-.257.418.005.679Q18.75,55.056,23,59.328C23.094,59.418,23.193,59.5,23.3,59.6Z" fill="#00ce97"/>
  </g>
</svg>
