<svg xmlns="http://www.w3.org/2000/svg" width="14.309" height="14.308" viewBox="0 0 14.309 14.308">
  <path id="Path_53948" data-name="Path 53948" d="M317.208,395.408h-10.22a2.046,2.046,0,0,0-2.044,2.044v10.22a2.046,2.046,0,0,0,2.044,2.044h10.22a2.046,2.046,0,0,0,2.044-2.044v-10.22A2.046,2.046,0,0,0,317.208,395.408Zm1.022,12.264a1.022,1.022,0,0,1-1.022,1.022h-10.22a1.023,1.023,0,0,1-1.022-1.022v-10.22a1.024,1.024,0,0,1,1.022-1.022h10.22a1.023,1.023,0,0,1,1.022,1.022Z" transform="translate(-304.943 -395.408)" fill="#9e9e9e"/>
</svg>
