<svg xmlns="http://www.w3.org/2000/svg" width="50" height="50" viewBox="0 0 18.896 15.921">
  <g id="Group_46702" data-name="Group 46702" transform="translate(-529.738 -484.74)">
    <path id="Path_53477" data-name="Path 53477" d="M548.572,486.508a1.575,1.575,0,0,0-.755-.949l-1.124-.623a1.591,1.591,0,0,0-2.152.618l-1.148,2.071-4.77,8.606a.494.494,0,0,0-.058.215c0,.006,0,.011,0,.018l-.072,3.687a.5.5,0,0,0,.773.429l3.09-2.013a.5.5,0,0,0,.138-.148c.008-.011.021-.016.029-.029l0-.007,4.765-8.6h0l1.149-2.069A1.578,1.578,0,0,0,548.572,486.508Zm-9.028,10.8,1.567.869-1.6,1.045Zm2.341.154-2.145-1.189,4.285-7.731,2.143,1.188Zm5.675-10.239-.906,1.633-2.144-1.188.9-1.633a.591.591,0,0,1,.8-.229l1.122.622a.586.586,0,0,1,.228.795Z" fill="#1175cb"/>
    <rect id="Rectangle_3349" data-name="Rectangle 3349" width="2" height="2" transform="translate(529.738 500.261) rotate(-89.287)" fill="#1175cb"/>
    <path id="Path_53478" data-name="Path 53478" d="M533.778,500.311l1.959.024.024-2-2-.024Z" fill="#1175cb"/>
  </g>
</svg>
