<svg xmlns="http://www.w3.org/2000/svg" width="14" height="14" viewBox="0 0 14 14">
  <path id="Subtraction_269" data-name="Subtraction 269" d="M7,14a7,7,0,1,1,7-7A7.008,7.008,0,0,1,7,14ZM6.989,9.851a.973.973,0,1,0,.968.973A.974.974,0,0,0,6.989,9.851ZM6.984,3a.978.978,0,0,0-.24.03A1.063,1.063,0,0,0,5.992,4.09c.013.158.024.317.035.476s.021.3.033.448c.045.8.091,1.6.138,2.4q.032.542.063,1.088a.713.713,0,0,0,.709.684h.015a.729.729,0,0,0,.727-.708,6.962,6.962,0,0,1,.024-.707c.025-.483.055-.971.084-1.443V6.318q.025-.4.048-.8c.01-.267.029-.538.047-.8.015-.216.03-.44.041-.66a1.238,1.238,0,0,0-.087-.486A.973.973,0,0,0,6.984,3Z" fill="#fd6262"/>
</svg>
