<?xml version="1.0" encoding="utf-8"?>
<!-- Generator: Adobe Illustrator 23.0.0, SVG Export Plug-In . SVG Version: 6.00 Build 0)  -->
<svg version="1.1" id="Layer_1" width="50px" height="50px" xmlns="http://www.w3.org/2000/svg" xmlns:xlink="http://www.w3.org/1999/xlink" x="0px" y="0px"
	 viewBox="0 0 24.7 21.8" style="enable-background:new 0 0 24.7 21.8;" xml:space="preserve">
<g id="view-off" transform="translate(0.25 -1.189)">
	<g id="Path_47728">
		<path d="M12.1,19.4c-1.1,0-2.2-0.2-3.2-0.5c-0.4-0.1-0.6-0.5-0.5-0.9s0.5-0.6,0.9-0.5c0.9,0.3,1.9,0.4,2.8,0.4
			c5,0,9.3-4.3,10.6-5.8c-1-1.2-2.2-2.2-3.5-3.1c-0.3-0.2-0.4-0.7-0.2-1s0.7-0.4,1-0.2c1.5,1.1,2.9,2.4,4.1,3.9
			c0.2,0.3,0.2,0.7,0,0.9S18.8,19.4,12.1,19.4z"/>
	</g>
	<g id="Path_47729">
		<path d="M4.5,16.5c-0.2,0-0.3,0-0.4-0.1c-1.5-1.1-2.9-2.4-4.1-3.9c-0.2-0.3-0.2-0.7,0-0.9c0.2-0.3,5.5-6.8,12.2-6.8
			c0.9,0,1.8,0.1,2.7,0.4c0.4,0.1,0.6,0.5,0.5,0.9s-0.5,0.6-0.9,0.5c-0.8-0.2-1.5-0.3-2.3-0.3c-5,0-9.3,4.3-10.6,5.8
			c1,1.2,2.2,2.2,3.5,3.1c0.3,0.2,0.4,0.7,0.2,1C5,16.4,4.7,16.5,4.5,16.5z"/>
	</g>
	<g id="Path_47730">
		<path d="M8.1,12.8c-0.4,0-0.8-0.3-0.8-0.8c0-2.6,2.1-4.8,4.8-4.8c0.4,0,0.8,0.3,0.8,0.8s-0.3,0.8-0.8,0.8c-1.8,0-3.3,1.5-3.3,3.3
			C8.8,12.5,8.5,12.8,8.1,12.8z"/>
	</g>
	<g id="Path_47731">
		<path d="M12.1,16.9c-0.4,0-0.8-0.3-0.8-0.8c0-0.4,0.3-0.7,0.8-0.7c1.8,0,3.3-1.5,3.3-3.3c0-0.4,0.3-0.8,0.8-0.8s0.8,0.3,0.8,0.8
			C16.9,14.7,14.7,16.9,12.1,16.9z"/>
	</g>
	<g id="Line_94">
		<path d="M2.3,22.6c-0.2,0-0.4-0.1-0.5-0.2c-0.3-0.3-0.3-0.8,0-1.1L21.4,1.7c0.3-0.3,0.8-0.3,1.1,0s0.3,0.8,0,1.1L2.8,22.4
			C2.6,22.6,2.5,22.6,2.3,22.6z"/>
	</g>
</g>
</svg>
