<svg xmlns="http://www.w3.org/2000/svg" height="50" width="50" viewBox="0 0 12.868 12.872">
  <g id="Group_41935" data-name="Group 41935" transform="translate(-324.998 -338)">
    <path id="Shape_1_copy_4" data-name="Shape 1 copy 4" d="M.487,5.289H.452a.486.486,0,0,1-.31-.141L.134,5.137.129,5.132l0,0L.12,5.122l0,0L.112,5.112h0A.486.486,0,0,1,0,4.788V1.1a.487.487,0,0,1,.975,0V3.624L4.455.143a.487.487,0,0,1,.689.689L1.664,4.313H4.184a.488.488,0,0,1,0,.975Z" transform="translate(330.285 350.872) rotate(180)"/>
    <path id="Shape_1_copy_3" data-name="Shape 1 copy 3" d="M.143,5.146a.487.487,0,0,1,0-.689L3.623.975H1.1A.487.487,0,0,1,1.1,0H4.786a.486.486,0,0,1,.323.111h0l.008.007,0,0,.007.006,0,0,.005,0,.017.017,0,0,0,0,.006.007,0,0,.007.008h0a.486.486,0,0,1,.111.31s0,.009,0,.013V4.185a.487.487,0,0,1-.975,0V1.664L.832,5.146a.488.488,0,0,1-.689,0Z" transform="translate(337.866 343.288) rotate(180)"/>
    <path id="Shape_1_copy_6" data-name="Shape 1 copy 6" d="M4.752,5.489,1.04,1.776V4.464a.52.52,0,1,1-1.04,0V.52S0,.511,0,.507V.471H0A.518.518,0,0,1,.043.313v0l0-.01v0l0-.008,0,0,0-.006,0-.006,0,0,0-.008,0,0L.075.251v0L.082.24h0A.517.517,0,0,1,.239.082h0L.249.076h0L.26.07l0,0,.008,0,0,0,.006,0,.006,0,0,0L.3.049h0l.01,0h0A.516.516,0,0,1,.47,0H4.462a.52.52,0,1,1,0,1.04H1.775L5.487,4.753a.52.52,0,0,1-.735.736Z" transform="translate(330.643 343.642) rotate(180)"/>
    <path id="Shape_1_copy_5" data-name="Shape 1 copy 5" d="M5.119,5.641H1.177a.52.52,0,0,1,0-1.04H3.864L.153.888A.52.52,0,0,1,.887.152L4.6,3.866V1.177a.52.52,0,1,1,1.04,0V5.121a.519.519,0,0,1-.245.441h0l-.01.006h0l-.009.005h0l-.009.005h0l-.009,0h0l-.01,0h0l-.011,0h0l-.011,0h0a.517.517,0,0,1-.145.036h-.05Z" transform="translate(337.866 350.872) rotate(180)"/>
  </g>
</svg>
