<svg xmlns="http://www.w3.org/2000/svg" width="13.901" height="17.047" viewBox="0 0 13.901 17.047">
  <g id="Group_50642" data-name="Group 50642" transform="translate(-797.654 -34.65)">
    <path id="Path_55229" data-name="Path 55229" d="M300.588,3.2,294.174.053a.531.531,0,0,0-.466,0l-6.418,3.14a.533.533,0,0,0-.3.473V9.489a6.046,6.046,0,0,0,2.434,4.591l4.216,2.874a.531.531,0,0,0,.6,0l4.22-2.873a6.048,6.048,0,0,0,2.435-4.592V3.675A.533.533,0,0,0,300.588,3.2Zm-.753,6.288a5.052,5.052,0,0,1-1.974,3.721l-3.919,2.671-3.924-2.671a5.052,5.052,0,0,1-1.975-3.721V3.995l5.9-2.882,5.9,2.89Zm0,0" transform="translate(510.665 34.651)"/>
    <path id="Path_55230" data-name="Path 55230" d="M348.328,98.573a.527.527,0,0,0-.749.742l1.642,1.67a.54.54,0,0,0,.373.169h0a.54.54,0,0,0,.373-.167l3.243-3.25a.529.529,0,0,0-.746-.75L349.6,99.855Zm0,0" transform="translate(454.207 -55.806)"/>
  </g>
</svg>
