<svg xmlns="http://www.w3.org/2000/svg" width="50" height="50" viewBox="0 0 13.474 13.474">
  <g id="Group_46618" data-name="Group 46618" transform="translate(-1496.025 36.003)">
    <path id="Path_50784" data-name="Path 50784" d="M1502.762-36a6.745,6.745,0,0,0-6.737,6.737,6.745,6.745,0,0,0,6.737,6.737,6.745,6.745,0,0,0,6.737-6.737A6.745,6.745,0,0,0,1502.762-36Zm0,12.725a6,6,0,0,1-5.988-5.988,6,6,0,0,1,5.988-5.988,6,6,0,0,1,5.988,5.988A6,6,0,0,1,1502.762-23.278Z" transform="translate(0)"/>
    <rect id="Rectangle_1650" data-name="Rectangle 1650" width="1.024" height="5.165" transform="translate(1502.162 -30.658)"/>
    <path id="Path_50785" data-name="Path 50785" d="M1504.782-32.042a.724.724,0,0,0-.724.725.724.724,0,0,0,.724.725.724.724,0,0,0,.725-.725A.724.724,0,0,0,1504.782-32.042Z" transform="translate(-2.02 -0.996)"/>
  </g>
</svg>
