<svg xmlns="http://www.w3.org/2000/svg" width="21.513" height="16.453" viewBox="0 0 21.513 16.453">
  <g id="Group_50591" data-name="Group 50591" transform="translate(-200.43 -498.43)">
    <path id="Subtraction_276" data-name="Subtraction 276" d="M4.495,14.386a.3.3,0,0,1-.187-.067.3.3,0,0,1-.112-.232v-.6a.3.3,0,0,1,.135-.25l2.1-1.386-.095-.944c-.086-.851-.167-1.653-.224-2.584L.462,11.939a.291.291,0,0,1-.161.049.3.3,0,0,1-.3-.3v-.7A1.482,1.482,0,0,1,.439,9.927L5.994,4.371V1.907A2.716,2.716,0,0,1,6.245.774l.14-.266A.9.9,0,0,1,8.008.521L8.135.76a2.738,2.738,0,0,1,.257,1.146V4.371L10.817,6.8a5.284,5.284,0,0,0-.736,2.68l-1.8-1.156c-.056.9-.13,1.636-.222,2.566l0,.017-.1.948,2.1,1.385a.3.3,0,0,1,.135.249v.6a.3.3,0,0,1-.3.3.248.248,0,0,1-.066-.007l-2.632-.584-2.632.584A.3.3,0,0,1,4.495,14.386Z" transform="translate(200.43 498.43)" fill="#313952"/>
    <g id="synchronization-arrows" transform="translate(212.632 502.081)">
      <g id="sync" transform="translate(0 0)">
        <path id="Path_55210" data-name="Path 55210" d="M81.155,1.746V0L78.828,2.328l2.328,2.328V2.909A3.5,3.5,0,0,1,84.647,6.4a3.746,3.746,0,0,1-.407,1.629l.873.873a5.2,5.2,0,0,0,.7-2.5A4.669,4.669,0,0,0,81.155,1.746Zm0,8.147A3.5,3.5,0,0,1,77.664,6.4a3.746,3.746,0,0,1,.407-1.629L77.2,3.9a5.2,5.2,0,0,0-.7,2.5,4.669,4.669,0,0,0,4.655,4.655V12.8l2.328-2.328L81.155,8.147Z" transform="translate(-76.5)" fill="#14a493"/>
      </g>
    </g>
  </g>
</svg>
