<svg xmlns="http://www.w3.org/2000/svg" width="16.445" height="16.444" viewBox="0 0 16.445 16.444">
  <g id="layers" transform="translate(0 -0.009)">
    <g id="Group_50636" data-name="Group 50636" transform="translate(0 7.086)">
      <g id="Group_50635" data-name="Group 50635">
        <path id="Path_55217" data-name="Path 55217" d="M16.187,206.313a.582.582,0,0,0-.051-.031l-1.167-.628L8.5,209.08a.587.587,0,0,1-.55,0l-6.472-3.426-1.167.628a.581.581,0,0,0-.21.838l8.124,4.3,8.124-4.3A.581.581,0,0,0,16.187,206.313Z" transform="translate(0 -205.654)" fill="#2463a2"/>
      </g>
    </g>
    <g id="Group_50638" data-name="Group 50638" transform="translate(0 10.609)">
      <g id="Group_50637" data-name="Group 50637">
        <path id="Path_55218" data-name="Path 55218" d="M16.388,308.92a.587.587,0,0,0-.238-.238l-1.167-.628L8.511,311.48a.587.587,0,0,1-.55,0L1.49,308.054l-1.167.628a.587.587,0,0,0,0,1.034l7.635,4.111a.587.587,0,0,0,.557,0l7.635-4.111A.587.587,0,0,0,16.388,308.92Z" transform="translate(-0.014 -308.054)" fill="#2463a2"/>
      </g>
    </g>
    <g id="Group_50640" data-name="Group 50640" transform="translate(0 0.009)">
      <g id="Group_50639" data-name="Group 50639" transform="translate(0 0)">
        <path id="Path_55219" data-name="Path 55219" d="M16.187,4.221a.581.581,0,0,0-.051-.031L8.5.079a.587.587,0,0,0-.557,0L.309,4.19a.581.581,0,0,0-.21.837l8.124,4.3,8.124-4.3A.581.581,0,0,0,16.187,4.221Z" transform="translate(0 -0.009)" fill="#2463a2"/>
      </g>
    </g>
  </g>
</svg>
