<svg xmlns="http://www.w3.org/2000/svg" width="17.002" height="10.578" viewBox="0 0 17.002 10.578">
  <g id="airplane_8_" data-name="airplane (8)" transform="translate(-0.001 -96.736)">
    <path id="Path_53636" data-name="Path 53636" d="M16.918,99.174a1.411,1.411,0,0,0-.734-.8,5.108,5.108,0,0,0-3.931-.172l-1.348.491-3.848-1.9a.5.5,0,0,0-.391-.022l-2.3.836a.5.5,0,0,0-.12.873l2.438,1.753L3.3,101.461l-1.257-1.02a.5.5,0,0,0-.484-.081l-1.225.446a.5.5,0,0,0-.3.638l.781,2.144a2.78,2.78,0,0,0,3.563,1.662l2.985-1.087-.644,2.528a.5.5,0,0,0,.653.591l2.3-.836a.5.5,0,0,0,.286-.268l1.543-3.52,4.573-1.664a1.422,1.422,0,0,0,.849-1.82ZM5.593,98.216,6.8,97.775l2.8,1.388-1.792.652Zm10.135,1.843L10.955,101.8a.5.5,0,0,0-.286.268l-1.543,3.52-1.212.441.644-2.528a.5.5,0,0,0-.653-.591l-3.871,1.409a1.784,1.784,0,0,1-2.287-1.066l-.61-1.676.492-.179,1.257,1.02a.5.5,0,0,0,.484.081l9.221-3.356a4.118,4.118,0,0,1,3.17.138.424.424,0,0,1-.034.783Z" transform="translate(0 0)"/>
  </g>
</svg>
