<svg xmlns="http://www.w3.org/2000/svg" width="17.669" height="13.844" viewBox="0 0 17.669 13.844">
  <g id="tuk-tuk_1_" data-name="tuk-tuk (1)" transform="translate(0 -55.413)">
    <g id="Group_50317" data-name="Group 50317" transform="translate(0.001 55.413)">
      <path id="Path_57803" data-name="Path 57803" d="M15.646,65.124V61.9a.368.368,0,0,0-.032-.145L13.47,56.5a1.747,1.747,0,0,0-1.623-1.09H3.034a2.027,2.027,0,0,0-2,1.784L.512,61.859v0l-.5,4.462a1.357,1.357,0,0,0,1.331,1.49h.48a1.695,1.695,0,0,0,3.352,0h6.264a.345.345,0,0,0,0-.69h-5.6A2.368,2.368,0,0,0,1.157,67.1a.654.654,0,0,1-.462-.7l.469-4.157H2.814a1.052,1.052,0,0,0,1,.737h1.1a.359.359,0,0,1,.33.217l1.2,2.863a.345.345,0,0,0,.318.212h3.989a.345.345,0,0,0,.345-.345V62.243h3.854v2.881a2.4,2.4,0,0,0-2,2H11.021a.345.345,0,1,0,0,.69h2.6a1.695,1.695,0,0,0,3.352,0h.347a.345.345,0,0,0,.345-.345A2.372,2.372,0,0,0,15.646,65.124ZM3.5,68.567a1.006,1.006,0,0,1-.973-.755H4.469A1.006,1.006,0,0,1,3.5,68.567Zm0-2.778a1.681,1.681,0,0,1,1.643,1.333H1.853A1.681,1.681,0,0,1,3.5,65.789Zm13.448,1.333H13.659a1.678,1.678,0,0,1,3.285,0Zm-3.969-5.569a.312.312,0,0,1-.309-.311V58.149a.312.312,0,0,1,.311-.311h.256l1.55,3.715ZM7.442,65.581V64.1H8.576a.4.4,0,0,1,.4.4v1.082Zm2.97,0H9.663V64.5a1.089,1.089,0,0,0-1.087-1.087H7.407L7.052,60a.345.345,0,0,0-.686.072l.386,3.7V65l-.867-2.067a1.049,1.049,0,0,0-.966-.638h-1.1a.36.36,0,0,1-.36-.36V58.2a.36.36,0,0,1,.36-.36h6.235a.36.36,0,0,1,.36.36v7.384Zm-.36-8.434H3.817a1.051,1.051,0,0,0-1.05,1.05v3.355H1.241l.482-4.279A1.33,1.33,0,0,1,3.034,56.1h8.813a1.06,1.06,0,0,1,.984.661l.156.383h-.011a1,1,0,0,0-1,1v3.093a1,1,0,0,0,.05.311H11.1V58.2a1.051,1.051,0,0,0-1.05-1.05ZM15.3,68.567a1.006,1.006,0,0,1-.973-.755h1.946A1.006,1.006,0,0,1,15.3,68.567Z" transform="translate(-0.001 -55.413)"/>
    </g>
  </g>
</svg>
