<svg xmlns="http://www.w3.org/2000/svg" width="10.819" height="8.991" viewBox="0 0 10.819 8.991">
  <path id="Path_53818" data-name="Path 53818" d="M277.437,378.575h-6.191l1.6-1.832a.442.442,0,0,0-.666-.582l-2.24,2.565c-.005.005,0,.014-.008.019a.43.43,0,0,0-.1.27v0a.43.43,0,0,0,.1.27c.005.006,0,.014.008.02l2.241,2.565a.442.442,0,1,0,.666-.582l-1.6-1.832h6.191a2.329,2.329,0,0,1,0,4.658h-6.574a.442.442,0,1,0,0,.884h6.574a3.214,3.214,0,0,0,0-6.427Z" transform="translate(-269.831 -376.011)" fill="#0062ae"/>
</svg>
