<svg xmlns="http://www.w3.org/2000/svg" width="9.613" height="8.647" viewBox="0 0 9.613 8.647">
  <path id="Union_121" data-name="Union 121" d="M-18796.605,12752.163l-.3-1.4a4.306,4.306,0,0,0-5.1-3.312l-.781.165,1.545,1.416a.663.663,0,0,1,.039.938.651.651,0,0,1-.486.213.679.679,0,0,1-.449-.17l-2.646-2.431a.667.667,0,0,1-.217-.491.681.681,0,0,1,.211-.485l2.652-2.431a.665.665,0,0,1,.936.042.658.658,0,0,1-.039.935l-1.248,1.143.225-.048a5.533,5.533,0,0,1,6.561,4.262l.3,1.4a.614.614,0,0,1-.479.727.624.624,0,0,1-.127.014A.616.616,0,0,1-18796.605,12752.163Z" transform="translate(18805 -12744.001)" fill="#ed1c23"/>
</svg>
