<svg xmlns="http://www.w3.org/2000/svg" width="35.079" height="35.15" viewBox="0 0 35.079 35.15">
  <g id="Group_48211" data-name="Group 48211" transform="translate(-236.43 -361.09)">
    <path id="Path_53917" data-name="Path 53917" d="M241.237,370.274a15.842,15.842,0,0,1,1.615-1.968.9.9,0,1,0-1.293-1.247,17.8,17.8,0,0,0-1.8,2.19.9.9,0,1,0,1.475,1.024Z" transform="translate(-0.325 -0.583)" fill="#1175cb"/>
    <path id="Path_53918" data-name="Path 53918" d="M238.436,384.115a.9.9,0,0,0-1.76.355,17.59,17.59,0,0,0,.784,2.724.9.9,0,1,0,1.679-.635A15.839,15.839,0,0,1,238.436,384.115Z" transform="translate(-0.023 -2.283)" fill="#1175cb"/>
    <path id="Path_53919" data-name="Path 53919" d="M249.937,363.781a.9.9,0,0,0-.566-1.7,17.562,17.562,0,0,0-2.61,1.108.9.9,0,0,0,.417,1.693.887.887,0,0,0,.416-.1A15.7,15.7,0,0,1,249.937,363.781Z" transform="translate(-1.008 -0.096)" fill="#1175cb"/>
    <path id="Path_53920" data-name="Path 53920" d="M242.062,391.777a.9.9,0,1,0-1.391,1.135,17.728,17.728,0,0,0,1.96,2.045.9.9,0,1,0,1.193-1.341A15.933,15.933,0,0,1,242.062,391.777Z" transform="translate(-0.413 -3.107)" fill="#1175cb"/>
    <path id="Path_53921" data-name="Path 53921" d="M237.329,378.922a.9.9,0,0,0,.89-.789,15.77,15.77,0,0,1,.511-2.492.9.9,0,0,0-1.724-.5,17.607,17.607,0,0,0-.568,2.776.9.9,0,0,0,.782,1A.762.762,0,0,0,237.329,378.922Z" transform="translate(0 -1.372)" fill="#1175cb"/>
    <path id="Path_53922" data-name="Path 53922" d="M264.03,364.911a15.887,15.887,0,0,1,2.15,1.363.9.9,0,1,0,1.081-1.434,17.658,17.658,0,0,0-2.394-1.517.9.9,0,0,0-.837,1.589Z" transform="translate(-2.776 -0.218)" fill="#1175cb"/>
    <path id="Path_53923" data-name="Path 53923" d="M255.8,362.885a16.052,16.052,0,0,1,2.538.2.879.879,0,0,0,.144.012.9.9,0,0,0,.142-1.784,17.725,17.725,0,0,0-2.823-.225.9.9,0,0,0,0,1.8Z" transform="translate(-1.89)" fill="#1175cb"/>
    <path id="Path_53924" data-name="Path 53924" d="M259.719,397.8a15.868,15.868,0,0,1-2.513.4.9.9,0,0,0,.07,1.793l.072,0a17.736,17.736,0,0,0,2.8-.449.9.9,0,0,0-.426-1.744Z" transform="translate(-2.042 -3.755)" fill="#1175cb"/>
    <path id="Path_53925" data-name="Path 53925" d="M273.384,386.367a.9.9,0,0,0-1.158.52,16,16,0,0,1-1.094,2.3.9.9,0,1,0,1.553.9,17.6,17.6,0,0,0,1.219-2.561A.9.9,0,0,0,273.384,386.367Z" transform="translate(-3.54 -2.581)" fill="#1175cb"/>
    <path id="Path_53926" data-name="Path 53926" d="M251.248,397.693a15.85,15.85,0,0,1-2.414-.808.9.9,0,1,0-.707,1.649,17.465,17.465,0,0,0,2.69.9.9.9,0,1,0,.431-1.742Z" transform="translate(-1.142 -3.656)" fill="#1175cb"/>
    <path id="Path_53927" data-name="Path 53927" d="M275.164,378.254a.9.9,0,0,0-1.783.214,15.979,15.979,0,0,1,.113,1.9q0,.324-.013.643a.9.9,0,0,0,.86.934h.037a.9.9,0,0,0,.9-.861c.009-.237.014-.476.014-.715A17.9,17.9,0,0,0,275.164,378.254Z" transform="translate(-3.782 -1.676)" fill="#1175cb"/>
    <path id="Path_53928" data-name="Path 53928" d="M272.462,373.255a.908.908,0,0,0,.385-.087.9.9,0,0,0,.425-1.2,17.563,17.563,0,0,0-1.417-2.452.9.9,0,1,0-1.477,1.02,15.924,15.924,0,0,1,1.272,2.2A.9.9,0,0,0,272.462,373.255Z" transform="translate(-3.459 -0.823)" fill="#1175cb"/>
    <path id="Path_53929" data-name="Path 53929" d="M267.285,393.862a15.807,15.807,0,0,1-2.035,1.528.9.9,0,1,0,.96,1.518,17.679,17.679,0,0,0,2.265-1.7.9.9,0,1,0-1.189-1.345Z" transform="translate(-2.907 -3.331)" fill="#1175cb"/>
    <path id="Path_53930" data-name="Path 53930" d="M262.1,379.193h-5.2v-5.526a.9.9,0,1,0-1.8,0v5.526h-5.2a.9.9,0,0,0,0,1.8h5.2v4.878a.9.9,0,1,0,1.8,0v-4.878h5.2a.9.9,0,0,0,0-1.8Z" transform="translate(-1.287 -1.195)" fill="#1175cb"/>
  </g>
</svg>
