<svg id="Group_46610" data-name="Group 46610" xmlns="http://www.w3.org/2000/svg" width="50" height="50" viewBox="0 0 14.02 15.763">
  <path id="Path_50261" data-name="Path 50261" d="M40.482,2.269H37.2V1.734A1.736,1.736,0,0,0,35.469,0H32.351a1.736,1.736,0,0,0-1.734,1.734v.535h-3.28a.438.438,0,0,0,0,.875h.791v10.28a2.343,2.343,0,0,0,2.34,2.34h6.883a2.343,2.343,0,0,0,2.34-2.34V3.144h.791a.438.438,0,0,0,0-.875Zm-8.99-.535a.86.86,0,0,1,.859-.859h3.118a.86.86,0,0,1,.859.859v.535H31.492Zm7.324,11.689a1.467,1.467,0,0,1-1.465,1.465H30.468A1.467,1.467,0,0,1,29,13.423V3.144H38.82v10.28Z" transform="translate(-26.9 0)" fill="#ff6262"/>
  <path id="Path_50262" data-name="Path 50262" d="M230.138,154.008a.436.436,0,0,0,.438-.438v-7.732a.438.438,0,0,0-.875,0v7.729A.438.438,0,0,0,230.138,154.008Z" transform="translate(-223.128 -140.688)" fill="#ff6262"/>
  <path id="Path_50263" data-name="Path 50263" d="M142.038,167.845a.436.436,0,0,0,.437-.438v-6.77a.438.438,0,1,0-.875,0v6.77A.438.438,0,0,0,142.038,167.845Z" transform="translate(-137.883 -155.008)" fill="#ff6262"/>
  <path id="Path_50264" data-name="Path 50264" d="M318.237,167.845a.436.436,0,0,0,.438-.438v-6.77a.438.438,0,1,0-.875,0v6.77A.436.436,0,0,0,318.237,167.845Z" transform="translate(-308.373 -155.008)" fill="#ff6262"/>
</svg>
