<svg xmlns="http://www.w3.org/2000/svg" width="20.346" height="18.406" viewBox="0 0 20.346 18.406">
  <path id="Union_120" data-name="Union 120" d="M-18794.523,12762.4a.724.724,0,0,1-.727-.723.727.727,0,0,1,.727-.727h7.2a1.216,1.216,0,0,0,1.213-1.213v-10.9h-17.437v.845a.728.728,0,0,1-.727.728.727.727,0,0,1-.727-.728v-3.024a2.667,2.667,0,0,1,2.666-2.667h15.012a2.668,2.668,0,0,1,2.668,2.667v13.077a2.667,2.667,0,0,1-2.668,2.662Zm8.414-15.013v-.727a1.215,1.215,0,0,0-1.213-1.213h-15.012a1.215,1.215,0,0,0-1.213,1.213v.727Z" transform="translate(18805 -12743.998)" fill="#1880ce"/>
</svg>
