<svg xmlns="http://www.w3.org/2000/svg" width="16.534" height="14.265" viewBox="0 0 16.534 14.265">
  <g id="send" transform="translate(-298.157 -314.438)">
    <g id="Group_47835" data-name="Group 47835">
      <path id="Path_53647" data-name="Path 53647" d="M313.71,320.1l-13.344-5.537a1.6,1.6,0,0,0-2.16,1.866l1.311,5.143-1.311,5.146a1.6,1.6,0,0,0,2.16,1.87l13.345-5.537a1.6,1.6,0,0,0,0-2.95Zm-.371,2.055-13.345,5.537a.629.629,0,0,1-.821-.34.622.622,0,0,1-.028-.395l1.249-4.9h4.815a.485.485,0,0,0,.044-.969.32.32,0,0,0-.044,0h-4.815l-1.249-4.9a.627.627,0,0,1,.849-.735l13.345,5.537a.628.628,0,0,1,0,1.16Z" fill="#0062ae"/>
    </g>
  </g>
</svg>
