<svg xmlns="http://www.w3.org/2000/svg" width="18.858" height="18.855" viewBox="0 0 18.858 18.855">
  <path id="Subtraction_240" data-name="Subtraction 240" d="M-5509.572,4932.855c-.6,0-1.021-.567-1.391-1.067-.2-.278-.48-.655-.659-.7a2.281,2.281,0,0,0-.968.28l-.015.007a3.207,3.207,0,0,1-1.183.349.968.968,0,0,1-.5-.13c-.51-.3-.584-.96-.657-1.6a2.2,2.2,0,0,0-.227-.961,2.2,2.2,0,0,0-.958-.23c-.611-.064-1.3-.138-1.6-.655s-.029-1.114.227-1.7a2.185,2.185,0,0,0,.281-.963c-.043-.173-.4-.438-.693-.65l-.006,0c-.5-.368-1.072-.785-1.072-1.393s.569-1.025,1.071-1.4c.329-.238.654-.485.7-.655a2.207,2.207,0,0,0-.283-.965c-.246-.558-.523-1.188-.223-1.705s.959-.583,1.6-.656a2.193,2.193,0,0,0,.958-.225,2.177,2.177,0,0,0,.229-.958c.069-.615.147-1.309.661-1.606a.977.977,0,0,1,.5-.129,3.217,3.217,0,0,1,1.2.356,2.253,2.253,0,0,0,.961.283c.174-.045.436-.4.646-.688l.01-.013c.371-.5.791-1.071,1.394-1.071s1.022.566,1.392,1.066l0,0,.006.007c.211.288.475.646.651.692a2.21,2.21,0,0,0,.961-.281,3.178,3.178,0,0,1,1.2-.355.985.985,0,0,1,.51.132c.509.3.583.962.655,1.6a2.208,2.208,0,0,0,.229.961,2.211,2.211,0,0,0,.958.229c.61.064,1.3.138,1.6.656s.03,1.111-.224,1.7a2.2,2.2,0,0,0-.284.964c.043.171.4.432.681.642l0,0,.015.011c.5.37,1.073.789,1.073,1.4s-.569,1.023-1.072,1.393c-.277.2-.653.478-.7.655a2.2,2.2,0,0,0,.278.97l.009.02c.251.58.511,1.178.217,1.681s-.96.584-1.6.657a2.213,2.213,0,0,0-.958.227,2.2,2.2,0,0,0-.228.958c-.07.613-.149,1.307-.661,1.6a.972.972,0,0,1-.5.128,3.229,3.229,0,0,1-1.2-.355,2.226,2.226,0,0,0-.963-.281c-.169.043-.428.392-.636.673l-.021.028C-5508.548,4932.287-5508.966,4932.855-5509.572,4932.855Zm4.1-8.951v0l.428,1.292a.412.412,0,0,0,.391.28h.017a.406.406,0,0,0,.381-.31l.82-3.279a.4.4,0,0,0-.045-.309.409.409,0,0,0-.253-.188.415.415,0,0,0-.1-.013.407.407,0,0,0-.4.313l-.479,1.912-.374-1.125a.429.429,0,0,0-.213-.212.42.42,0,0,0-.177-.039.426.426,0,0,0-.388.251l-.374,1.125-.478-1.912a.41.41,0,0,0-.4-.312.432.432,0,0,0-.1.013.407.407,0,0,0-.251.187.406.406,0,0,0-.046.311l.82,3.278a.411.411,0,0,0,.381.31h.029a.393.393,0,0,0,.375-.28l.431-1.292Zm-4.92-2.526a.41.41,0,0,0-.409.41v3.28a.41.41,0,0,0,.409.41h1.64a.411.411,0,0,0,.41-.41.41.41,0,0,0-.41-.41h-1.229v-.82h1.229a.41.41,0,0,0,.41-.41.411.411,0,0,0-.41-.41h-1.229v-.82h1.229a.411.411,0,0,0,.41-.41.411.411,0,0,0-.41-.41Zm-3.688,1.64,0,0,1.72,2.292a.41.41,0,0,0,.327.165.392.392,0,0,0,.13-.022.408.408,0,0,0,.281-.388v-3.28a.411.411,0,0,0-.412-.41.41.41,0,0,0-.409.41v2.05l-1.723-2.295a.406.406,0,0,0-.327-.165.41.41,0,0,0-.41.41v3.28a.41.41,0,0,0,.41.41.411.411,0,0,0,.41-.41v-2.05Z" transform="translate(5519 -4914)" fill="#fd0d1b"/>
</svg>
