<svg xmlns="http://www.w3.org/2000/svg" width="16.097" height="17.336" viewBox="0 0 16.097 17.336">
  <g id="refresh_2_" data-name="refresh (2)" transform="translate(-17.067)">
    <g id="Group_49257" data-name="Group 49257" transform="translate(17.067)">
      <g id="Group_49256" data-name="Group 49256">
        <path id="Path_54398" data-name="Path 54398" d="M31.307,0a.619.619,0,0,0-.619.619V2.881A8.033,8.033,0,0,0,17.067,8.668a.619.619,0,1,0,1.238,0,6.81,6.81,0,0,1,11.834-4.6L27.4,4.985a.62.62,0,0,0,.391,1.176L31.5,4.923a.619.619,0,0,0,.424-.589V.619A.619.619,0,0,0,31.307,0Z" transform="translate(-17.067 0)" fill="#0f6fb9"/>
      </g>
    </g>
    <g id="Group_49259" data-name="Group 49259" transform="translate(18.305 8.049)">
      <g id="Group_49258" data-name="Group 49258" transform="translate(0)">
        <path id="Path_54399" data-name="Path 54399" d="M65.438,221.867a.619.619,0,0,0-.619.619,6.81,6.81,0,0,1-11.834,4.6l2.743-.914a.62.62,0,0,0-.391-1.176l-3.715,1.238a.619.619,0,0,0-.424.589v3.715a.619.619,0,0,0,1.238,0v-2.262a8.033,8.033,0,0,0,13.621-5.787A.619.619,0,0,0,65.438,221.867Z" transform="translate(-51.198 -221.867)" fill="#0f6fb9"/>
      </g>
    </g>
  </g>
</svg>
