<svg xmlns="http://www.w3.org/2000/svg" width="46.955" height="46.971" viewBox="0 0 46.955 46.971">
  <g id="Group_48226" data-name="Group 48226" transform="translate(-317.255 -382.656)">
    <path id="Path_53942" data-name="Path 53942" d="M327.3,394.714a4.555,4.555,0,0,0,3.382,7.6c.084,0,.167,0,.251-.008a4.551,4.551,0,0,0,2.8-7.931A4.574,4.574,0,0,0,327.3,394.714Zm4.634,4.154a1.682,1.682,0,0,1-2.364.126,1.63,1.63,0,0,1-.545-1.148l-.007-.141a1.672,1.672,0,1,1,2.916,1.163Z" transform="translate(0.827 0.983)" fill="#666"/>
    <path id="Path_53943" data-name="Path 53943" d="M340.028,404.216h0a4.557,4.557,0,0,0,3.385,7.6c.082,0,.165,0,.249-.005a4.557,4.557,0,0,0,2.8-7.941A4.581,4.581,0,0,0,340.028,404.216Zm4.634,4.157a1.682,1.682,0,0,1-2.365.126,1.661,1.661,0,0,1-.149-2.32l.024-.027a1.684,1.684,0,0,1,2.363-.128A1.665,1.665,0,0,1,344.662,408.373Z" transform="translate(2.011 1.867)" fill="#666"/>
    <path id="Path_53944" data-name="Path 53944" d="M340.593,402.441a4.556,4.556,0,0,0,2.823-7.924l-.019-.017a4.557,4.557,0,1,0-3.05,7.948C340.431,402.448,340.511,402.445,340.593,402.441Zm-1.478-5.677a1.67,1.67,0,1,1,.124,2.359A1.665,1.665,0,0,1,339.116,396.763Z" transform="translate(1.726 0.995)" fill="#666"/>
    <path id="Path_53945" data-name="Path 53945" d="M324.562,403.88h0a4.774,4.774,0,1,0,6.736.466A4.751,4.751,0,0,0,324.561,403.881Zm5.338,3.75a2.2,2.2,0,0,1-.751,1.51,2.163,2.163,0,1,1-1.394-3.8,2.109,2.109,0,0,1,2.145,2.287Z" transform="translate(0.527 1.867)" fill="#666"/>
    <path id="Path_53946" data-name="Path 53946" d="M361.3,389.726l-.1-.153a5.8,5.8,0,0,1-.856-4.158c.072-.887.16-1.992-.856-2.548-1.1-.6-2.175.2-3.116.911a16.565,16.565,0,0,0-5.062,5.918,14.508,14.508,0,0,0-1.144,2.968,19.74,19.74,0,0,0-8.873-4.607,1.4,1.4,0,0,0-.165-.005,16.08,16.08,0,0,0-8.473,0c-.018,0-.034,0-.052,0a19.661,19.661,0,0,0-13.237,28.05,19.8,19.8,0,0,0,5.577,6.712,4.929,4.929,0,0,0,4.113,1.426c1.933-.387,3.04-2.2,4.093-4.192s2.195-2.843,3.791-2.843,2.731.849,3.792,2.843,2.168,3.806,4.093,4.192a2.9,2.9,0,0,0,.732.067,5.407,5.407,0,0,0,3.327-1.444,19.607,19.607,0,0,0,4.417-4.686v7.733a3.715,3.715,0,0,0,3.715,3.714h0a3.722,3.722,0,0,0,3.715-3.714V405.634a2.227,2.227,0,0,0,1.8-2.124v-2.4a3.8,3.8,0,0,0,1.454-2.069C364.8,396.354,363.245,392.464,361.3,389.726Zm-7.985,21.367a16.849,16.849,0,0,1-6.185,9.495l-.086.075a2.326,2.326,0,0,1-1.641.752c-.745-.15-1.637-1.821-2.115-2.72-1.566-2.94-3.639-4.371-6.338-4.371s-4.77,1.429-6.339,4.368c-.442.834-1.362,2.568-2.018,2.708a2.409,2.409,0,0,1-1.739-.741l-.1-.083a16.765,16.765,0,0,1,6.487-29.707,1.206,1.206,0,0,0,.148-.069v0a13.217,13.217,0,0,1,7.24.058c.009,0,.015.009.025.011a16.976,16.976,0,0,1,9.075,5.479,6.944,6.944,0,0,0,1.78,4.519v2.661a2.219,2.219,0,0,0,1.8,2.1Zm4.544,14.819a.831.831,0,0,1-1.661,0v-3.559h1.661Zm-1.661-6.444v-13.8h1.661v13.8Zm-1.8-16.679V401.7h5.26v1.093Zm6.826-4.564a.938.938,0,0,1-.437.583h-7.247c-1.523-1.748-1-5.2.333-7.785l0-.005a13.617,13.617,0,0,1,3.5-4.367,8.3,8.3,0,0,0,1.472,4.6C360.627,393.691,361.674,396.745,361.226,398.225Z" fill="#666"/>
  </g>
</svg>
