<svg xmlns="http://www.w3.org/2000/svg" width="17.008" height="16.523" viewBox="0 0 17.008 16.523">
  <g id="Group_47497" data-name="Group 47497" transform="matrix(0.883, 0.469, -0.469, 0.883, 6.626, 0)">
    <path id="Path_53449" data-name="Path 53449" d="M4.464,0a.863.863,0,0,1,.541.594,5.391,5.391,0,0,0,3.18,3.327c.814.3,1.3.856.062,1.362a5.826,5.826,0,0,0-3.156,3.2c-.373.832-.838,1.019-1.205.011a5.963,5.963,0,0,0-3.35-3.35c-.67-.317-.752-.816-.022-1.056A6.181,6.181,0,0,0,4.1.47,2.687,2.687,0,0,1,4.464,0Z" transform="translate(13.117 11.739) rotate(180)" fill="#279afd"/>
    <path id="Path_53451" data-name="Path 53451" d="M1.773,0a.343.343,0,0,1,.215.236A2.142,2.142,0,0,0,3.252,1.558c.324.121.516.34.025.541A2.315,2.315,0,0,0,2.023,3.371c-.148.331-.333.4-.479,0A2.369,2.369,0,0,0,.213,2.044c-.266-.126-.3-.324-.009-.42A2.456,2.456,0,0,0,1.628.187,1.069,1.069,0,0,1,1.773,0Z" transform="translate(3.688 14.327) rotate(180)" fill="#279afd"/>
    <path id="Path_53450" data-name="Path 53450" d="M1.773,0a.343.343,0,0,1,.215.236A2.142,2.142,0,0,0,3.252,1.558c.324.121.516.34.025.541A2.315,2.315,0,0,0,2.023,3.371c-.148.331-.333.4-.479,0A2.369,2.369,0,0,0,.213,2.044c-.266-.126-.3-.324-.009-.42A2.456,2.456,0,0,0,1.628.187,1.069,1.069,0,0,1,1.773,0Z" transform="translate(3.575 3.648) rotate(180)" fill="#279afd"/>
  </g>
</svg>
