<svg xmlns="http://www.w3.org/2000/svg" width="14.829" height="14.829" viewBox="0 0 14.829 14.829">
  <g id="taxi" transform="translate(0.001 -0.004)">
    <g id="Group_47730" data-name="Group 47730" transform="translate(-0.001 0.004)">
      <g id="Group_47720" data-name="Group 47720" transform="translate(1.37 2.114)">
        <path id="Path_53620"  data-name="Path 53620" d="M58.94,78.275H47.719a.434.434,0,0,1-.409-.58.431.431,0,0,0,.025-.145.435.435,0,0,1,0-.048l.372-3.347v0A1.3,1.3,0,0,1,49,73h8.652a1.3,1.3,0,0,1,1.294,1.149v0l.372,3.347a.427.427,0,0,1,0,.048.432.432,0,0,0,.025.145.434.434,0,0,1-.41.579Zm-10.718-.869H58.437l-.35-3.152a.435.435,0,0,0-.431-.381H49a.435.435,0,0,0-.431.381Z" transform="translate(-47.285 -73.004)"/>
      </g>
      <g id="Group_47721" data-name="Group 47721" transform="translate(0 6.517)">
        <path id="Path_53621" data-name="Path 53621" d="M13.53,231.434H1.307a1.3,1.3,0,0,1-1.3-1.3v-2.549a1.312,1.312,0,0,1,.261-.782l0,0,1.069-1.387a.442.442,0,0,0,.061-.115.434.434,0,0,1,.41-.289H13.029a.434.434,0,0,1,.409.289.441.441,0,0,0,.061.115l1.069,1.387,0,0a1.312,1.312,0,0,1,.261.782v2.549a1.3,1.3,0,0,1-1.3,1.3ZM.958,227.323a.438.438,0,0,0-.086.259v2.549a.435.435,0,0,0,.434.434H13.53a.435.435,0,0,0,.434-.434v-2.549a.438.438,0,0,0-.085-.259l-1.07-1.388,0-.005q-.021-.028-.04-.057H2.072q-.019.029-.04.057l0,.005Z" transform="translate(-0.004 -225.004)"/>
      </g>
      <g id="Group_47722" data-name="Group 47722" transform="translate(5.358 10.224)">
        <path id="Path_53622" data-name="Path 53622" d="M188.682,355.727h-3.244a.434.434,0,0,1-.434-.434v-.985a1.3,1.3,0,0,1,1.3-1.3h1.506a1.3,1.3,0,0,1,1.3,1.3v.985A.434.434,0,0,1,188.682,355.727Zm-2.809-.869h2.375v-.55a.435.435,0,0,0-.434-.434h-1.506a.435.435,0,0,0-.434.434Z" transform="translate(-185.004 -353.004)"/>
      </g>
      <g id="Group_47723" data-name="Group 47723" transform="translate(1.883 8.37)">
        <path id="Path_53623" data-name="Path 53623" d="M66.365,291.727a1.361,1.361,0,1,1,1.361-1.361A1.363,1.363,0,0,1,66.365,291.727Zm0-1.854a.492.492,0,1,0,.492.492A.493.493,0,0,0,66.365,289.873Z" transform="translate(-65.004 -289.004)"/>
      </g>
      <g id="Group_47724" data-name="Group 47724" transform="translate(10.224 8.37)">
        <path id="Path_53624"  data-name="Path 53624" d="M354.365,291.727a1.361,1.361,0,1,1,1.361-1.361A1.363,1.363,0,0,1,354.365,291.727Zm0-1.854a.492.492,0,1,0,.492.492A.493.493,0,0,0,354.365,289.873Z" transform="translate(-353.004 -289.004)"/>
      </g>
      <g id="Group_47725" data-name="Group 47725" transform="translate(5.127)">
        <path id="Path_53625"  data-name="Path 53625" d="M181.146,2.987h-3.707a.434.434,0,0,1-.424-.527l.463-2.114A.434.434,0,0,1,177.9,0h2.78a.434.434,0,0,1,.424.341l.463,2.114a.434.434,0,0,1-.424.527Zm-3.167-.869h2.627L180.333.873h-2.081Z" transform="translate(-177.004 -0.004)"/>
      </g>
      <g id="Group_47726" data-name="Group 47726" transform="translate(12.591 6.053)">
        <path id="Path_53626"  data-name="Path 53626" d="M435.155,210.332a.435.435,0,0,1-.139-.846l1.369-.463a.434.434,0,0,1,.279.823l-1.369.463A.434.434,0,0,1,435.155,210.332Z" transform="translate(-434.72 -209)"/>
      </g>
      <g id="Group_47727" data-name="Group 47727" transform="translate(0 6.053)">
        <path id="Path_53627" data-name="Path 53627" d="M1.8,210.333a.435.435,0,0,1-.139-.023l-1.369-.463a.434.434,0,0,1,.279-.823l1.369.463a.435.435,0,0,1-.139.846Z" transform="translate(0.001 -209.001)"/>
      </g>
      <g id="Group_47728" data-name="Group 47728" transform="translate(1.188 12.078)">
        <path id="Path_53628" data-name="Path 53628" d="M43.987,419.755H41.438a.434.434,0,0,1-.434-.434v-1.883a.434.434,0,0,1,.434-.434h2.549a.434.434,0,0,1,.434.434v1.883A.434.434,0,0,1,43.987,419.755Zm-2.114-.869h1.68v-1.014h-1.68Z" transform="translate(-41.004 -417.004)"/>
      </g>
      <g id="Group_47729" data-name="Group 47729" transform="translate(10.224 12.078)">
        <path id="Path_53629" data-name="Path 53629" d="M355.987,419.755h-2.549a.434.434,0,0,1-.434-.434v-1.883a.434.434,0,0,1,.434-.434h2.549a.434.434,0,0,1,.434.434v1.883A.434.434,0,0,1,355.987,419.755Zm-2.114-.869h1.68v-1.014h-1.68Z" transform="translate(-353.004 -417.004)"/>
      </g>
    </g>
  </g>
</svg>
