<svg xmlns="http://www.w3.org/2000/svg" width="13.882" height="11.334" viewBox="0 0 13.882 11.334">
  <path id="dashboard_3_" data-name="dashboard (3)" d="M13.882,6.938a6.876,6.876,0,0,1-1.4,4.181.542.542,0,0,1-.865-.654A5.855,5.855,0,1,0,1.085,6.938a5.8,5.8,0,0,0,1.182,3.526.542.542,0,0,1-.865.654A6.937,6.937,0,0,1,6.941,0,6.936,6.936,0,0,1,13.882,6.938ZM10.377,3.672a.542.542,0,0,1,0,.767L8.61,6.207a1.9,1.9,0,1,1-.767-.767L9.61,3.672A.542.542,0,0,1,10.377,3.672ZM7.753,7.108a.812.812,0,1,0-.812.812A.813.813,0,0,0,7.753,7.108Zm0,0"/>
</svg>
