<svg xmlns="http://www.w3.org/2000/svg" width="50" height="50" viewBox="0 0 21.145 21.144">
  <path id="Subtraction_96" data-name="Subtraction 96" d="M-4966.428-4071.856A10.584,10.584,0,0,1-4977-4082.428,10.584,10.584,0,0,1-4966.428-4093a10.585,10.585,0,0,1,10.573,10.572A10.585,10.585,0,0,1-4966.428-4071.856Zm-5.625-11.453a.882.882,0,0,0-.882.881.882.882,0,0,0,.882.881h4.744v4.745a.882.882,0,0,0,.88.881.882.882,0,0,0,.882-.881v-4.745h4.744a.882.882,0,0,0,.88-.881.882.882,0,0,0-.88-.881h-4.744v-4.744a.883.883,0,0,0-.882-.882.882.882,0,0,0-.88.882v4.744Z" transform="translate(4977 4093)" fill="#0f94c0"/>
</svg>
