<svg id="transport" xmlns="http://www.w3.org/2000/svg" width="13.617" height="13.617" viewBox="0 0 13.617 13.617">
  <path id="Path_53618" data-name="Path 53618" d="M13.617,3.59a1.2,1.2,0,0,0-1.2-1.2h-.4V1.223A1.225,1.225,0,0,0,10.8,0H2.819A1.225,1.225,0,0,0,1.6,1.223v1.17H1.2A1.2,1.2,0,0,0,0,3.59v2H1.6v6.155h.532v.672a1.2,1.2,0,0,0,1.2,1.2h.539a1.2,1.2,0,0,0,1.2-1.2v-.672h3.5v.672a1.2,1.2,0,0,0,1.2,1.2h.539a1.2,1.2,0,0,0,1.2-1.2v-.672h.532V5.593h1.6ZM2.819.8H10.8a.426.426,0,0,1,.426.426V1.6H2.394V1.223A.426.426,0,0,1,2.819.8ZM.8,4.795V3.59a.4.4,0,0,1,.4-.4h.4v1.6Zm10.426,5.358v.8H8.686v-1.6H4.931v1.6H2.394v-.8H4v-.8H2.394V7.825a30.235,30.235,0,0,0,4.415.325,30.236,30.236,0,0,0,4.415-.325V9.354H9.617v.8Zm-3.336.8H5.729v-.8H7.888ZM4.263,12.42a.4.4,0,0,1-.4.4H3.325a.4.4,0,0,1-.4-.4v-.672H4.263Zm6.429,0a.4.4,0,0,1-.4.4H9.753a.4.4,0,0,1-.4-.4v-.672h1.337Zm.532-5.4a29.4,29.4,0,0,1-8.83,0V2.394h8.83V7.018Zm1.6-2.224h-.8v-1.6h.4a.4.4,0,0,1,.4.4Z"/>
</svg>
