<svg id="download" xmlns="http://www.w3.org/2000/svg" width="16.851" height="16.851" viewBox="0 0 16.851 16.851">
  <g id="Group_50176" data-name="Group 50176" transform="translate(5.617)">
    <g id="Group_50175" data-name="Group 50175">
      <path id="Path_55208" data-name="Path 55208" d="M176.217,8.111a.7.7,0,0,0-.628-.388h-1.4V.7a.7.7,0,0,0-1.4,0V7.723h-1.4a.7.7,0,0,0-.562,1.123l2.106,2.808c.009.012.023.016.033.027a.685.685,0,0,0,.162.135.723.723,0,0,0,.072.048.659.659,0,0,0,.589,0,.714.714,0,0,0,.072-.048.685.685,0,0,0,.162-.135c.009-.011.024-.015.033-.027l2.106-2.808A.7.7,0,0,0,176.217,8.111Z" transform="translate(-170.674)" fill="#1176c5"/>
    </g>
  </g>
  <g id="Group_50178" data-name="Group 50178" transform="translate(0 10.532)">
    <g id="Group_50177" data-name="Group 50177">
      <path id="Path_55209" data-name="Path 55209" d="M16.148,320a.7.7,0,0,0-.7.7v2.106a2.109,2.109,0,0,1-2.106,2.106H3.511A2.109,2.109,0,0,1,1.4,322.808V320.7a.7.7,0,0,0-1.4,0v2.106a3.515,3.515,0,0,0,3.511,3.511h9.83a3.515,3.515,0,0,0,3.511-3.511V320.7A.7.7,0,0,0,16.148,320Z" transform="translate(0 -320)" fill="#1176c5"/>
    </g>
  </g>
</svg>
