<svg xmlns="http://www.w3.org/2000/svg" width="10.313" height="16.001" viewBox="0 0 10.313 16.001">
  <g id="train" transform="translate(-91)">
    <path id="Path_53616" data-name="Path 53616" d="M99.648,2.5A8.013,8.013,0,0,0,97.8,2.022L98.366.938h.878l.331.331a.469.469,0,0,0,.663-.663L99.77.137A.469.469,0,0,0,99.438,0H92.781a.469.469,0,0,0-.375.188l-.375.5a.469.469,0,0,0,.75.563l.234-.313h.932l.561,1.085a8.014,8.014,0,0,0-1.843.477C91.591,2.936,91,3.568,91,4.28v7.471a1.408,1.408,0,0,0,1.406,1.406H92.7l-.735,2.228a.469.469,0,0,0,.89.294l.213-.647h6.184l.213.647a.469.469,0,0,0,.89-.294l-.735-2.228h.289a1.408,1.408,0,0,0,1.406-1.406V4.28c0-.712-.591-1.345-1.665-1.781ZM97.31.938l-.51.986a11.75,11.75,0,0,0-1.286,0L95,.938Zm2.773,2.875H92.23C93.761,2.526,98.547,2.521,100.084,3.813Zm-8.146.938h3.75V8h-.873l-2.878-.822Zm.469,7.469a.469.469,0,0,1-.469-.469v-.469H93.29l.234.938Zm.968,1.875.309-.938H98.63l.309.938Zm7-2.344a.469.469,0,0,1-.469.469H98.789l.234-.938h1.353Zm0-1.406h-1.72a.469.469,0,0,0-.455.355l-.379,1.52H94.491l-.38-1.52a.469.469,0,0,0-.455-.355H91.938V8.154c2.814.8,2.693.784,2.812.784,2.972-.006,2.823.016,2.942-.018l2.685-.767Zm0-3.167L97.5,8h-.871V4.75h3.75Z" transform="translate(0 0)" />
  </g>
</svg>
