<svg xmlns="http://www.w3.org/2000/svg" width="9.568" height="13.608" viewBox="0 0 9.568 13.608">
  <g id="pin_2_" data-name="pin (2)" transform="translate(-76)">
    <g id="Group_47717" data-name="Group 47717" transform="translate(76)">
      <g id="Group_47716" data-name="Group 47716">
        <path id="Path_53610" data-name="Path 53610" d="M80.784,0a4.785,4.785,0,0,0-4.07,7.3l3.8,6.12a.4.4,0,0,0,.339.188h0a.4.4,0,0,0,.339-.194l3.7-6.179A4.785,4.785,0,0,0,80.784,0Zm3.425,6.826-3.365,5.618L77.392,6.88a3.989,3.989,0,1,1,6.817-.054Z" transform="translate(-76)"/>
      </g>
    </g>
    <g id="Group_47719" data-name="Group 47719" transform="translate(78.392 2.392)">
      <g id="Group_47718" data-name="Group 47718">
        <path id="Path_53611" data-name="Path 53611" d="M168.392,90a2.392,2.392,0,1,0,2.392,2.392A2.395,2.395,0,0,0,168.392,90Zm0,3.992a1.6,1.6,0,1,1,1.6-1.6A1.6,1.6,0,0,1,168.392,93.992Z" transform="translate(-166 -90)"/>
      </g>
    </g>
  </g>
</svg>
