<svg xmlns="http://www.w3.org/2000/svg" width="16.785" height="22.992" viewBox="0 0 16.785 22.992">
  <g id="Group_47979" data-name="Group 47979" transform="translate(-266.521 -499.73)">
    <g id="Group_47978" data-name="Group 47978">
      <g id="Path_53773" data-name="Path 53773">
        <path id="Path_53839" data-name="Path 53839" d="M274.914,522.722c-5.177,0-8.393-2.258-8.393-5.894,0-3.14,2.384-6.7,5.533-8.383a1.817,1.817,0,0,1,.491-2.432,6.23,6.23,0,0,1-2.073-5.423l.105-.86.691.521a6.068,6.068,0,0,0,2.29,1.062,4.321,4.321,0,0,1,1.069-1.072l.287-.2.286.2a4.342,4.342,0,0,1,1.07,1.072,6.09,6.09,0,0,0,2.29-1.062l.691-.521.1.86a6.23,6.23,0,0,1-2.072,5.422,1.816,1.816,0,0,1,.489,2.433c3.148,1.686,5.532,5.241,5.533,8.383C283.306,520.464,280.09,522.722,274.914,522.722ZM273.6,506.675a.815.815,0,0,0-.442,1.5l.779.5-.848.375c-3.069,1.356-5.567,4.845-5.567,7.776,0,3.609,3.819,4.894,7.393,4.894s7.392-1.285,7.392-4.894c0-2.933-2.5-6.421-5.565-7.775l-.849-.374.78-.5a.815.815,0,0,0-.443-1.5H273.6Zm-2.169-5.126a5.226,5.226,0,0,0,2.434,4.2l1.051.659,1.049-.658a5.222,5.222,0,0,0,2.433-4.2,7.077,7.077,0,0,1-2.281.814l-.343.059-.174-.3a3.35,3.35,0,0,0-.685-.835,3.328,3.328,0,0,0-.685.835l-.175.3-.343-.059A7.077,7.077,0,0,1,271.43,501.549Z" fill="#0062ae"/>
      </g>
      <g id="Path_53774" data-name="Path 53774">
        <path id="Path_53840" data-name="Path 53840" d="M276.229,509.306H273.6a1.816,1.816,0,1,1,0-3.631h2.631a1.816,1.816,0,0,1,0,3.631Zm-2.631-2.631a.816.816,0,1,0,0,1.631h2.631a.816.816,0,0,0,0-1.631Z" fill="#0062ae"/>
      </g>
    </g>
    <g id="Path_53777" data-name="Path 53777">
      <path id="Path_53841" data-name="Path 53841" d="M274.808,519.365a.413.413,0,0,0,.412-.412v-.9a1.649,1.649,0,0,0-.392-3.251.825.825,0,0,1-.321-1.584,1.037,1.037,0,0,1,1.133.316.412.412,0,1,0,.574-.592,2.154,2.154,0,0,0-.993-.567v-.847a.413.413,0,1,0-.825,0v.858a1.545,1.545,0,0,0-.211.073,1.649,1.649,0,0,0,.643,3.168.825.825,0,1,1-.013,1.649,1.308,1.308,0,0,1-.947-.541.412.412,0,1,0-.631.53h0a2.241,2.241,0,0,0,1.16.78v.9a.412.412,0,0,0,.409.415Z" fill="#0062ae"/>
    </g>
  </g>
</svg>
