<svg xmlns="http://www.w3.org/2000/svg" width="13.879" height="15.036" viewBox="0 0 13.879 15.036">
  <g id="copy_2_" data-name="copy (2)" transform="translate(16 16.036) rotate(180)">
    <path id="Path_54375" data-name="Path 54375" d="M10.141,120.067H1.829A1.888,1.888,0,0,1,0,118.128v-9.521a1.888,1.888,0,0,1,1.829-1.939h.332a.53.53,0,0,1,0,1.058H1.829a.859.859,0,0,0-.831.881v9.521a.859.859,0,0,0,.831.882h8.312a.859.859,0,0,0,.831-.882v-.353a.5.5,0,1,1,1,0v.353A1.888,1.888,0,0,1,10.141,120.067Zm0,0" transform="translate(2.121 -104.032)" fill="#1175cb"/>
    <path id="Path_54376" data-name="Path 54376" d="M137.636,13.091H130a2,2,0,0,1-2-2V2a2,2,0,0,1,2-2h7.636a2,2,0,0,1,2,2v9.091A2,2,0,0,1,137.636,13.091ZM130,1.091a.91.91,0,0,0-.909.909v9.091A.91.91,0,0,0,130,12h7.636a.91.91,0,0,0,.909-.909V2a.91.91,0,0,0-.909-.909Zm0,0" transform="translate(-123.636 1)" fill="#1175cb"/>
  </g>
</svg>
