<svg xmlns="http://www.w3.org/2000/svg" width="12.083" height="12.137" viewBox="0 0 12.083 12.137">
  <g id="phone-call" transform="translate(-50.83 -55.62)">
    <g id="Group_50314" data-name="Group 50314" transform="translate(50.83 55.62)">
      <path id="Path_57795" data-name="Path 57795" d="M10.516,34.641A1.267,1.267,0,0,0,9.6,34.22a1.31,1.31,0,0,0-.93.419l-.859.856c-.071-.038-.141-.073-.209-.109-.1-.049-.19-.1-.269-.144A9.338,9.338,0,0,1,5.092,33.2a5.509,5.509,0,0,1-.734-1.158c.223-.2.43-.416.631-.62l.228-.231a1.247,1.247,0,0,0,0-1.881l-.742-.742c-.084-.084-.171-.171-.253-.258-.163-.169-.334-.343-.511-.506a1.287,1.287,0,0,0-.911-.4,1.332,1.332,0,0,0-.924.4l-.005.005-.924.933a1.989,1.989,0,0,0-.59,1.264A4.766,4.766,0,0,0,.7,32.025a11.707,11.707,0,0,0,2.08,3.469,12.8,12.8,0,0,0,4.261,3.336,6.638,6.638,0,0,0,2.393.707c.057,0,.117.005.171.005a2.049,2.049,0,0,0,1.569-.674c0-.005.008-.008.011-.014a6.18,6.18,0,0,1,.476-.492c.117-.111.237-.228.353-.351a1.356,1.356,0,0,0,.411-.941,1.307,1.307,0,0,0-.419-.933ZM11.49,37.5s0,0,0,0c-.106.114-.215.218-.332.332a7.148,7.148,0,0,0-.525.544,1.311,1.311,0,0,1-1.022.432c-.041,0-.084,0-.125,0a5.9,5.9,0,0,1-2.121-.636A12.078,12.078,0,0,1,3.352,35.03a11.038,11.038,0,0,1-1.958-3.26,3.882,3.882,0,0,1-.3-1.7,1.248,1.248,0,0,1,.375-.808l.927-.927a.618.618,0,0,1,.413-.193.582.582,0,0,1,.4.19l.008.008c.166.155.324.315.489.487l.258.264.742.742a.519.519,0,0,1,0,.843c-.079.079-.155.158-.234.234-.228.234-.446.451-.682.663-.005.005-.011.008-.014.014a.555.555,0,0,0-.141.617l.008.024a5.959,5.959,0,0,0,.878,1.433l0,0a9.979,9.979,0,0,0,2.414,2.2,3.711,3.711,0,0,0,.334.182c.1.049.19.1.269.144l.033.019a.589.589,0,0,0,.269.068.581.581,0,0,0,.413-.188l.93-.93a.615.615,0,0,1,.411-.2.554.554,0,0,1,.392.2l.005.005,1.5,1.5A.538.538,0,0,1,11.49,37.5Z" transform="translate(-0.344 -27.406)"/>
    </g>
  </g>
</svg>
