<svg xmlns="http://www.w3.org/2000/svg" width="12.662" height="12.662" viewBox="0 0 12.662 12.662">
  <g id="phone_2_" data-name="phone (2)" transform="translate(0)">
    <path id="Path_53608" data-name="Path 53608" d="M9.1,12.662a3.528,3.528,0,0,1-1.21-.216A12.906,12.906,0,0,1,3.2,9.459,12.905,12.905,0,0,1,.217,4.772,3.5,3.5,0,0,1,.038,3.051,3.591,3.591,0,0,1,1.884.422,3.526,3.526,0,0,1,3.572,0a.4.4,0,0,1,.387.313l.621,2.9a.4.4,0,0,1-.107.363L3.412,4.635A10.415,10.415,0,0,0,8.028,9.251L9.089,8.19a.4.4,0,0,1,.363-.107l2.9.621a.4.4,0,0,1,.313.387,3.526,3.526,0,0,1-.422,1.688,3.591,3.591,0,0,1-2.629,1.846,3.52,3.52,0,0,1-.511.038ZM3.256.809A2.773,2.773,0,0,0,.96,4.5a12,12,0,0,0,7.2,7.2,2.773,2.773,0,0,0,3.693-2.3L9.5,8.9,8.388,10.01a.4.4,0,0,1-.448.078A11.2,11.2,0,0,1,2.574,4.723a.4.4,0,0,1,.078-.448L3.761,3.166Z" transform="translate(0 0)"/>
  </g>
</svg>
