<?xml version="1.0" encoding="utf-8"?>
<!-- Generator: Adobe Illustrator 23.0.0, SVG Export Plug-In . SVG Version: 6.00 Build 0)  -->
<svg version="1.1" id="Layer_1" xmlns="http://www.w3.org/2000/svg" xmlns:xlink="http://www.w3.org/1999/xlink" x="0px" y="0px"
	 viewBox="0 0 15.2 9.3" style="enable-background:new 0 0 15.2 9.3;" xml:space="preserve">
<path d="M14.9,0.3C14.7,0.1,14.5,0,14.2,0c-0.3,0-0.5,0.1-0.7,0.2L7.6,6.7L1.8,0.3C1.6,0.1,1.4,0,1.1,0C0.9,0,0.6,0.1,0.4,0.2
	L0.3,0.3C0,0.7,0,1.4,0.3,1.8l6.5,7.2c0.2,0.2,0.5,0.3,0.7,0.3c0.3,0,0.5-0.1,0.7-0.3l6.5-7.2C15.3,1.4,15.3,0.7,14.9,0.3z"/>
</svg>
