<svg xmlns="http://www.w3.org/2000/svg" width="28.389" height="28.398" viewBox="0 0 28.389 28.398">
  <g id="Group_47902" data-name="Group 47902" transform="translate(-14.84 -213.999)">
    <path id="Path_53685" data-name="Path 53685" d="M105.117,223.439a1.657,1.657,0,0,0-2.334.2l-3.793,3.9h0a1.7,1.7,0,0,0-1.627-1.22H91.085a6.632,6.632,0,0,0-2.663-.554,6.279,6.279,0,0,0-5.977,3.682l5.014,4.988.009-.007.863-.833a2.216,2.216,0,0,1,1.54-.622h7.39a4.417,4.417,0,0,0,3.081-1.252l4.971-5.943A1.657,1.657,0,0,0,105.117,223.439Zm0,0" transform="translate(-63.06 3.323)" fill="#fed2a4"/>
    <path id="Path_53686" data-name="Path 53686" d="M209.285,15.541A5.545,5.545,0,1,1,203.74,10,5.545,5.545,0,0,1,209.285,15.541Zm0,0" transform="translate(-172.39 204.558)" fill="#f6c169"/>
    <path id="Path_53687" data-name="Path 53687" d="M19.157,341.939l-2.685,2.646-6.226-6.274,2.638-2.646a1.109,1.109,0,0,1,1.569,0l4.7,4.7A1.109,1.109,0,0,1,19.157,341.939Zm0,0" transform="translate(5.134 -102.742)" fill="#fd6f64"/>
    <path id="Path_53688" data-name="Path 53688" d="M219.671,331.14a.555.555,0,1,0-.785,0A.555.555,0,0,0,219.671,331.14Zm0,0" transform="translate(-191.781 -97.88)"/>
    <path id="Path_53689" data-name="Path 53689" d="M188.449,6.1a6.1,6.1,0,1,0,6.1-6.1A6.106,6.106,0,0,0,188.449,6.1Zm11.09,0a4.991,4.991,0,1,1-4.991-4.99A5,5,0,0,1,199.539,6.1Zm0,0" transform="translate(-163.185 213.999)"/>
    <path id="Path_53690" data-name="Path 53690" d="M6.888,228.777a.554.554,0,0,0,.783,0l2.688-2.648a1.676,1.676,0,0,0,.395-1.721l.578-.558a1.654,1.654,0,0,1,1.155-.466h7.371a4.965,4.965,0,0,0,3.481-1.414c.039-.037-.293.353,5.029-6.007a2.218,2.218,0,0,0-3.375-2.879l-3.272,3.363A2.228,2.228,0,0,0,20,215.625H13.813a7.153,7.153,0,0,0-2.777-.554,6.86,6.86,0,0,0-6.253,3.545,1.656,1.656,0,0,0-1.483.46L.663,221.721a.555.555,0,0,0,0,.782Zm4.148-12.6a6.053,6.053,0,0,1,2.441.508.553.553,0,0,0,.222.047H20a1.109,1.109,0,1,1,0,2.218H15.472a.554.554,0,0,0,0,1.109H20a2.215,2.215,0,0,0,2.2-2.508c3.165-3.254,3.611-3.711,3.631-3.733a1.109,1.109,0,1,1,1.693,1.433L22.545,221.2a3.861,3.861,0,0,1-2.688,1.081H12.486a2.757,2.757,0,0,0-1.925.777l-.471.455-4.344-4.344A5.725,5.725,0,0,1,11.036,216.18Zm-6.951,3.68a.553.553,0,0,1,.687-.078c.1.059-.18-.192,4.8,4.783a.556.556,0,0,1,0,.781L7.286,227.6l-5.448-5.49Zm0,0" transform="translate(14.339 13.456)"/>
    <path id="Path_53691" data-name="Path 53691" d="M266.682,40.562v.633a1.663,1.663,0,0,0,.544,3.231.564.564,0,0,1,.561.491.555.555,0,0,1-.551.619,1,1,0,0,1-.712-.409.565.565,0,0,0-.713-.132.555.555,0,0,0-.144.835,2.3,2.3,0,0,0,1.014.722v.63a.566.566,0,0,0,.472.566.555.555,0,0,0,.637-.549v-.65a1.663,1.663,0,0,0-.545-3.231.564.564,0,0,1-.561-.491.555.555,0,0,1,.551-.619.879.879,0,0,1,.586.277.569.569,0,0,0,.726.062.555.555,0,0,0,.059-.847,2.143,2.143,0,0,0-.817-.51v-.646a.555.555,0,0,0-.637-.549A.566.566,0,0,0,266.682,40.562Zm0,0" transform="translate(-235.997 176.227)"/>
  </g>
</svg>
