<svg xmlns="http://www.w3.org/2000/svg" width="30.503" height="30.502" viewBox="0 0 30.503 30.502">
  <g id="Group_47914" data-name="Group 47914" transform="translate(-15658.671 -1242.169)">
    <path id="Path_53772" data-name="Path 53772" d="M15.821,249.91A7.91,7.91,0,1,1,7.91,242,7.9,7.9,0,0,1,15.821,249.91Zm0,0" transform="translate(15658.671 1014.851)" fill="#27eba7"/>
    <path id="Path_53771" data-name="Path 53771" d="M8.091,7.894A7.984,7.984,0,0,1,0,15.787V0A7.984,7.984,0,0,1,8.091,7.894Zm0,0" transform="translate(15660.989 1259.186) rotate(-47)" fill="#3bd69f"/>
    <path id="Union_95" data-name="Union 95" d="M3.023,11.8C-.124,8.666-.933,4.571,1.16,2.479L3.638,0l11.18,11.18L12.34,13.659a4.123,4.123,0,0,1-3.023,1.16A9.349,9.349,0,0,1,3.023,11.8Z" transform="translate(15666.968 1249.556)" fill="#fff" stroke="#000" stroke-width="1"/>
    <path id="Path_53756" data-name="Path 53756" d="M196.373,110.134a4.126,4.126,0,0,1-3.006,1.143,6.235,6.235,0,0,1-1.459-.176,11.036,11.036,0,0,1-7.682-7.682,4.559,4.559,0,0,1,.967-4.465c1.652-1.67,4.676-1.512,7.506.369l3.3,3.3C197.885,105.458,198.043,108.481,196.373,110.134Zm0,0" transform="translate(15485.413 1150.602)" fill="#d9dee3" stroke="#000" stroke-width="1"/>
    <path id="Path_53758" data-name="Path 53758" d="M294.565,5.548,284.8,13.459a2.521,2.521,0,0,1-2.5-2.5l7.9-9.774a3.105,3.105,0,1,1,4.359,4.36Zm0,0" transform="translate(15392.912 1242.671)" fill="#fff" stroke="#000" stroke-width="1"/>
    <path id="Path_53759" data-name="Path 53759" d="M305.913,19.852l-9.357,7.441a1.827,1.827,0,0,1-1.419-.732l11.008-11.024A2.823,2.823,0,0,1,305.913,19.852Zm0,0" transform="translate(15381.042 1228.283)" fill="#d9dee3"/>
    <path id="Path_53760" data-name="Path 53760" d="M87.178,83.906a.577.577,0,0,0-.81.1L83.7,87.412l-1.488-1.1a.577.577,0,1,0-.686.928l1.939,1.433a.577.577,0,0,0,.8-.108l3.016-3.85A.577.577,0,0,0,87.178,83.906Z" transform="translate(15582.359 1178.801)"/>
  </g>
</svg>
