<svg xmlns="http://www.w3.org/2000/svg" width="25" height="25" viewBox="0 0 25 25">
  <g id="cog" transform="translate(0.5 0.5)">
    <path id="Path_31" data-name="Path 31" d="M21.113,14.065h2.344A1.043,1.043,0,0,0,24.5,13.022V11.978a1.043,1.043,0,0,0-1.043-1.043H21.112a12.313,12.313,0,0,0-1.043-3.049l1.655-1.657a1.043,1.043,0,0,0,0-1.475L20.247,3.277a1.043,1.043,0,0,0-1.475,0L17.112,4.935a12.281,12.281,0,0,0-3.047-1.043V1.543A1.043,1.043,0,0,0,13.022.5H11.978a1.043,1.043,0,0,0-1.043,1.043V3.889A12.289,12.289,0,0,0,7.887,4.933L6.228,3.277a1.043,1.043,0,0,0-1.475,0L3.276,4.753a1.043,1.043,0,0,0,0,1.475L4.935,7.887a12.335,12.335,0,0,0-1.043,3.048H1.543A1.043,1.043,0,0,0,.5,11.978v1.043a1.043,1.043,0,0,0,1.043,1.043H3.887a12.335,12.335,0,0,0,1.043,3.048L3.271,18.772a1.043,1.043,0,0,0,0,1.475l1.477,1.475a1.043,1.043,0,0,0,1.475,0l1.658-1.658a12.313,12.313,0,0,0,3.053,1.048v2.344A1.043,1.043,0,0,0,11.978,24.5h1.043a1.043,1.043,0,0,0,1.043-1.043V21.113a12.313,12.313,0,0,0,3.047-1.043l1.66,1.658a1.043,1.043,0,0,0,1.475,0l1.475-1.475a1.043,1.043,0,0,0,0-1.475l-1.658-1.659a12.335,12.335,0,0,0,1.048-3.052Z" transform="translate(-0.5 -0.5)" fill="#fff" stroke="#1d2329" stroke-linecap="round" stroke-linejoin="round" stroke-width="1"/>
    <ellipse id="Ellipse_18" data-name="Ellipse 18" cx="4.987" cy="4.987" rx="4.987" ry="4.987" transform="translate(7.013 7.013)" fill="#746aeb" stroke="#1d2329" stroke-linecap="round" stroke-linejoin="round" stroke-width="1"/>
  </g>
</svg>
