<svg xmlns="http://www.w3.org/2000/svg" width="21.229" height="29.063" viewBox="0 0 21.229 29.063">
  <g id="Group_47933" data-name="Group 47933" transform="translate(-17222.367 -1266.97)">
    <g id="Group_47932" data-name="Group 47932" transform="translate(17222.867 1267.887)">
      <path id="Path_53773" data-name="Path 53773" d="M22.715,20.182h0a1.685,1.685,0,0,0-.914-3.1A7.306,7.306,0,0,0,25.172,10a8.408,8.408,0,0,1-3.625,1.563A4.88,4.88,0,0,0,20.114,10a4.88,4.88,0,0,0-1.432,1.563A8.408,8.408,0,0,1,15.057,10a7.306,7.306,0,0,0,3.371,7.08,1.685,1.685,0,0,0-.914,3.1h0C13.188,22.093,10,26.829,10,30.735c0,4.655,4.528,6.912,10.114,6.912s10.114-2.257,10.114-6.912c0-3.906-3.188-8.641-7.514-10.552Z" transform="translate(-10 -10)" fill="#fad583" stroke="#000" stroke-width="1"/>
      <path id="Path_53774" data-name="Path 53774" d="M135.057,136a1.686,1.686,0,0,1,0,3.371h-3.372a1.686,1.686,0,0,1,0-3.371Z" transform="translate(-123.257 -128.92)" fill="#27eba7" stroke="#000" stroke-width="1"/>
    </g>
    <path id="Path_53777" data-name="Path 53777" d="M151.515,258.862a.493.493,0,0,0,.493-.493V257.3a1.973,1.973,0,0,0-.469-3.889.986.986,0,0,1-.384-1.895,1.243,1.243,0,0,1,1.355.378.493.493,0,0,0,.686-.708,2.575,2.575,0,0,0-1.188-.679v-1.013a.493.493,0,1,0-.986,0v1.026a2,2,0,0,0-.252.087,1.973,1.973,0,0,0,.769,3.789.986.986,0,1,1-.016,1.972,1.562,1.562,0,0,1-1.133-.647.493.493,0,1,0-.755.634,2.682,2.682,0,0,0,1.387.933v1.08A.493.493,0,0,0,151.515,258.862Z" transform="translate(17081.465 1033.005)"/>
  </g>
</svg>
